<ttFont>
    <TTGlyph name="A" xMin="-6" yMin="-26" xMax="724" yMax="725">
      <contour>
        <pt x="635" y="578" on="1"/>
        <pt x="627" y="340" on="1"/>
        <pt x="627" y="217" on="0"/>
        <pt x="668" y="49" on="0"/>
        <pt x="724" y="17" on="1"/>
        <pt x="655" y="-26" on="0"/>
        <pt x="584" y="-26" on="1"/>
        <pt x="459" y="-26" on="0"/>
        <pt x="430" y="176" on="1"/>
        <pt x="226" y="176" on="1"/>
        <pt x="207" y="111" on="0"/>
        <pt x="207" y="42" on="0"/>
        <pt x="215" y="21" on="1"/>
        <pt x="141" y="-26" on="0"/>
        <pt x="83" y="-26" on="1"/>
        <pt x="-6" y="-26" on="0"/>
        <pt x="-6" y="82" on="1"/>
        <pt x="-6" y="136" on="0"/>
        <pt x="61" y="300" on="0"/>
        <pt x="172" y="512" on="0"/>
        <pt x="187" y="546" on="1"/>
        <pt x="176" y="600" on="0"/>
        <pt x="162" y="652" on="1"/>
        <pt x="214" y="688" on="0"/>
        <pt x="311" y="725" on="0"/>
        <pt x="424" y="725" on="0"/>
        <pt x="446" y="700" on="1"/>
        <pt x="503" y="725" on="0"/>
        <pt x="577" y="725" on="0"/>
        <pt x="613" y="701" on="0"/>
        <pt x="621" y="678" on="1"/>
        <pt x="635" y="638" on="0"/>
      </contour>
      <contour>
        <pt x="434" y="555" on="1"/>
        <pt x="402" y="555" on="1"/>
        <pt x="312" y="381" on="0"/>
        <pt x="268" y="281" on="1"/>
        <pt x="423" y="281" on="1"/>
        <pt x="423" y="390" on="0"/>
      </contour>
    </TTGlyph>
    <TTGlyph name="AE" xMin="-6" yMin="-26" xMax="987" yMax="726">
      <contour>
        <pt x="705" y="246" on="1"/>
        <pt x="634" y="246" on="1"/>
        <pt x="624" y="186" on="0"/>
        <pt x="624" y="136" on="1"/>
        <pt x="786" y="136" on="1"/>
        <pt x="862" y="147" on="0"/>
        <pt x="939" y="175" on="1"/>
        <pt x="945" y="157" on="0"/>
        <pt x="945" y="126" on="1"/>
        <pt x="945" y="67" on="0"/>
        <pt x="876" y="-25" on="0"/>
        <pt x="815" y="-25" on="1"/>
        <pt x="783" y="-25" on="0"/>
        <pt x="660" y="0" on="0"/>
        <pt x="630" y="3" on="1"/>
        <pt x="582" y="-26" on="0"/>
        <pt x="464" y="-26" on="0"/>
        <pt x="408" y="49" on="0"/>
        <pt x="408" y="129" on="1"/>
        <pt x="408" y="166" on="0"/>
        <pt x="419" y="246" on="1"/>
        <pt x="246" y="246" on="1"/>
        <pt x="207" y="144" on="0"/>
        <pt x="207" y="74" on="1"/>
        <pt x="207" y="42" on="0"/>
        <pt x="215" y="21" on="1"/>
        <pt x="141" y="-26" on="0"/>
        <pt x="83" y="-26" on="1"/>
        <pt x="-6" y="-26" on="0"/>
        <pt x="-6" y="82" on="1"/>
        <pt x="-6" y="136" on="0"/>
        <pt x="61" y="300" on="0"/>
        <pt x="172" y="512" on="0"/>
        <pt x="187" y="546" on="1"/>
        <pt x="162" y="652" on="1"/>
        <pt x="392" y="726" on="0"/>
        <pt x="584" y="726" on="1"/>
        <pt x="680" y="726" on="0"/>
        <pt x="696" y="670" on="1"/>
        <pt x="810" y="673" on="0"/>
        <pt x="979" y="721" on="1"/>
        <pt x="987" y="688" on="0"/>
        <pt x="987" y="656" on="1"/>
        <pt x="987" y="575" on="0"/>
        <pt x="880" y="493" on="0"/>
        <pt x="796" y="493" on="1"/>
        <pt x="740" y="493" on="0"/>
        <pt x="684" y="517" on="1"/>
        <pt x="679" y="489" on="0"/>
        <pt x="655" y="363" on="1"/>
        <pt x="719" y="363" on="1"/>
        <pt x="734" y="363" on="0"/>
        <pt x="809" y="386" on="1"/>
        <pt x="814" y="369" on="0"/>
        <pt x="814" y="292" on="0"/>
        <pt x="752" y="246" on="0"/>
      </contour>
      <contour>
        <pt x="473" y="555" on="1"/>
        <pt x="402" y="555" on="1"/>
        <pt x="339" y="449" on="0"/>
        <pt x="297" y="363" on="1"/>
        <pt x="438" y="363" on="1"/>
      </contour>
    </TTGlyph>
    <TTGlyph name="Aacute" xMin="-6" yMin="-26" xMax="724" yMax="986">
      <component glyphName="A" x="0" y="0" flags="0x1004"/>
      <component glyphName="acute" x="209" y="100" flags="0x1004"/>
    </TTGlyph>
    <TTGlyph name="Acircumflex" xMin="-6" yMin="-26" xMax="724" yMax="983">
      <component glyphName="A" x="0" y="0" flags="0x1004"/>
      <component glyphName="circumflex" x="159" y="115" flags="0x1004"/>
    </TTGlyph>
    <TTGlyph name="Adieresis" xMin="-6" yMin="-26" xMax="724" yMax="954">
      <contour>
        <pt x="635" y="578" on="1"/>
        <pt x="627" y="340" on="1"/>
        <pt x="627" y="217" on="0"/>
        <pt x="668" y="49" on="0"/>
        <pt x="724" y="17" on="1"/>
        <pt x="655" y="-26" on="0"/>
        <pt x="584" y="-26" on="1"/>
        <pt x="459" y="-26" on="0"/>
        <pt x="430" y="176" on="1"/>
        <pt x="226" y="176" on="1"/>
        <pt x="207" y="111" on="0"/>
        <pt x="207" y="42" on="0"/>
        <pt x="215" y="21" on="1"/>
        <pt x="141" y="-26" on="0"/>
        <pt x="83" y="-26" on="1"/>
        <pt x="-6" y="-26" on="0"/>
        <pt x="-6" y="82" on="1"/>
        <pt x="-6" y="136" on="0"/>
        <pt x="61" y="300" on="0"/>
        <pt x="172" y="512" on="0"/>
        <pt x="187" y="546" on="1"/>
        <pt x="176" y="600" on="0"/>
        <pt x="162" y="652" on="1"/>
        <pt x="214" y="688" on="0"/>
        <pt x="311" y="725" on="0"/>
        <pt x="424" y="725" on="0"/>
        <pt x="446" y="700" on="1"/>
        <pt x="503" y="725" on="0"/>
        <pt x="577" y="725" on="0"/>
        <pt x="613" y="701" on="0"/>
        <pt x="621" y="678" on="1"/>
        <pt x="635" y="638" on="0"/>
      </contour>
      <contour>
        <pt x="434" y="555" on="1"/>
        <pt x="402" y="555" on="1"/>
        <pt x="312" y="381" on="0"/>
        <pt x="268" y="281" on="1"/>
        <pt x="423" y="281" on="1"/>
        <pt x="423" y="390" on="0"/>
      </contour>
      <contour>
        <pt x="707" y="831" on="0"/>
        <pt x="633" y="771" on="0"/>
        <pt x="541" y="771" on="0"/>
        <pt x="488" y="811" on="0"/>
        <pt x="488" y="846" on="1"/>
        <pt x="488" y="897" on="0"/>
        <pt x="567" y="954" on="0"/>
        <pt x="654" y="954" on="0"/>
        <pt x="707" y="913" on="0"/>
      </contour>
      <contour>
        <pt x="406" y="831" on="0"/>
        <pt x="332" y="771" on="0"/>
        <pt x="240" y="771" on="0"/>
        <pt x="187" y="811" on="0"/>
        <pt x="187" y="846" on="1"/>
        <pt x="187" y="897" on="0"/>
        <pt x="266" y="954" on="0"/>
        <pt x="353" y="954" on="0"/>
        <pt x="406" y="913" on="0"/>
      </contour>
    </TTGlyph>
    <TTGlyph name="Agrave" xMin="-6" yMin="-26" xMax="724" yMax="986">
      <component glyphName="A" x="0" y="0" flags="0x1004"/>
      <component glyphName="grave" x="259" y="100" flags="0x1004"/>
    </TTGlyph>
    <TTGlyph name="Aring" xMin="-6" yMin="-26" xMax="724" yMax="1019">
      <component glyphName="A" x="0" y="0" flags="0x1004"/>
      <component glyphName="ring" x="207" y="100" flags="0x1004"/>
    </TTGlyph>
    <TTGlyph name="Atilde" xMin="-6" yMin="-26" xMax="724" yMax="973">
      <contour>
        <pt x="635" y="578" on="1"/>
        <pt x="627" y="340" on="1"/>
        <pt x="627" y="217" on="0"/>
        <pt x="668" y="49" on="0"/>
        <pt x="724" y="17" on="1"/>
        <pt x="655" y="-26" on="0"/>
        <pt x="584" y="-26" on="1"/>
        <pt x="459" y="-26" on="0"/>
        <pt x="430" y="176" on="1"/>
        <pt x="226" y="176" on="1"/>
        <pt x="207" y="111" on="0"/>
        <pt x="207" y="42" on="0"/>
        <pt x="215" y="21" on="1"/>
        <pt x="141" y="-26" on="0"/>
        <pt x="83" y="-26" on="1"/>
        <pt x="-6" y="-26" on="0"/>
        <pt x="-6" y="82" on="1"/>
        <pt x="-6" y="136" on="0"/>
        <pt x="61" y="300" on="0"/>
        <pt x="172" y="512" on="0"/>
        <pt x="187" y="546" on="1"/>
        <pt x="176" y="600" on="0"/>
        <pt x="162" y="652" on="1"/>
        <pt x="214" y="688" on="0"/>
        <pt x="311" y="725" on="0"/>
        <pt x="424" y="725" on="0"/>
        <pt x="446" y="700" on="1"/>
        <pt x="503" y="725" on="0"/>
        <pt x="577" y="725" on="0"/>
        <pt x="613" y="701" on="0"/>
        <pt x="621" y="678" on="1"/>
        <pt x="635" y="638" on="0"/>
      </contour>
      <contour>
        <pt x="434" y="555" on="1"/>
        <pt x="402" y="555" on="1"/>
        <pt x="312" y="381" on="0"/>
        <pt x="268" y="281" on="1"/>
        <pt x="423" y="281" on="1"/>
        <pt x="423" y="390" on="0"/>
      </contour>
      <contour>
        <pt x="622" y="805" on="1"/>
        <pt x="582" y="825" on="0"/>
        <pt x="496" y="825" on="0"/>
        <pt x="343" y="766" on="0"/>
        <pt x="305" y="766" on="1"/>
        <pt x="241" y="766" on="0"/>
        <pt x="241" y="829" on="1"/>
        <pt x="241" y="875" on="0"/>
        <pt x="268" y="934" on="1"/>
        <pt x="308" y="914" on="0"/>
        <pt x="394" y="914" on="0"/>
        <pt x="547" y="973" on="0"/>
        <pt x="585" y="973" on="1"/>
        <pt x="649" y="973" on="0"/>
        <pt x="649" y="910" on="1"/>
        <pt x="649" y="864" on="0"/>
      </contour>
    </TTGlyph>
    <TTGlyph name="B" xMin="60" yMin="-26" xMax="727" yMax="726">
      <contour>
        <pt x="116" y="-26" on="0"/>
        <pt x="60" y="49" on="0"/>
        <pt x="60" y="198" on="0"/>
        <pt x="123" y="546" on="1"/>
        <pt x="70" y="653" on="1"/>
        <pt x="183" y="726" on="0"/>
        <pt x="276" y="726" on="1"/>
        <pt x="338" y="726" on="0"/>
        <pt x="350" y="666" on="1"/>
        <pt x="453" y="725" on="0"/>
        <pt x="552" y="725" on="1"/>
        <pt x="617" y="725" on="0"/>
        <pt x="666" y="695" on="1"/>
        <pt x="724" y="660" on="0"/>
        <pt x="724" y="574" on="1"/>
        <pt x="724" y="432" on="0"/>
        <pt x="567" y="368" on="1"/>
        <pt x="727" y="340" on="0"/>
        <pt x="727" y="189" on="1"/>
        <pt x="727" y="91" on="0"/>
        <pt x="565" y="-25" on="0"/>
        <pt x="364" y="-25" on="0"/>
        <pt x="303" y="17" on="1"/>
        <pt x="244" y="-26" on="0"/>
      </contour>
      <contour>
        <pt x="496" y="258" on="0"/>
        <pt x="441" y="302" on="0"/>
        <pt x="349" y="302" on="0"/>
        <pt x="292" y="283" on="1"/>
        <pt x="276" y="198" on="0"/>
        <pt x="276" y="164" on="1"/>
        <pt x="276" y="138" on="1"/>
        <pt x="325" y="115" on="0"/>
        <pt x="431" y="115" on="0"/>
        <pt x="496" y="165" on="0"/>
      </contour>
      <contour>
        <pt x="431" y="593" on="1"/>
        <pt x="392" y="593" on="0"/>
        <pt x="347" y="578" on="1"/>
        <pt x="341" y="539" on="0"/>
        <pt x="310" y="378" on="1"/>
        <pt x="393" y="384" on="0"/>
        <pt x="509" y="453" on="0"/>
        <pt x="509" y="518" on="1"/>
        <pt x="509" y="593" on="0"/>
      </contour>
    </TTGlyph>
    <TTGlyph name="C" xMin="30" yMin="-25" xMax="673" yMax="725">
      <contour>
        <pt x="30" y="307" on="1"/>
        <pt x="30" y="377" on="0"/>
        <pt x="90" y="522" on="0"/>
        <pt x="200" y="646" on="0"/>
        <pt x="377" y="725" on="0"/>
        <pt x="566" y="725" on="0"/>
        <pt x="673" y="655" on="0"/>
        <pt x="673" y="531" on="0"/>
        <pt x="592" y="462" on="0"/>
        <pt x="488" y="462" on="0"/>
        <pt x="405" y="507" on="0"/>
        <pt x="380" y="549" on="1"/>
        <pt x="326" y="523" on="0"/>
        <pt x="248" y="371" on="0"/>
        <pt x="248" y="218" on="0"/>
        <pt x="298" y="129" on="0"/>
        <pt x="390" y="129" on="0"/>
        <pt x="461" y="223" on="0"/>
        <pt x="461" y="289" on="1"/>
        <pt x="562" y="289" on="0"/>
        <pt x="649" y="257" on="0"/>
        <pt x="649" y="204" on="1"/>
        <pt x="649" y="121" on="0"/>
        <pt x="469" y="-25" on="0"/>
        <pt x="197" y="-25" on="0"/>
        <pt x="30" y="143" on="0"/>
      </contour>
    </TTGlyph>
    <TTGlyph name="Ccedilla" xMin="30" yMin="-287" xMax="673" yMax="725">
      <contour>
        <pt x="30" y="307" on="1"/>
        <pt x="30" y="143" on="0"/>
        <pt x="197" y="-25" on="0"/>
        <pt x="469" y="-25" on="0"/>
        <pt x="649" y="121" on="0"/>
        <pt x="649" y="204" on="1"/>
        <pt x="649" y="257" on="0"/>
        <pt x="562" y="289" on="0"/>
        <pt x="461" y="289" on="1"/>
        <pt x="461" y="223" on="0"/>
        <pt x="390" y="129" on="0"/>
        <pt x="298" y="129" on="0"/>
        <pt x="248" y="218" on="0"/>
        <pt x="248" y="371" on="0"/>
        <pt x="326" y="523" on="0"/>
        <pt x="380" y="549" on="1"/>
        <pt x="405" y="507" on="0"/>
        <pt x="488" y="462" on="0"/>
        <pt x="592" y="462" on="0"/>
        <pt x="673" y="531" on="0"/>
        <pt x="673" y="655" on="0"/>
        <pt x="566" y="725" on="0"/>
        <pt x="377" y="725" on="0"/>
        <pt x="200" y="646" on="0"/>
        <pt x="90" y="522" on="0"/>
        <pt x="30" y="377" on="0"/>
      </contour>
      <contour>
        <pt x="158" y="28" on="1"/>
        <pt x="232" y="28" on="1"/>
        <pt x="316" y="28" on="0"/>
        <pt x="406" y="-53" on="0"/>
        <pt x="406" y="-180" on="0"/>
        <pt x="292" y="-287" on="0"/>
        <pt x="119" y="-287" on="0"/>
        <pt x="46" y="-222" on="0"/>
        <pt x="46" y="-130" on="0"/>
        <pt x="122" y="-60" on="0"/>
        <pt x="180" y="-60" on="1"/>
        <pt x="152" y="-85" on="0"/>
        <pt x="152" y="-130" on="1"/>
        <pt x="152" y="-158" on="0"/>
        <pt x="181" y="-188" on="0"/>
        <pt x="233" y="-188" on="0"/>
        <pt x="283" y="-138" on="0"/>
        <pt x="283" y="-57" on="0"/>
        <pt x="219" y="15" on="0"/>
      </contour>
    </TTGlyph>
    <TTGlyph name="D" xMin="60" yMin="-25" xMax="776" yMax="725">
      <contour>
        <pt x="60" y="163" on="1"/>
        <pt x="60" y="220" on="0"/>
        <pt x="114" y="508" on="0"/>
        <pt x="120" y="546" on="1"/>
        <pt x="67" y="653" on="1"/>
        <pt x="194" y="725" on="0"/>
        <pt x="283" y="725" on="1"/>
        <pt x="327" y="725" on="0"/>
        <pt x="349" y="695" on="1"/>
        <pt x="432" y="724" on="0"/>
        <pt x="502" y="724" on="1"/>
        <pt x="632" y="724" on="0"/>
        <pt x="776" y="555" on="0"/>
        <pt x="776" y="429" on="1"/>
        <pt x="776" y="263" on="0"/>
        <pt x="654" y="124" on="1"/>
        <pt x="595" y="57" on="0"/>
        <pt x="402" y="-25" on="0"/>
        <pt x="182" y="-25" on="0"/>
        <pt x="60" y="72" on="0"/>
      </contour>
      <contour>
        <pt x="272" y="125" on="1"/>
        <pt x="293" y="121" on="0"/>
        <pt x="319" y="121" on="1"/>
        <pt x="428" y="121" on="0"/>
        <pt x="550" y="278" on="0"/>
        <pt x="550" y="393" on="1"/>
        <pt x="550" y="486" on="0"/>
        <pt x="466" y="596" on="0"/>
        <pt x="387" y="596" on="1"/>
        <pt x="375" y="596" on="0"/>
        <pt x="347" y="592" on="1"/>
        <pt x="340" y="541" on="0"/>
        <pt x="281" y="188" on="0"/>
      </contour>
    </TTGlyph>
    <TTGlyph name="Delta" xMin="5" yMin="-35" xMax="820" yMax="775">
      <contour>
        <pt x="540" y="775" on="1"/>
        <pt x="538" y="769" on="0"/>
        <pt x="538" y="755" on="1"/>
        <pt x="538" y="685" on="0"/>
        <pt x="626" y="479" on="0"/>
        <pt x="732" y="306" on="0"/>
        <pt x="820" y="134" on="0"/>
        <pt x="820" y="54" on="0"/>
        <pt x="748" y="-1" on="0"/>
        <pt x="555" y="-35" on="0"/>
        <pt x="304" y="-35" on="0"/>
        <pt x="166" y="-12" on="0"/>
        <pt x="87" y="21" on="0"/>
        <pt x="33" y="71" on="0"/>
        <pt x="12" y="111" on="0"/>
        <pt x="5" y="136" on="1"/>
        <pt x="36" y="159" on="0"/>
        <pt x="109" y="252" on="0"/>
        <pt x="164" y="347" on="0"/>
        <pt x="318" y="603" on="0"/>
        <pt x="394" y="734" on="0"/>
        <pt x="478" y="775" on="0"/>
      </contour>
      <contour>
        <pt x="436" y="471" on="1"/>
        <pt x="365" y="301" on="0"/>
        <pt x="291" y="182" on="1"/>
        <pt x="348" y="161" on="0"/>
        <pt x="481" y="161" on="0"/>
        <pt x="555" y="182" on="1"/>
        <pt x="479" y="321" on="0"/>
      </contour>
    </TTGlyph>
    <TTGlyph name="E" xMin="60" yMin="-26" xMax="639" yMax="726">
      <contour>
        <pt x="116" y="-26" on="0"/>
        <pt x="60" y="49" on="0"/>
        <pt x="60" y="198" on="0"/>
        <pt x="123" y="546" on="1"/>
        <pt x="70" y="653" on="1"/>
        <pt x="183" y="726" on="0"/>
        <pt x="276" y="726" on="1"/>
        <pt x="335" y="726" on="0"/>
        <pt x="349" y="670" on="1"/>
        <pt x="462" y="673" on="0"/>
        <pt x="631" y="721" on="1"/>
        <pt x="639" y="688" on="0"/>
        <pt x="639" y="656" on="1"/>
        <pt x="639" y="575" on="0"/>
        <pt x="532" y="493" on="0"/>
        <pt x="448" y="493" on="1"/>
        <pt x="391" y="493" on="0"/>
        <pt x="336" y="517" on="1"/>
        <pt x="328" y="472" on="0"/>
        <pt x="308" y="370" on="1"/>
        <pt x="345" y="363" on="0"/>
        <pt x="371" y="363" on="1"/>
        <pt x="412" y="371" on="0"/>
        <pt x="461" y="386" on="1"/>
        <pt x="466" y="369" on="0"/>
        <pt x="466" y="292" on="0"/>
        <pt x="404" y="246" on="0"/>
        <pt x="327" y="246" on="0"/>
        <pt x="287" y="255" on="1"/>
        <pt x="276" y="192" on="0"/>
        <pt x="276" y="136" on="1"/>
        <pt x="438" y="136" on="1"/>
        <pt x="514" y="147" on="0"/>
        <pt x="591" y="175" on="1"/>
        <pt x="597" y="157" on="0"/>
        <pt x="597" y="126" on="1"/>
        <pt x="597" y="67" on="0"/>
        <pt x="528" y="-25" on="0"/>
        <pt x="467" y="-25" on="1"/>
        <pt x="435" y="-25" on="0"/>
        <pt x="312" y="0" on="0"/>
        <pt x="282" y="3" on="1"/>
        <pt x="234" y="-26" on="0"/>
      </contour>
    </TTGlyph>
    <TTGlyph name="Eacute" xMin="60" yMin="-26" xMax="639" yMax="986">
      <component glyphName="E" x="0" y="0" flags="0x1004"/>
      <component glyphName="acute" x="185" y="100" flags="0x1004"/>
    </TTGlyph>
    <TTGlyph name="Ecircumflex" xMin="60" yMin="-26" xMax="639" yMax="983">
      <contour>
        <pt x="116" y="-26" on="0"/>
        <pt x="60" y="49" on="0"/>
        <pt x="60" y="198" on="0"/>
        <pt x="123" y="546" on="1"/>
        <pt x="70" y="653" on="1"/>
        <pt x="183" y="726" on="0"/>
        <pt x="276" y="726" on="1"/>
        <pt x="335" y="726" on="0"/>
        <pt x="349" y="670" on="1"/>
        <pt x="462" y="673" on="0"/>
        <pt x="631" y="721" on="1"/>
        <pt x="639" y="688" on="0"/>
        <pt x="639" y="656" on="1"/>
        <pt x="639" y="575" on="0"/>
        <pt x="532" y="493" on="0"/>
        <pt x="448" y="493" on="1"/>
        <pt x="391" y="493" on="0"/>
        <pt x="336" y="517" on="1"/>
        <pt x="328" y="472" on="0"/>
        <pt x="308" y="370" on="1"/>
        <pt x="345" y="363" on="0"/>
        <pt x="371" y="363" on="1"/>
        <pt x="412" y="371" on="0"/>
        <pt x="461" y="386" on="1"/>
        <pt x="466" y="369" on="0"/>
        <pt x="466" y="292" on="0"/>
        <pt x="404" y="246" on="0"/>
        <pt x="327" y="246" on="0"/>
        <pt x="287" y="255" on="1"/>
        <pt x="276" y="192" on="0"/>
        <pt x="276" y="136" on="1"/>
        <pt x="438" y="136" on="1"/>
        <pt x="514" y="147" on="0"/>
        <pt x="591" y="175" on="1"/>
        <pt x="597" y="157" on="0"/>
        <pt x="597" y="126" on="1"/>
        <pt x="597" y="67" on="0"/>
        <pt x="528" y="-25" on="0"/>
        <pt x="467" y="-25" on="1"/>
        <pt x="435" y="-25" on="0"/>
        <pt x="312" y="0" on="0"/>
        <pt x="282" y="3" on="1"/>
        <pt x="234" y="-26" on="0"/>
      </contour>
      <contour>
        <pt x="584" y="946" on="1"/>
        <pt x="574" y="823" on="1"/>
        <pt x="574" y="792" on="0"/>
        <pt x="588" y="767" on="1"/>
        <pt x="557" y="759" on="0"/>
        <pt x="462" y="759" on="0"/>
        <pt x="421" y="801" on="0"/>
        <pt x="421" y="841" on="1"/>
        <pt x="421" y="856" on="0"/>
        <pt x="428" y="921" on="1"/>
        <pt x="402" y="921" on="1"/>
        <pt x="342" y="847" on="0"/>
        <pt x="342" y="771" on="1"/>
        <pt x="287" y="759" on="0"/>
        <pt x="173" y="759" on="0"/>
        <pt x="173" y="778" on="1"/>
        <pt x="173" y="820" on="0"/>
        <pt x="297" y="958" on="1"/>
        <pt x="314" y="968" on="0"/>
        <pt x="416" y="983" on="0"/>
        <pt x="467" y="983" on="1"/>
        <pt x="584" y="983" on="0"/>
      </contour>
    </TTGlyph>
    <TTGlyph name="Edieresis" xMin="60" yMin="-26" xMax="668" yMax="954">
      <component glyphName="E" x="0" y="0" flags="0x1004"/>
      <component glyphName="dieresis" x="62" y="105" flags="0x1004"/>
    </TTGlyph>
    <TTGlyph name="Egrave" xMin="60" yMin="-26" xMax="639" yMax="986">
      <contour>
        <pt x="116" y="-26" on="0"/>
        <pt x="60" y="49" on="0"/>
        <pt x="60" y="198" on="0"/>
        <pt x="123" y="546" on="1"/>
        <pt x="70" y="653" on="1"/>
        <pt x="183" y="726" on="0"/>
        <pt x="276" y="726" on="1"/>
        <pt x="335" y="726" on="0"/>
        <pt x="349" y="670" on="1"/>
        <pt x="462" y="673" on="0"/>
        <pt x="631" y="721" on="1"/>
        <pt x="639" y="688" on="0"/>
        <pt x="639" y="656" on="1"/>
        <pt x="639" y="575" on="0"/>
        <pt x="532" y="493" on="0"/>
        <pt x="448" y="493" on="1"/>
        <pt x="391" y="493" on="0"/>
        <pt x="336" y="517" on="1"/>
        <pt x="328" y="472" on="0"/>
        <pt x="308" y="370" on="1"/>
        <pt x="345" y="363" on="0"/>
        <pt x="371" y="363" on="1"/>
        <pt x="412" y="371" on="0"/>
        <pt x="461" y="386" on="1"/>
        <pt x="466" y="369" on="0"/>
        <pt x="466" y="292" on="0"/>
        <pt x="404" y="246" on="0"/>
        <pt x="327" y="246" on="0"/>
        <pt x="287" y="255" on="1"/>
        <pt x="276" y="192" on="0"/>
        <pt x="276" y="136" on="1"/>
        <pt x="438" y="136" on="1"/>
        <pt x="514" y="147" on="0"/>
        <pt x="591" y="175" on="1"/>
        <pt x="597" y="157" on="0"/>
        <pt x="597" y="126" on="1"/>
        <pt x="597" y="67" on="0"/>
        <pt x="528" y="-25" on="0"/>
        <pt x="467" y="-25" on="1"/>
        <pt x="435" y="-25" on="0"/>
        <pt x="312" y="0" on="0"/>
        <pt x="282" y="3" on="1"/>
        <pt x="234" y="-26" on="0"/>
      </contour>
      <contour>
        <pt x="520" y="753" on="1"/>
        <pt x="478" y="753" on="0"/>
        <pt x="319" y="820" on="0"/>
        <pt x="273" y="820" on="1"/>
        <pt x="264" y="820" on="0"/>
        <pt x="250" y="818" on="1"/>
        <pt x="240" y="852" on="0"/>
        <pt x="240" y="891" on="1"/>
        <pt x="240" y="986" on="0"/>
        <pt x="296" y="986" on="1"/>
        <pt x="333" y="986" on="0"/>
        <pt x="428" y="919" on="0"/>
        <pt x="533" y="839" on="0"/>
        <pt x="576" y="829" on="1"/>
        <pt x="573" y="790" on="0"/>
        <pt x="542" y="753" on="0"/>
      </contour>
    </TTGlyph>
    <TTGlyph name="Eth" xMin="-22" yMin="-25" xMax="776" yMax="725">
      <contour>
        <pt x="59" y="234" on="1"/>
        <pt x="-22" y="234" on="0"/>
        <pt x="-22" y="298" on="1"/>
        <pt x="-22" y="346" on="0"/>
        <pt x="19" y="393" on="1"/>
        <pt x="44" y="383" on="0"/>
        <pt x="83" y="383" on="1"/>
        <pt x="155" y="383" on="0"/>
        <pt x="359" y="453" on="0"/>
        <pt x="393" y="453" on="1"/>
        <pt x="474" y="453" on="0"/>
        <pt x="474" y="389" on="1"/>
        <pt x="474" y="341" on="0"/>
        <pt x="433" y="294" on="1"/>
        <pt x="408" y="304" on="0"/>
        <pt x="369" y="304" on="1"/>
        <pt x="297" y="304" on="0"/>
        <pt x="93" y="234" on="0"/>
      </contour>
      <contour>
        <pt x="60" y="163" on="1"/>
        <pt x="60" y="220" on="0"/>
        <pt x="114" y="508" on="0"/>
        <pt x="120" y="546" on="1"/>
        <pt x="67" y="653" on="1"/>
        <pt x="194" y="725" on="0"/>
        <pt x="283" y="725" on="1"/>
        <pt x="327" y="725" on="0"/>
        <pt x="349" y="695" on="1"/>
        <pt x="432" y="724" on="0"/>
        <pt x="502" y="724" on="1"/>
        <pt x="632" y="724" on="0"/>
        <pt x="776" y="555" on="0"/>
        <pt x="776" y="429" on="1"/>
        <pt x="776" y="263" on="0"/>
        <pt x="654" y="124" on="1"/>
        <pt x="595" y="57" on="0"/>
        <pt x="402" y="-25" on="0"/>
        <pt x="182" y="-25" on="0"/>
        <pt x="60" y="72" on="0"/>
      </contour>
      <contour>
        <pt x="272" y="125" on="1"/>
        <pt x="293" y="121" on="0"/>
        <pt x="319" y="121" on="1"/>
        <pt x="428" y="121" on="0"/>
        <pt x="550" y="278" on="0"/>
        <pt x="550" y="393" on="1"/>
        <pt x="550" y="486" on="0"/>
        <pt x="466" y="596" on="0"/>
        <pt x="387" y="596" on="1"/>
        <pt x="375" y="596" on="0"/>
        <pt x="347" y="592" on="1"/>
        <pt x="340" y="541" on="0"/>
        <pt x="281" y="188" on="0"/>
      </contour>
    </TTGlyph>
    <TTGlyph name="Euro" xMin="5" yMin="-26" xMax="627" yMax="703">
      <contour>
        <pt x="66" y="310" on="1"/>
        <pt x="27" y="310" on="0"/>
        <pt x="27" y="331" on="1"/>
        <pt x="27" y="357" on="0"/>
        <pt x="71" y="398" on="1"/>
        <pt x="80" y="396" on="0"/>
        <pt x="97" y="396" on="1"/>
        <pt x="129" y="526" on="0"/>
        <pt x="317" y="703" on="0"/>
        <pt x="456" y="703" on="1"/>
        <pt x="627" y="703" on="0"/>
        <pt x="627" y="597" on="1"/>
        <pt x="627" y="559" on="0"/>
        <pt x="603" y="498" on="1"/>
        <pt x="561" y="515" on="0"/>
        <pt x="447" y="539" on="0"/>
        <pt x="412" y="541" on="1"/>
        <pt x="379" y="510" on="0"/>
        <pt x="354" y="436" on="1"/>
        <pt x="411" y="452" on="0"/>
        <pt x="492" y="452" on="0"/>
        <pt x="492" y="404" on="0"/>
        <pt x="449" y="362" on="1"/>
        <pt x="436" y="366" on="0"/>
        <pt x="384" y="366" on="0"/>
        <pt x="331" y="354" on="1"/>
        <pt x="323" y="317" on="0"/>
        <pt x="323" y="285" on="1"/>
        <pt x="380" y="303" on="0"/>
        <pt x="469" y="303" on="0"/>
        <pt x="469" y="255" on="0"/>
        <pt x="426" y="213" on="1"/>
        <pt x="413" y="217" on="0"/>
        <pt x="371" y="217" on="0"/>
        <pt x="331" y="210" on="1"/>
        <pt x="355" y="130" on="0"/>
        <pt x="505" y="130" on="0"/>
        <pt x="569" y="173" on="1"/>
        <pt x="577" y="139" on="0"/>
        <pt x="577" y="121" on="1"/>
        <pt x="577" y="51" on="0"/>
        <pt x="466" y="-26" on="0"/>
        <pt x="264" y="-26" on="0"/>
        <pt x="128" y="80" on="0"/>
        <pt x="101" y="168" on="1"/>
        <pt x="64" y="161" on="0"/>
        <pt x="43" y="161" on="1"/>
        <pt x="5" y="161" on="0"/>
        <pt x="5" y="182" on="1"/>
        <pt x="5" y="205" on="0"/>
        <pt x="49" y="249" on="1"/>
        <pt x="65" y="247" on="0"/>
        <pt x="85" y="247" on="1"/>
        <pt x="84" y="260" on="0"/>
        <pt x="84" y="311" on="1"/>
        <pt x="78" y="310" on="0"/>
      </contour>
    </TTGlyph>
    <TTGlyph name="F" xMin="60" yMin="-26" xMax="629" yMax="726">
      <contour>
        <pt x="116" y="-26" on="0"/>
        <pt x="60" y="49" on="0"/>
        <pt x="60" y="198" on="0"/>
        <pt x="123" y="546" on="1"/>
        <pt x="70" y="653" on="1"/>
        <pt x="183" y="726" on="0"/>
        <pt x="276" y="726" on="1"/>
        <pt x="335" y="726" on="0"/>
        <pt x="349" y="670" on="1"/>
        <pt x="451" y="673" on="0"/>
        <pt x="621" y="721" on="1"/>
        <pt x="629" y="676" on="0"/>
        <pt x="629" y="645" on="1"/>
        <pt x="629" y="581" on="0"/>
        <pt x="532" y="508" on="0"/>
        <pt x="404" y="508" on="0"/>
        <pt x="340" y="539" on="1"/>
        <pt x="340" y="539" on="0"/>
        <pt x="331" y="490" on="1"/>
        <pt x="324" y="451" on="0"/>
        <pt x="308" y="371" on="1"/>
        <pt x="342" y="363" on="0"/>
        <pt x="372" y="363" on="1"/>
        <pt x="413" y="371" on="0"/>
        <pt x="462" y="386" on="1"/>
        <pt x="467" y="369" on="0"/>
        <pt x="467" y="292" on="0"/>
        <pt x="405" y="246" on="0"/>
        <pt x="327" y="246" on="0"/>
        <pt x="287" y="255" on="1"/>
        <pt x="276" y="192" on="0"/>
        <pt x="276" y="164" on="1"/>
        <pt x="276" y="67" on="0"/>
        <pt x="306" y="19" on="1"/>
        <pt x="246" y="-26" on="0"/>
      </contour>
    </TTGlyph>
    <TTGlyph name="G" xMin="30" yMin="-166" xMax="702" yMax="725">
      <contour>
        <pt x="488" y="192" on="1"/>
        <pt x="437" y="297" on="1"/>
        <pt x="544" y="368" on="0"/>
        <pt x="630" y="368" on="1"/>
        <pt x="702" y="368" on="0"/>
        <pt x="702" y="287" on="1"/>
        <pt x="702" y="264" on="0"/>
        <pt x="647" y="29" on="0"/>
        <pt x="647" y="-95" on="0"/>
        <pt x="674" y="-125" on="1"/>
        <pt x="618" y="-166" on="0"/>
        <pt x="496" y="-166" on="0"/>
        <pt x="445" y="-86" on="0"/>
        <pt x="445" y="-9" on="1"/>
        <pt x="391" y="-25" on="0"/>
        <pt x="333" y="-25" on="1"/>
        <pt x="197" y="-25" on="0"/>
        <pt x="30" y="143" on="0"/>
        <pt x="30" y="307" on="1"/>
        <pt x="30" y="377" on="0"/>
        <pt x="90" y="522" on="0"/>
        <pt x="200" y="646" on="0"/>
        <pt x="377" y="725" on="0"/>
        <pt x="566" y="725" on="0"/>
        <pt x="673" y="655" on="0"/>
        <pt x="673" y="531" on="0"/>
        <pt x="592" y="462" on="0"/>
        <pt x="488" y="462" on="0"/>
        <pt x="405" y="507" on="0"/>
        <pt x="380" y="549" on="1"/>
        <pt x="326" y="523" on="0"/>
        <pt x="248" y="371" on="0"/>
        <pt x="248" y="205" on="0"/>
        <pt x="313" y="122" on="0"/>
        <pt x="362" y="122" on="1"/>
        <pt x="433" y="122" on="0"/>
      </contour>
    </TTGlyph>
    <TTGlyph name="H" xMin="60" yMin="-26" xMax="794" yMax="726">
      <contour>
        <pt x="501" y="129" on="1"/>
        <pt x="501" y="171" on="0"/>
        <pt x="515" y="267" on="1"/>
        <pt x="289" y="267" on="1"/>
        <pt x="276" y="192" on="0"/>
        <pt x="276" y="164" on="1"/>
        <pt x="276" y="67" on="0"/>
        <pt x="306" y="19" on="1"/>
        <pt x="246" y="-26" on="0"/>
        <pt x="116" y="-26" on="0"/>
        <pt x="60" y="49" on="0"/>
        <pt x="60" y="198" on="0"/>
        <pt x="123" y="546" on="1"/>
        <pt x="70" y="653" on="1"/>
        <pt x="183" y="726" on="0"/>
        <pt x="276" y="726" on="1"/>
        <pt x="353" y="726" on="0"/>
        <pt x="353" y="632" on="1"/>
        <pt x="353" y="604" on="0"/>
        <pt x="311" y="386" on="1"/>
        <pt x="535" y="386" on="1"/>
        <pt x="539" y="411" on="0"/>
        <pt x="564" y="546" on="1"/>
        <pt x="511" y="653" on="1"/>
        <pt x="624" y="726" on="0"/>
        <pt x="717" y="726" on="1"/>
        <pt x="794" y="726" on="0"/>
        <pt x="794" y="632" on="1"/>
        <pt x="794" y="601" on="0"/>
        <pt x="717" y="202" on="0"/>
        <pt x="717" y="164" on="1"/>
        <pt x="717" y="67" on="0"/>
        <pt x="747" y="19" on="1"/>
        <pt x="687" y="-26" on="0"/>
        <pt x="557" y="-26" on="0"/>
        <pt x="501" y="49" on="0"/>
      </contour>
    </TTGlyph>
    <TTGlyph name="I" xMin="65" yMin="-26" xMax="358" yMax="726">
      <contour>
        <pt x="121" y="-26" on="0"/>
        <pt x="65" y="49" on="0"/>
        <pt x="65" y="198" on="0"/>
        <pt x="128" y="546" on="1"/>
        <pt x="75" y="653" on="1"/>
        <pt x="188" y="726" on="0"/>
        <pt x="281" y="726" on="1"/>
        <pt x="358" y="726" on="0"/>
        <pt x="358" y="632" on="1"/>
        <pt x="358" y="601" on="0"/>
        <pt x="281" y="202" on="0"/>
        <pt x="281" y="164" on="1"/>
        <pt x="281" y="67" on="0"/>
        <pt x="311" y="19" on="1"/>
        <pt x="251" y="-26" on="0"/>
      </contour>
    </TTGlyph>
    <TTGlyph name="Iacute" xMin="65" yMin="-26" xMax="411" yMax="986">
      <component glyphName="I" x="0" y="0" flags="0x1004"/>
      <component glyphName="acute" x="5" y="100" flags="0x1004"/>
    </TTGlyph>
    <TTGlyph name="Icircumflex" xMin="48" yMin="-26" xMax="463" yMax="983">
      <component glyphName="I" x="0" y="0" flags="0x1004"/>
      <component glyphName="circumflex" x="-32" y="115" flags="0x1004"/>
    </TTGlyph>
    <TTGlyph name="Idieresis" xMin="14" yMin="-26" xMax="534" yMax="954">
      <contour>
        <pt x="121" y="-26" on="0"/>
        <pt x="65" y="49" on="0"/>
        <pt x="65" y="198" on="0"/>
        <pt x="128" y="546" on="1"/>
        <pt x="75" y="653" on="1"/>
        <pt x="188" y="726" on="0"/>
        <pt x="281" y="726" on="1"/>
        <pt x="358" y="726" on="0"/>
        <pt x="358" y="632" on="1"/>
        <pt x="358" y="601" on="0"/>
        <pt x="281" y="202" on="0"/>
        <pt x="281" y="164" on="1"/>
        <pt x="281" y="67" on="0"/>
        <pt x="311" y="19" on="1"/>
        <pt x="251" y="-26" on="0"/>
      </contour>
      <contour>
        <pt x="534" y="831" on="0"/>
        <pt x="460" y="771" on="0"/>
        <pt x="368" y="771" on="0"/>
        <pt x="315" y="811" on="0"/>
        <pt x="315" y="846" on="1"/>
        <pt x="315" y="897" on="0"/>
        <pt x="394" y="954" on="0"/>
        <pt x="481" y="954" on="0"/>
        <pt x="534" y="913" on="0"/>
      </contour>
      <contour>
        <pt x="233" y="831" on="0"/>
        <pt x="159" y="771" on="0"/>
        <pt x="67" y="771" on="0"/>
        <pt x="14" y="811" on="0"/>
        <pt x="14" y="846" on="1"/>
        <pt x="14" y="897" on="0"/>
        <pt x="93" y="954" on="0"/>
        <pt x="180" y="954" on="0"/>
        <pt x="233" y="913" on="0"/>
      </contour>
    </TTGlyph>
    <TTGlyph name="Igrave" xMin="65" yMin="-26" xMax="423" yMax="986">
      <component glyphName="I" x="0" y="0" flags="0x1004"/>
      <component glyphName="grave" x="67" y="100" flags="0x1004"/>
    </TTGlyph>
    <TTGlyph name="J" xMin="0" yMin="-45" xMax="553" yMax="724">
      <contour>
        <pt x="302" y="489" on="1"/>
        <pt x="161" y="489" on="0"/>
        <pt x="32" y="551" on="0"/>
        <pt x="32" y="636" on="1"/>
        <pt x="32" y="666" on="0"/>
        <pt x="42" y="721" on="1"/>
        <pt x="111" y="692" on="0"/>
        <pt x="301" y="657" on="0"/>
        <pt x="355" y="657" on="1"/>
        <pt x="393" y="724" on="0"/>
        <pt x="460" y="724" on="1"/>
        <pt x="504" y="724" on="0"/>
        <pt x="553" y="669" on="0"/>
        <pt x="553" y="584" on="0"/>
        <pt x="520" y="547" on="1"/>
        <pt x="485" y="260" on="1"/>
        <pt x="476" y="183" on="0"/>
        <pt x="415" y="61" on="0"/>
        <pt x="373" y="26" on="1"/>
        <pt x="288" y="-45" on="0"/>
        <pt x="108" y="-45" on="0"/>
        <pt x="0" y="34" on="0"/>
        <pt x="0" y="147" on="0"/>
        <pt x="66" y="212" on="0"/>
        <pt x="155" y="212" on="0"/>
        <pt x="231" y="150" on="0"/>
        <pt x="251" y="88" on="1"/>
        <pt x="276" y="108" on="1"/>
        <pt x="249" y="183" on="0"/>
        <pt x="249" y="228" on="1"/>
        <pt x="249" y="253" on="0"/>
        <pt x="287" y="433" on="0"/>
      </contour>
    </TTGlyph>
    <TTGlyph name="K" xMin="60" yMin="-26" xMax="736" yMax="726">
      <contour>
        <pt x="116" y="-26" on="0"/>
        <pt x="60" y="49" on="0"/>
        <pt x="60" y="198" on="0"/>
        <pt x="123" y="546" on="1"/>
        <pt x="70" y="653" on="1"/>
        <pt x="183" y="726" on="0"/>
        <pt x="276" y="726" on="1"/>
        <pt x="353" y="726" on="0"/>
        <pt x="353" y="632" on="1"/>
        <pt x="353" y="604" on="0"/>
        <pt x="311" y="386" on="1"/>
        <pt x="358" y="425" on="1"/>
        <pt x="504" y="547" on="0"/>
        <pt x="504" y="633" on="1"/>
        <pt x="504" y="659" on="0"/>
        <pt x="496" y="680" on="1"/>
        <pt x="570" y="725" on="0"/>
        <pt x="636" y="725" on="1"/>
        <pt x="734" y="725" on="0"/>
        <pt x="734" y="625" on="1"/>
        <pt x="734" y="513" on="0"/>
        <pt x="535" y="398" on="1"/>
        <pt x="628" y="100" on="0"/>
        <pt x="736" y="30" on="1"/>
        <pt x="714" y="8" on="0"/>
        <pt x="627" y="-25" on="0"/>
        <pt x="593" y="-25" on="1"/>
        <pt x="525" y="-25" on="0"/>
        <pt x="443" y="45" on="0"/>
        <pt x="410" y="139" on="1"/>
        <pt x="352" y="302" on="1"/>
        <pt x="290" y="269" on="1"/>
        <pt x="276" y="187" on="0"/>
        <pt x="276" y="164" on="1"/>
        <pt x="276" y="67" on="0"/>
        <pt x="306" y="19" on="1"/>
        <pt x="246" y="-26" on="0"/>
      </contour>
    </TTGlyph>
    <TTGlyph name="L" xMin="60" yMin="-26" xMax="543" yMax="726">
      <contour>
        <pt x="116" y="-26" on="0"/>
        <pt x="60" y="49" on="0"/>
        <pt x="60" y="198" on="0"/>
        <pt x="123" y="546" on="1"/>
        <pt x="70" y="653" on="1"/>
        <pt x="183" y="726" on="0"/>
        <pt x="276" y="726" on="1"/>
        <pt x="353" y="726" on="0"/>
        <pt x="353" y="632" on="1"/>
        <pt x="353" y="604" on="0"/>
        <pt x="276" y="192" on="0"/>
        <pt x="276" y="136" on="1"/>
        <pt x="384" y="136" on="1"/>
        <pt x="460" y="147" on="0"/>
        <pt x="537" y="175" on="1"/>
        <pt x="543" y="157" on="0"/>
        <pt x="543" y="126" on="1"/>
        <pt x="543" y="67" on="0"/>
        <pt x="474" y="-25" on="0"/>
        <pt x="413" y="-25" on="1"/>
        <pt x="372" y="-25" on="0"/>
        <pt x="271" y="-3" on="1"/>
        <pt x="229" y="-26" on="0"/>
        <pt x="182" y="-26" on="1"/>
      </contour>
    </TTGlyph>
    <TTGlyph name="Lslash" xMin="-38" yMin="-26" xMax="543" yMax="726">
      <contour>
        <pt x="43" y="272" on="1"/>
        <pt x="-38" y="272" on="0"/>
        <pt x="-38" y="336" on="1"/>
        <pt x="-38" y="384" on="0"/>
        <pt x="3" y="431" on="1"/>
        <pt x="28" y="421" on="0"/>
        <pt x="67" y="421" on="1"/>
        <pt x="139" y="421" on="0"/>
        <pt x="363" y="491" on="0"/>
        <pt x="397" y="491" on="1"/>
        <pt x="478" y="491" on="0"/>
        <pt x="478" y="427" on="1"/>
        <pt x="478" y="379" on="0"/>
        <pt x="437" y="332" on="1"/>
        <pt x="412" y="342" on="0"/>
        <pt x="373" y="342" on="1"/>
        <pt x="301" y="342" on="0"/>
        <pt x="77" y="272" on="0"/>
      </contour>
      <contour>
        <pt x="116" y="-26" on="0"/>
        <pt x="60" y="49" on="0"/>
        <pt x="60" y="198" on="0"/>
        <pt x="123" y="546" on="1"/>
        <pt x="70" y="653" on="1"/>
        <pt x="183" y="726" on="0"/>
        <pt x="276" y="726" on="1"/>
        <pt x="353" y="726" on="0"/>
        <pt x="353" y="632" on="1"/>
        <pt x="353" y="604" on="0"/>
        <pt x="276" y="192" on="0"/>
        <pt x="276" y="136" on="1"/>
        <pt x="384" y="136" on="1"/>
        <pt x="460" y="147" on="0"/>
        <pt x="537" y="175" on="1"/>
        <pt x="543" y="157" on="0"/>
        <pt x="543" y="126" on="1"/>
        <pt x="543" y="67" on="0"/>
        <pt x="474" y="-25" on="0"/>
        <pt x="413" y="-25" on="1"/>
        <pt x="372" y="-25" on="0"/>
        <pt x="271" y="-3" on="1"/>
        <pt x="229" y="-26" on="0"/>
        <pt x="182" y="-26" on="1"/>
      </contour>
    </TTGlyph>
    <TTGlyph name="M" xMin="60" yMin="-26" xMax="1003" yMax="726">
      <contour>
        <pt x="766" y="-26" on="0"/>
        <pt x="710" y="49" on="0"/>
        <pt x="710" y="195" on="0"/>
        <pt x="757" y="458" on="1"/>
        <pt x="741" y="458" on="1"/>
        <pt x="680" y="378" on="0"/>
        <pt x="600" y="156" on="0"/>
        <pt x="591" y="67" on="1"/>
        <pt x="542" y="21" on="0"/>
        <pt x="478" y="21" on="1"/>
        <pt x="452" y="21" on="0"/>
        <pt x="413" y="58" on="0"/>
        <pt x="394" y="104" on="1"/>
        <pt x="357" y="197" on="0"/>
        <pt x="341" y="458" on="1"/>
        <pt x="325" y="458" on="1"/>
        <pt x="276" y="243" on="0"/>
        <pt x="276" y="67" on="0"/>
        <pt x="306" y="19" on="1"/>
        <pt x="246" y="-26" on="0"/>
        <pt x="116" y="-26" on="0"/>
        <pt x="60" y="49" on="0"/>
        <pt x="60" y="198" on="0"/>
        <pt x="123" y="546" on="1"/>
        <pt x="70" y="653" on="1"/>
        <pt x="183" y="726" on="0"/>
        <pt x="276" y="726" on="1"/>
        <pt x="317" y="726" on="0"/>
        <pt x="374" y="709" on="0"/>
        <pt x="427" y="661" on="0"/>
        <pt x="444" y="618" on="1"/>
        <pt x="483" y="521" on="0"/>
        <pt x="500" y="335" on="1"/>
        <pt x="512" y="335" on="1"/>
        <pt x="564" y="488" on="0"/>
        <pt x="656" y="598" on="1"/>
        <pt x="706" y="657" on="0"/>
        <pt x="845" y="725" on="0"/>
        <pt x="926" y="725" on="1"/>
        <pt x="1003" y="725" on="0"/>
        <pt x="1003" y="632" on="1"/>
        <pt x="1003" y="601" on="0"/>
        <pt x="926" y="202" on="0"/>
        <pt x="926" y="164" on="1"/>
        <pt x="926" y="67" on="0"/>
        <pt x="956" y="19" on="1"/>
        <pt x="896" y="-26" on="0"/>
      </contour>
    </TTGlyph>
    <TTGlyph name="N" xMin="55" yMin="-26" xMax="850" yMax="725">
      <contour>
        <pt x="578" y="157" on="1"/>
        <pt x="602" y="173" on="1"/>
        <pt x="537" y="298" on="0"/>
        <pt x="537" y="447" on="1"/>
        <pt x="537" y="563" on="0"/>
        <pt x="652" y="725" on="0"/>
        <pt x="757" y="725" on="1"/>
        <pt x="812" y="725" on="0"/>
        <pt x="850" y="706" on="1"/>
        <pt x="840" y="650" on="0"/>
        <pt x="814" y="511" on="1"/>
        <pt x="758" y="212" on="0"/>
        <pt x="758" y="168" on="1"/>
        <pt x="758" y="73" on="0"/>
        <pt x="790" y="26" on="1"/>
        <pt x="746" y="-3" on="0"/>
        <pt x="672" y="-25" on="0"/>
        <pt x="555" y="-25" on="0"/>
        <pt x="460" y="25" on="0"/>
        <pt x="399" y="108" on="0"/>
        <pt x="378" y="169" on="1"/>
        <pt x="341" y="276" on="0"/>
        <pt x="333" y="441" on="1"/>
        <pt x="317" y="441" on="1"/>
        <pt x="271" y="233" on="0"/>
        <pt x="271" y="67" on="0"/>
        <pt x="301" y="19" on="1"/>
        <pt x="241" y="-26" on="0"/>
        <pt x="111" y="-26" on="0"/>
        <pt x="55" y="49" on="0"/>
        <pt x="55" y="198" on="0"/>
        <pt x="118" y="546" on="1"/>
        <pt x="65" y="653" on="1"/>
        <pt x="177" y="725" on="0"/>
        <pt x="353" y="725" on="0"/>
        <pt x="443" y="664" on="0"/>
        <pt x="479" y="546" on="0"/>
        <pt x="496" y="415" on="0"/>
        <pt x="539" y="231" on="0"/>
      </contour>
    </TTGlyph>
    <TTGlyph name="Ntilde" xMin="55" yMin="-26" xMax="850" yMax="973">
      <component glyphName="N" x="0" y="0" flags="0x1004"/>
      <component glyphName="tilde" x="256" y="100" flags="0x1004"/>
    </TTGlyph>
    <TTGlyph name="O" xMin="25" yMin="-25" xMax="759" yMax="725">
      <contour>
        <pt x="25" y="306" on="1"/>
        <pt x="25" y="496" on="0"/>
        <pt x="237" y="725" on="0"/>
        <pt x="421" y="725" on="1"/>
        <pt x="480" y="725" on="0"/>
        <pt x="531" y="678" on="0"/>
        <pt x="531" y="629" on="1"/>
        <pt x="531" y="622" on="0"/>
        <pt x="529" y="602" on="1"/>
        <pt x="566" y="632" on="0"/>
        <pt x="611" y="632" on="1"/>
        <pt x="672" y="632" on="0"/>
        <pt x="759" y="523" on="0"/>
        <pt x="759" y="317" on="0"/>
        <pt x="693" y="145" on="0"/>
        <pt x="584" y="35" on="0"/>
        <pt x="445" y="-25" on="0"/>
        <pt x="371" y="-25" on="1"/>
        <pt x="211" y="-25" on="0"/>
        <pt x="25" y="158" on="0"/>
      </contour>
      <contour>
        <pt x="524" y="259" on="1"/>
        <pt x="460" y="337" on="0"/>
        <pt x="460" y="517" on="0"/>
        <pt x="500" y="572" on="1"/>
        <pt x="482" y="575" on="0"/>
        <pt x="464" y="575" on="1"/>
        <pt x="393" y="575" on="0"/>
        <pt x="341" y="532" on="1"/>
        <pt x="243" y="452" on="0"/>
        <pt x="243" y="310" on="1"/>
        <pt x="243" y="229" on="0"/>
        <pt x="315" y="121" on="0"/>
        <pt x="379" y="121" on="1"/>
        <pt x="428" y="121" on="0"/>
        <pt x="509" y="198" on="0"/>
      </contour>
    </TTGlyph>
    <TTGlyph name="OE" xMin="25" yMin="-25" xMax="980" yMax="724">
      <contour>
        <pt x="938" y="67" on="0"/>
        <pt x="869" y="-25" on="0"/>
        <pt x="759" y="-25" on="0"/>
        <pt x="597" y="10" on="0"/>
        <pt x="530" y="10" on="1"/>
        <pt x="454" y="-25" on="0"/>
        <pt x="371" y="-25" on="1"/>
        <pt x="211" y="-25" on="0"/>
        <pt x="25" y="158" on="0"/>
        <pt x="25" y="306" on="1"/>
        <pt x="25" y="496" on="0"/>
        <pt x="237" y="724" on="0"/>
        <pt x="421" y="724" on="1"/>
        <pt x="474" y="724" on="0"/>
        <pt x="646" y="685" on="0"/>
        <pt x="819" y="685" on="0"/>
        <pt x="972" y="721" on="1"/>
        <pt x="980" y="688" on="0"/>
        <pt x="980" y="656" on="1"/>
        <pt x="980" y="575" on="0"/>
        <pt x="873" y="493" on="0"/>
        <pt x="789" y="493" on="1"/>
        <pt x="732" y="493" on="0"/>
        <pt x="677" y="517" on="1"/>
        <pt x="669" y="472" on="0"/>
        <pt x="649" y="370" on="1"/>
        <pt x="686" y="363" on="0"/>
        <pt x="712" y="363" on="1"/>
        <pt x="753" y="371" on="0"/>
        <pt x="802" y="386" on="1"/>
        <pt x="807" y="369" on="0"/>
        <pt x="807" y="292" on="0"/>
        <pt x="745" y="246" on="0"/>
        <pt x="668" y="246" on="0"/>
        <pt x="628" y="255" on="1"/>
        <pt x="617" y="194" on="0"/>
        <pt x="617" y="136" on="1"/>
        <pt x="779" y="136" on="1"/>
        <pt x="855" y="147" on="0"/>
        <pt x="932" y="175" on="1"/>
        <pt x="938" y="157" on="0"/>
        <pt x="938" y="126" on="1"/>
      </contour>
      <contour>
        <pt x="401" y="123" on="1"/>
        <pt x="401" y="206" on="0"/>
        <pt x="468" y="575" on="1"/>
        <pt x="395" y="575" on="0"/>
        <pt x="342" y="532" on="1"/>
        <pt x="243" y="453" on="0"/>
        <pt x="243" y="310" on="1"/>
        <pt x="243" y="229" on="0"/>
        <pt x="315" y="121" on="0"/>
        <pt x="379" y="121" on="1"/>
        <pt x="394" y="121" on="0"/>
      </contour>
    </TTGlyph>
    <TTGlyph name="Oacute" xMin="25" yMin="-25" xMax="759" yMax="986">
      <contour>
        <pt x="25" y="306" on="1"/>
        <pt x="25" y="496" on="0"/>
        <pt x="237" y="725" on="0"/>
        <pt x="421" y="725" on="1"/>
        <pt x="480" y="725" on="0"/>
        <pt x="531" y="678" on="0"/>
        <pt x="531" y="629" on="1"/>
        <pt x="531" y="622" on="0"/>
        <pt x="529" y="602" on="1"/>
        <pt x="566" y="632" on="0"/>
        <pt x="611" y="632" on="1"/>
        <pt x="672" y="632" on="0"/>
        <pt x="759" y="523" on="0"/>
        <pt x="759" y="317" on="0"/>
        <pt x="693" y="145" on="0"/>
        <pt x="584" y="35" on="0"/>
        <pt x="445" y="-25" on="0"/>
        <pt x="371" y="-25" on="1"/>
        <pt x="211" y="-25" on="0"/>
        <pt x="25" y="158" on="0"/>
      </contour>
      <contour>
        <pt x="524" y="259" on="1"/>
        <pt x="460" y="337" on="0"/>
        <pt x="460" y="517" on="0"/>
        <pt x="500" y="572" on="1"/>
        <pt x="482" y="575" on="0"/>
        <pt x="464" y="575" on="1"/>
        <pt x="393" y="575" on="0"/>
        <pt x="341" y="532" on="1"/>
        <pt x="243" y="452" on="0"/>
        <pt x="243" y="310" on="1"/>
        <pt x="243" y="229" on="0"/>
        <pt x="315" y="121" on="0"/>
        <pt x="379" y="121" on="1"/>
        <pt x="428" y="121" on="0"/>
        <pt x="509" y="198" on="0"/>
      </contour>
      <contour>
        <pt x="366" y="753" on="1"/>
        <pt x="344" y="753" on="0"/>
        <pt x="313" y="790" on="0"/>
        <pt x="310" y="829" on="1"/>
        <pt x="353" y="839" on="0"/>
        <pt x="458" y="919" on="0"/>
        <pt x="553" y="986" on="0"/>
        <pt x="590" y="986" on="1"/>
        <pt x="646" y="986" on="0"/>
        <pt x="646" y="891" on="1"/>
        <pt x="646" y="852" on="0"/>
        <pt x="636" y="818" on="1"/>
        <pt x="622" y="820" on="0"/>
        <pt x="613" y="820" on="1"/>
        <pt x="567" y="820" on="0"/>
        <pt x="408" y="753" on="0"/>
      </contour>
    </TTGlyph>
    <TTGlyph name="Ocircumflex" xMin="25" yMin="-25" xMax="759" yMax="983">
      <contour>
        <pt x="25" y="306" on="1"/>
        <pt x="25" y="496" on="0"/>
        <pt x="237" y="725" on="0"/>
        <pt x="421" y="725" on="1"/>
        <pt x="480" y="725" on="0"/>
        <pt x="531" y="678" on="0"/>
        <pt x="531" y="629" on="1"/>
        <pt x="531" y="622" on="0"/>
        <pt x="529" y="602" on="1"/>
        <pt x="566" y="632" on="0"/>
        <pt x="611" y="632" on="1"/>
        <pt x="672" y="632" on="0"/>
        <pt x="759" y="523" on="0"/>
        <pt x="759" y="317" on="0"/>
        <pt x="693" y="145" on="0"/>
        <pt x="584" y="35" on="0"/>
        <pt x="445" y="-25" on="0"/>
        <pt x="371" y="-25" on="1"/>
        <pt x="211" y="-25" on="0"/>
        <pt x="25" y="158" on="0"/>
      </contour>
      <contour>
        <pt x="524" y="259" on="1"/>
        <pt x="460" y="337" on="0"/>
        <pt x="460" y="517" on="0"/>
        <pt x="500" y="572" on="1"/>
        <pt x="482" y="575" on="0"/>
        <pt x="464" y="575" on="1"/>
        <pt x="393" y="575" on="0"/>
        <pt x="341" y="532" on="1"/>
        <pt x="243" y="452" on="0"/>
        <pt x="243" y="310" on="1"/>
        <pt x="243" y="229" on="0"/>
        <pt x="315" y="121" on="0"/>
        <pt x="379" y="121" on="1"/>
        <pt x="428" y="121" on="0"/>
        <pt x="509" y="198" on="0"/>
      </contour>
      <contour>
        <pt x="642" y="946" on="1"/>
        <pt x="632" y="823" on="1"/>
        <pt x="632" y="792" on="0"/>
        <pt x="646" y="767" on="1"/>
        <pt x="615" y="759" on="0"/>
        <pt x="520" y="759" on="0"/>
        <pt x="479" y="801" on="0"/>
        <pt x="479" y="841" on="1"/>
        <pt x="479" y="856" on="0"/>
        <pt x="486" y="921" on="1"/>
        <pt x="460" y="921" on="1"/>
        <pt x="400" y="847" on="0"/>
        <pt x="400" y="771" on="1"/>
        <pt x="345" y="759" on="0"/>
        <pt x="231" y="759" on="0"/>
        <pt x="231" y="778" on="1"/>
        <pt x="231" y="820" on="0"/>
        <pt x="355" y="958" on="1"/>
        <pt x="372" y="968" on="0"/>
        <pt x="474" y="983" on="0"/>
        <pt x="525" y="983" on="1"/>
        <pt x="642" y="983" on="0"/>
      </contour>
    </TTGlyph>
    <TTGlyph name="Odieresis" xMin="25" yMin="-25" xMax="759" yMax="954">
      <contour>
        <pt x="25" y="306" on="1"/>
        <pt x="25" y="496" on="0"/>
        <pt x="237" y="725" on="0"/>
        <pt x="421" y="725" on="1"/>
        <pt x="480" y="725" on="0"/>
        <pt x="531" y="678" on="0"/>
        <pt x="531" y="629" on="1"/>
        <pt x="531" y="622" on="0"/>
        <pt x="529" y="602" on="1"/>
        <pt x="566" y="632" on="0"/>
        <pt x="611" y="632" on="1"/>
        <pt x="672" y="632" on="0"/>
        <pt x="759" y="523" on="0"/>
        <pt x="759" y="317" on="0"/>
        <pt x="693" y="145" on="0"/>
        <pt x="584" y="35" on="0"/>
        <pt x="445" y="-25" on="0"/>
        <pt x="371" y="-25" on="1"/>
        <pt x="211" y="-25" on="0"/>
        <pt x="25" y="158" on="0"/>
      </contour>
      <contour>
        <pt x="524" y="259" on="1"/>
        <pt x="460" y="337" on="0"/>
        <pt x="460" y="517" on="0"/>
        <pt x="500" y="572" on="1"/>
        <pt x="482" y="575" on="0"/>
        <pt x="464" y="575" on="1"/>
        <pt x="393" y="575" on="0"/>
        <pt x="341" y="532" on="1"/>
        <pt x="243" y="452" on="0"/>
        <pt x="243" y="310" on="1"/>
        <pt x="243" y="229" on="0"/>
        <pt x="315" y="121" on="0"/>
        <pt x="379" y="121" on="1"/>
        <pt x="428" y="121" on="0"/>
        <pt x="509" y="198" on="0"/>
      </contour>
      <contour>
        <pt x="739" y="831" on="0"/>
        <pt x="665" y="771" on="0"/>
        <pt x="573" y="771" on="0"/>
        <pt x="520" y="811" on="0"/>
        <pt x="520" y="846" on="1"/>
        <pt x="520" y="897" on="0"/>
        <pt x="599" y="954" on="0"/>
        <pt x="686" y="954" on="0"/>
        <pt x="739" y="913" on="0"/>
      </contour>
      <contour>
        <pt x="438" y="831" on="0"/>
        <pt x="364" y="771" on="0"/>
        <pt x="272" y="771" on="0"/>
        <pt x="219" y="811" on="0"/>
        <pt x="219" y="846" on="1"/>
        <pt x="219" y="897" on="0"/>
        <pt x="298" y="954" on="0"/>
        <pt x="385" y="954" on="0"/>
        <pt x="438" y="913" on="0"/>
      </contour>
    </TTGlyph>
    <TTGlyph name="Ograve" xMin="25" yMin="-25" xMax="759" yMax="986">
      <contour>
        <pt x="25" y="306" on="1"/>
        <pt x="25" y="496" on="0"/>
        <pt x="237" y="725" on="0"/>
        <pt x="421" y="725" on="1"/>
        <pt x="480" y="725" on="0"/>
        <pt x="531" y="678" on="0"/>
        <pt x="531" y="629" on="1"/>
        <pt x="531" y="622" on="0"/>
        <pt x="529" y="602" on="1"/>
        <pt x="566" y="632" on="0"/>
        <pt x="611" y="632" on="1"/>
        <pt x="672" y="632" on="0"/>
        <pt x="759" y="523" on="0"/>
        <pt x="759" y="317" on="0"/>
        <pt x="693" y="145" on="0"/>
        <pt x="584" y="35" on="0"/>
        <pt x="445" y="-25" on="0"/>
        <pt x="371" y="-25" on="1"/>
        <pt x="211" y="-25" on="0"/>
        <pt x="25" y="158" on="0"/>
      </contour>
      <contour>
        <pt x="524" y="259" on="1"/>
        <pt x="460" y="337" on="0"/>
        <pt x="460" y="517" on="0"/>
        <pt x="500" y="572" on="1"/>
        <pt x="482" y="575" on="0"/>
        <pt x="464" y="575" on="1"/>
        <pt x="393" y="575" on="0"/>
        <pt x="341" y="532" on="1"/>
        <pt x="243" y="452" on="0"/>
        <pt x="243" y="310" on="1"/>
        <pt x="243" y="229" on="0"/>
        <pt x="315" y="121" on="0"/>
        <pt x="379" y="121" on="1"/>
        <pt x="428" y="121" on="0"/>
        <pt x="509" y="198" on="0"/>
      </contour>
      <contour>
        <pt x="581" y="753" on="1"/>
        <pt x="539" y="753" on="0"/>
        <pt x="380" y="820" on="0"/>
        <pt x="334" y="820" on="1"/>
        <pt x="325" y="820" on="0"/>
        <pt x="311" y="818" on="1"/>
        <pt x="301" y="852" on="0"/>
        <pt x="301" y="891" on="1"/>
        <pt x="301" y="986" on="0"/>
        <pt x="357" y="986" on="1"/>
        <pt x="394" y="986" on="0"/>
        <pt x="489" y="919" on="0"/>
        <pt x="594" y="839" on="0"/>
        <pt x="637" y="829" on="1"/>
        <pt x="634" y="790" on="0"/>
        <pt x="603" y="753" on="0"/>
      </contour>
    </TTGlyph>
    <TTGlyph name="Omega" xMin="-6" yMin="-25" xMax="806" yMax="725">
      <contour>
        <pt x="647" y="143" on="1"/>
        <pt x="686" y="144" on="1"/>
        <pt x="806" y="144" on="0"/>
        <pt x="806" y="73" on="1"/>
        <pt x="806" y="27" on="0"/>
        <pt x="772" y="-25" on="1"/>
        <pt x="716" y="-14" on="0"/>
        <pt x="629" y="-14" on="0"/>
        <pt x="557" y="-25" on="0"/>
        <pt x="505" y="-25" on="0"/>
        <pt x="459" y="13" on="0"/>
        <pt x="459" y="55" on="1"/>
        <pt x="459" y="123" on="0"/>
        <pt x="547" y="370" on="0"/>
        <pt x="547" y="434" on="1"/>
        <pt x="547" y="576" on="0"/>
        <pt x="438" y="576" on="1"/>
        <pt x="304" y="576" on="0"/>
        <pt x="304" y="372" on="1"/>
        <pt x="304" y="320" on="0"/>
        <pt x="343" y="142" on="0"/>
        <pt x="343" y="92" on="1"/>
        <pt x="343" y="-25" on="0"/>
        <pt x="248" y="-25" on="1"/>
        <pt x="230" y="-25" on="0"/>
        <pt x="155" y="-14" on="0"/>
        <pt x="71" y="-14" on="0"/>
        <pt x="15" y="-25" on="1"/>
        <pt x="-6" y="20" on="0"/>
        <pt x="-6" y="54" on="1"/>
        <pt x="-6" y="144" on="0"/>
        <pt x="128" y="144" on="1"/>
        <pt x="141" y="144" on="0"/>
        <pt x="173" y="142" on="1"/>
        <pt x="173" y="153" on="1"/>
        <pt x="119" y="195" on="0"/>
        <pt x="64" y="334" on="0"/>
        <pt x="64" y="447" on="0"/>
        <pt x="85" y="531" on="0"/>
        <pt x="140" y="619" on="0"/>
        <pt x="225" y="684" on="0"/>
        <pt x="364" y="725" on="0"/>
        <pt x="529" y="725" on="0"/>
        <pt x="649" y="691" on="0"/>
        <pt x="722" y="638" on="0"/>
        <pt x="746" y="600" on="1"/>
        <pt x="789" y="533" on="0"/>
        <pt x="789" y="355" on="0"/>
        <pt x="712" y="199" on="0"/>
        <pt x="647" y="153" on="1"/>
      </contour>
    </TTGlyph>
    <TTGlyph name="Oslash" xMin="25" yMin="-159" xMax="759" yMax="855">
      <contour>
        <pt x="298" y="121" on="0"/>
        <pt x="235" y="215" on="0"/>
        <pt x="235" y="357" on="0"/>
        <pt x="283" y="485" on="0"/>
        <pt x="383" y="576" on="0"/>
        <pt x="508" y="576" on="0"/>
        <pt x="569" y="481" on="0"/>
        <pt x="569" y="340" on="0"/>
        <pt x="523" y="212" on="0"/>
        <pt x="425" y="121" on="0"/>
      </contour>
      <contour>
        <pt x="25" y="306" on="1"/>
        <pt x="25" y="158" on="0"/>
        <pt x="211" y="-25" on="0"/>
        <pt x="371" y="-25" on="1"/>
        <pt x="445" y="-25" on="0"/>
        <pt x="584" y="35" on="0"/>
        <pt x="693" y="145" on="0"/>
        <pt x="759" y="317" on="0"/>
        <pt x="759" y="523" on="0"/>
        <pt x="672" y="632" on="0"/>
        <pt x="611" y="632" on="1"/>
        <pt x="566" y="632" on="0"/>
        <pt x="529" y="602" on="1"/>
        <pt x="531" y="622" on="0"/>
        <pt x="531" y="629" on="1"/>
        <pt x="531" y="677" on="0"/>
        <pt x="480" y="724" on="0"/>
        <pt x="421" y="724" on="1"/>
        <pt x="237" y="724" on="0"/>
        <pt x="25" y="496" on="0"/>
      </contour>
      <contour>
        <pt x="381" y="-40" on="1"/>
        <pt x="348" y="-159" on="0"/>
        <pt x="259" y="-159" on="1"/>
        <pt x="205" y="-159" on="0"/>
        <pt x="160" y="-123" on="1"/>
        <pt x="206" y="-81" on="0"/>
        <pt x="286" y="203" on="0"/>
        <pt x="353" y="475" on="0"/>
        <pt x="413" y="734" on="0"/>
        <pt x="426" y="784" on="1"/>
        <pt x="443" y="855" on="0"/>
        <pt x="584" y="855" on="0"/>
        <pt x="641" y="803" on="1"/>
        <pt x="589" y="727" on="0"/>
        <pt x="514" y="463" on="0"/>
        <pt x="412" y="71" on="0"/>
      </contour>
    </TTGlyph>
    <TTGlyph name="Otilde" xMin="25" yMin="-25" xMax="759" yMax="973">
      <component glyphName="O" x="0" y="0" flags="0x1004"/>
      <component glyphName="tilde" x="202" y="100" flags="0x1004"/>
    </TTGlyph>
    <TTGlyph name="P" xMin="60" yMin="-26" xMax="717" yMax="726">
      <contour>
        <pt x="282" y="219" on="1"/>
        <pt x="276" y="183" on="0"/>
        <pt x="276" y="164" on="1"/>
        <pt x="276" y="67" on="0"/>
        <pt x="306" y="19" on="1"/>
        <pt x="246" y="-26" on="0"/>
        <pt x="116" y="-26" on="0"/>
        <pt x="60" y="49" on="0"/>
        <pt x="60" y="198" on="0"/>
        <pt x="123" y="546" on="1"/>
        <pt x="70" y="653" on="1"/>
        <pt x="183" y="726" on="0"/>
        <pt x="276" y="726" on="1"/>
        <pt x="302" y="726" on="0"/>
        <pt x="364" y="707" on="0"/>
        <pt x="377" y="695" on="1"/>
        <pt x="451" y="724" on="0"/>
        <pt x="514" y="724" on="1"/>
        <pt x="608" y="724" on="0"/>
        <pt x="717" y="593" on="0"/>
        <pt x="717" y="500" on="1"/>
        <pt x="717" y="388" on="0"/>
        <pt x="636" y="300" on="1"/>
        <pt x="597" y="257" on="0"/>
        <pt x="465" y="205" on="0"/>
        <pt x="328" y="205" on="0"/>
      </contour>
      <contour>
        <pt x="301" y="333" on="1"/>
        <pt x="315" y="330" on="0"/>
        <pt x="330" y="330" on="1"/>
        <pt x="394" y="330" on="0"/>
        <pt x="494" y="420" on="0"/>
        <pt x="494" y="486" on="1"/>
        <pt x="494" y="532" on="0"/>
        <pt x="441" y="596" on="0"/>
        <pt x="393" y="596" on="1"/>
        <pt x="373" y="596" on="0"/>
        <pt x="347" y="588" on="1"/>
        <pt x="327" y="451" on="0"/>
      </contour>
    </TTGlyph>
    <TTGlyph name="Q" xMin="25" yMin="-209" xMax="759" yMax="725">
      <contour>
        <pt x="98" y="-169" on="0"/>
        <pt x="54" y="-118" on="0"/>
        <pt x="54" y="-46" on="0"/>
        <pt x="117" y="14" on="0"/>
        <pt x="229" y="14" on="0"/>
        <pt x="469" y="-32" on="0"/>
        <pt x="628" y="-32" on="0"/>
        <pt x="709" y="-2" on="1"/>
        <pt x="720" y="-32" on="0"/>
        <pt x="720" y="-68" on="1"/>
        <pt x="720" y="-128" on="0"/>
        <pt x="646" y="-209" on="0"/>
        <pt x="575" y="-209" on="1"/>
        <pt x="443" y="-209" on="0"/>
        <pt x="260" y="-104" on="1"/>
        <pt x="212" y="-169" on="0"/>
        <pt x="137" y="-169" on="1"/>
      </contour>
      <contour>
        <pt x="25" y="306" on="1"/>
        <pt x="25" y="158" on="0"/>
        <pt x="211" y="-25" on="0"/>
        <pt x="371" y="-25" on="1"/>
        <pt x="445" y="-25" on="0"/>
        <pt x="584" y="35" on="0"/>
        <pt x="693" y="145" on="0"/>
        <pt x="759" y="317" on="0"/>
        <pt x="759" y="523" on="0"/>
        <pt x="672" y="632" on="0"/>
        <pt x="611" y="632" on="1"/>
        <pt x="566" y="632" on="0"/>
        <pt x="529" y="602" on="1"/>
        <pt x="531" y="622" on="0"/>
        <pt x="531" y="629" on="1"/>
        <pt x="531" y="678" on="0"/>
        <pt x="480" y="725" on="0"/>
        <pt x="421" y="725" on="1"/>
        <pt x="237" y="725" on="0"/>
        <pt x="25" y="496" on="0"/>
      </contour>
      <contour>
        <pt x="524" y="259" on="1"/>
        <pt x="509" y="198" on="0"/>
        <pt x="428" y="121" on="0"/>
        <pt x="379" y="121" on="1"/>
        <pt x="315" y="121" on="0"/>
        <pt x="243" y="229" on="0"/>
        <pt x="243" y="310" on="1"/>
        <pt x="243" y="452" on="0"/>
        <pt x="341" y="532" on="1"/>
        <pt x="393" y="575" on="0"/>
        <pt x="464" y="575" on="1"/>
        <pt x="482" y="575" on="0"/>
        <pt x="500" y="572" on="1"/>
        <pt x="460" y="517" on="0"/>
        <pt x="460" y="337" on="0"/>
      </contour>
    </TTGlyph>
    <TTGlyph name="R" xMin="60" yMin="-26" xMax="753" yMax="725">
      <contour>
        <pt x="427" y="139" on="1"/>
        <pt x="392" y="240" on="1"/>
        <pt x="340" y="240" on="0"/>
        <pt x="287" y="256" on="1"/>
        <pt x="276" y="192" on="0"/>
        <pt x="276" y="164" on="1"/>
        <pt x="276" y="67" on="0"/>
        <pt x="306" y="19" on="1"/>
        <pt x="246" y="-26" on="0"/>
        <pt x="116" y="-26" on="0"/>
        <pt x="60" y="49" on="0"/>
        <pt x="60" y="198" on="0"/>
        <pt x="123" y="546" on="1"/>
        <pt x="70" y="653" on="1"/>
        <pt x="182" y="725" on="0"/>
        <pt x="276" y="725" on="1"/>
        <pt x="348" y="725" on="0"/>
        <pt x="387" y="695" on="1"/>
        <pt x="462" y="725" on="0"/>
        <pt x="522" y="725" on="1"/>
        <pt x="614" y="725" on="0"/>
        <pt x="722" y="601" on="0"/>
        <pt x="722" y="514" on="1"/>
        <pt x="722" y="449" on="0"/>
        <pt x="656" y="328" on="0"/>
        <pt x="592" y="290" on="1"/>
        <pt x="626" y="193" on="0"/>
        <pt x="711" y="53" on="0"/>
        <pt x="753" y="30" on="1"/>
        <pt x="732" y="8" on="0"/>
        <pt x="645" y="-25" on="0"/>
        <pt x="610" y="-25" on="1"/>
        <pt x="542" y="-25" on="0"/>
        <pt x="460" y="44" on="0"/>
      </contour>
      <contour>
        <pt x="331" y="365" on="1"/>
        <pt x="411" y="365" on="0"/>
        <pt x="500" y="447" on="0"/>
        <pt x="500" y="541" on="0"/>
        <pt x="448" y="597" on="0"/>
        <pt x="400" y="597" on="1"/>
        <pt x="374" y="597" on="0"/>
        <pt x="348" y="590" on="1"/>
        <pt x="316" y="399" on="0"/>
        <pt x="308" y="366" on="1"/>
        <pt x="315" y="365" on="0"/>
      </contour>
    </TTGlyph>
    <TTGlyph name="S" xMin="35" yMin="-25" xMax="678" yMax="725">
      <contour>
        <pt x="414" y="725" on="1"/>
        <pt x="546" y="725" on="0"/>
        <pt x="678" y="664" on="0"/>
        <pt x="678" y="531" on="0"/>
        <pt x="597" y="462" on="0"/>
        <pt x="493" y="462" on="0"/>
        <pt x="410" y="515" on="0"/>
        <pt x="394" y="559" on="1"/>
        <pt x="357" y="559" on="0"/>
        <pt x="290" y="510" on="0"/>
        <pt x="281" y="471" on="1"/>
        <pt x="479" y="423" on="0"/>
        <pt x="651" y="295" on="0"/>
        <pt x="651" y="95" on="0"/>
        <pt x="470" y="-25" on="0"/>
        <pt x="163" y="-25" on="0"/>
        <pt x="35" y="59" on="0"/>
        <pt x="35" y="197" on="0"/>
        <pt x="78" y="255" on="1"/>
        <pt x="99" y="210" on="0"/>
        <pt x="218" y="138" on="0"/>
        <pt x="276" y="138" on="1"/>
        <pt x="383" y="138" on="0"/>
        <pt x="412" y="206" on="1"/>
        <pt x="246" y="228" on="0"/>
        <pt x="72" y="369" on="0"/>
        <pt x="72" y="469" on="1"/>
        <pt x="72" y="536" on="0"/>
        <pt x="144" y="641" on="0"/>
        <pt x="200" y="669" on="1"/>
        <pt x="310" y="725" on="0"/>
      </contour>
    </TTGlyph>
    <TTGlyph name="Scaron" xMin="35" yMin="-25" xMax="678" yMax="973">
      <component glyphName="S" x="0" y="0" flags="0x1004"/>
      <component glyphName="caron" x="166" y="115" flags="0x1004"/>
    </TTGlyph>
    <TTGlyph name="T" xMin="13" yMin="-26" xMax="637" yMax="715">
      <contour>
        <pt x="13" y="552" on="1"/>
        <pt x="13" y="633" on="0"/>
        <pt x="97" y="715" on="0"/>
        <pt x="214" y="715" on="0"/>
        <pt x="416" y="675" on="0"/>
        <pt x="467" y="674" on="1"/>
        <pt x="552" y="690" on="0"/>
        <pt x="629" y="713" on="1"/>
        <pt x="637" y="687" on="0"/>
        <pt x="637" y="648" on="1"/>
        <pt x="637" y="567" on="0"/>
        <pt x="544" y="485" on="0"/>
        <pt x="472" y="485" on="1"/>
        <pt x="454" y="485" on="0"/>
        <pt x="424" y="487" on="1"/>
        <pt x="369" y="198" on="0"/>
        <pt x="369" y="164" on="1"/>
        <pt x="369" y="67" on="0"/>
        <pt x="399" y="19" on="1"/>
        <pt x="339" y="-26" on="0"/>
        <pt x="209" y="-26" on="0"/>
        <pt x="153" y="49" on="0"/>
        <pt x="153" y="198" on="0"/>
        <pt x="211" y="521" on="1"/>
        <pt x="98" y="506" on="0"/>
        <pt x="21" y="487" on="1"/>
        <pt x="13" y="512" on="0"/>
      </contour>
    </TTGlyph>
    <TTGlyph name="Thorn" xMin="60" yMin="-26" xMax="699" yMax="726">
      <contour>
        <pt x="306" y="235" on="1"/>
        <pt x="386" y="235" on="0"/>
        <pt x="475" y="330" on="0"/>
        <pt x="475" y="438" on="0"/>
        <pt x="423" y="502" on="0"/>
        <pt x="375" y="502" on="1"/>
        <pt x="355" y="502" on="0"/>
        <pt x="329" y="495" on="1"/>
        <pt x="309" y="359" on="0"/>
        <pt x="283" y="236" on="1"/>
        <pt x="290" y="235" on="0"/>
      </contour>
      <contour>
        <pt x="116" y="-26" on="0"/>
        <pt x="60" y="49" on="0"/>
        <pt x="60" y="198" on="0"/>
        <pt x="123" y="546" on="1"/>
        <pt x="70" y="653" on="1"/>
        <pt x="183" y="726" on="0"/>
        <pt x="276" y="726" on="1"/>
        <pt x="353" y="726" on="0"/>
        <pt x="353" y="632" on="1"/>
        <pt x="353" y="620" on="0"/>
        <pt x="350" y="600" on="1"/>
        <pt x="424" y="629" on="0"/>
        <pt x="496" y="629" on="1"/>
        <pt x="590" y="629" on="0"/>
        <pt x="699" y="498" on="0"/>
        <pt x="699" y="405" on="1"/>
        <pt x="699" y="293" on="0"/>
        <pt x="618" y="205" on="1"/>
        <pt x="579" y="162" on="0"/>
        <pt x="447" y="110" on="0"/>
        <pt x="318" y="110" on="0"/>
        <pt x="277" y="120" on="1"/>
        <pt x="283" y="53" on="0"/>
        <pt x="306" y="19" on="1"/>
        <pt x="246" y="-26" on="0"/>
      </contour>
    </TTGlyph>
    <TTGlyph name="U" xMin="65" yMin="-26" xMax="807" yMax="725">
      <contour>
        <pt x="745" y="19" on="1"/>
        <pt x="685" y="-26" on="0"/>
        <pt x="569" y="-26" on="0"/>
        <pt x="501" y="34" on="0"/>
        <pt x="501" y="94" on="1"/>
        <pt x="501" y="111" on="0"/>
        <pt x="502" y="120" on="1"/>
        <pt x="492" y="123" on="1"/>
        <pt x="393" y="-25" on="0"/>
        <pt x="226" y="-25" on="1"/>
        <pt x="65" y="-25" on="0"/>
        <pt x="65" y="145" on="1"/>
        <pt x="65" y="202" on="0"/>
        <pt x="97" y="391" on="0"/>
        <pt x="120" y="522" on="0"/>
        <pt x="124" y="546" on="1"/>
        <pt x="71" y="653" on="1"/>
        <pt x="134" y="689" on="0"/>
        <pt x="227" y="725" on="0"/>
        <pt x="321" y="725" on="0"/>
        <pt x="354" y="676" on="0"/>
        <pt x="354" y="608" on="0"/>
        <pt x="287" y="240" on="0"/>
        <pt x="287" y="209" on="1"/>
        <pt x="287" y="130" on="0"/>
        <pt x="341" y="130" on="1"/>
        <pt x="381" y="130" on="0"/>
        <pt x="483" y="232" on="0"/>
        <pt x="515" y="321" on="1"/>
        <pt x="494" y="382" on="0"/>
        <pt x="494" y="447" on="1"/>
        <pt x="494" y="563" on="0"/>
        <pt x="609" y="725" on="0"/>
        <pt x="714" y="725" on="1"/>
        <pt x="772" y="725" on="0"/>
        <pt x="807" y="706" on="1"/>
        <pt x="798" y="652" on="0"/>
        <pt x="772" y="510" on="1"/>
        <pt x="715" y="209" on="0"/>
        <pt x="715" y="164" on="1"/>
        <pt x="715" y="67" on="0"/>
      </contour>
    </TTGlyph>
    <TTGlyph name="Uacute" xMin="65" yMin="-26" xMax="807" yMax="986">
      <contour>
        <pt x="745" y="19" on="1"/>
        <pt x="685" y="-26" on="0"/>
        <pt x="569" y="-26" on="0"/>
        <pt x="501" y="34" on="0"/>
        <pt x="501" y="94" on="1"/>
        <pt x="501" y="111" on="0"/>
        <pt x="502" y="120" on="1"/>
        <pt x="492" y="123" on="1"/>
        <pt x="393" y="-25" on="0"/>
        <pt x="226" y="-25" on="1"/>
        <pt x="65" y="-25" on="0"/>
        <pt x="65" y="145" on="1"/>
        <pt x="65" y="202" on="0"/>
        <pt x="97" y="391" on="0"/>
        <pt x="120" y="522" on="0"/>
        <pt x="124" y="546" on="1"/>
        <pt x="71" y="653" on="1"/>
        <pt x="134" y="689" on="0"/>
        <pt x="227" y="725" on="0"/>
        <pt x="321" y="725" on="0"/>
        <pt x="354" y="676" on="0"/>
        <pt x="354" y="608" on="0"/>
        <pt x="287" y="240" on="0"/>
        <pt x="287" y="209" on="1"/>
        <pt x="287" y="130" on="0"/>
        <pt x="341" y="130" on="1"/>
        <pt x="381" y="130" on="0"/>
        <pt x="483" y="232" on="0"/>
        <pt x="515" y="321" on="1"/>
        <pt x="494" y="382" on="0"/>
        <pt x="494" y="447" on="1"/>
        <pt x="494" y="563" on="0"/>
        <pt x="609" y="725" on="0"/>
        <pt x="714" y="725" on="1"/>
        <pt x="772" y="725" on="0"/>
        <pt x="807" y="706" on="1"/>
        <pt x="798" y="652" on="0"/>
        <pt x="772" y="510" on="1"/>
        <pt x="715" y="209" on="0"/>
        <pt x="715" y="164" on="1"/>
        <pt x="715" y="67" on="0"/>
      </contour>
      <contour>
        <pt x="415" y="753" on="1"/>
        <pt x="393" y="753" on="0"/>
        <pt x="362" y="790" on="0"/>
        <pt x="359" y="829" on="1"/>
        <pt x="402" y="839" on="0"/>
        <pt x="507" y="919" on="0"/>
        <pt x="602" y="986" on="0"/>
        <pt x="639" y="986" on="1"/>
        <pt x="695" y="986" on="0"/>
        <pt x="695" y="891" on="1"/>
        <pt x="695" y="852" on="0"/>
        <pt x="685" y="818" on="1"/>
        <pt x="671" y="820" on="0"/>
        <pt x="662" y="820" on="1"/>
        <pt x="616" y="820" on="0"/>
        <pt x="457" y="753" on="0"/>
      </contour>
    </TTGlyph>
    <TTGlyph name="Ucircumflex" xMin="65" yMin="-26" xMax="807" yMax="983">
      <component glyphName="U" x="0" y="0" flags="0x1004"/>
      <component glyphName="circumflex" x="202" y="115" flags="0x1004"/>
    </TTGlyph>
    <TTGlyph name="Udieresis" xMin="65" yMin="-26" xMax="807" yMax="954">
      <component glyphName="U" x="0" y="0" flags="0x1004"/>
      <component glyphName="dieresis" x="173" y="105" flags="0x1004"/>
    </TTGlyph>
    <TTGlyph name="Ugrave" xMin="65" yMin="-26" xMax="807" yMax="986">
      <component glyphName="U" x="0" y="0" flags="0x1004"/>
      <component glyphName="grave" x="314" y="100" flags="0x1004"/>
    </TTGlyph>
    <TTGlyph name="V" xMin="0" yMin="-25" xMax="738" yMax="725">
      <contour>
        <pt x="336" y="326" on="1"/>
        <pt x="333" y="158" on="1"/>
        <pt x="359" y="158" on="1"/>
        <pt x="415" y="277" on="0"/>
        <pt x="509" y="548" on="0"/>
        <pt x="509" y="619" on="1"/>
        <pt x="509" y="647" on="0"/>
        <pt x="498" y="673" on="1"/>
        <pt x="574" y="725" on="0"/>
        <pt x="638" y="725" on="1"/>
        <pt x="738" y="725" on="0"/>
        <pt x="738" y="612" on="1"/>
        <pt x="738" y="556" on="0"/>
        <pt x="677" y="385" on="0"/>
        <pt x="557" y="128" on="0"/>
        <pt x="553" y="118" on="1"/>
        <pt x="567" y="63" on="1"/>
        <pt x="521" y="26" on="0"/>
        <pt x="377" y="-25" on="0"/>
        <pt x="203" y="-25" on="0"/>
        <pt x="119" y="31" on="0"/>
        <pt x="119" y="97" on="1"/>
        <pt x="120" y="281" on="1"/>
        <pt x="120" y="510" on="0"/>
        <pt x="64" y="604" on="1"/>
        <pt x="38" y="647" on="0"/>
        <pt x="0" y="673" on="1"/>
        <pt x="68" y="725" on="0"/>
        <pt x="156" y="725" on="1"/>
        <pt x="236" y="725" on="0"/>
        <pt x="314" y="600" on="0"/>
        <pt x="326" y="513" on="1"/>
        <pt x="336" y="434" on="0"/>
      </contour>
    </TTGlyph>
    <TTGlyph name="W" xMin="0" yMin="-25" xMax="1028" yMax="725">
      <contour>
        <pt x="626" y="399" on="1"/>
        <pt x="623" y="158" on="1"/>
        <pt x="649" y="158" on="1"/>
        <pt x="705" y="277" on="0"/>
        <pt x="799" y="548" on="0"/>
        <pt x="799" y="619" on="1"/>
        <pt x="799" y="647" on="0"/>
        <pt x="788" y="673" on="1"/>
        <pt x="864" y="725" on="0"/>
        <pt x="928" y="725" on="1"/>
        <pt x="1028" y="725" on="0"/>
        <pt x="1028" y="612" on="1"/>
        <pt x="1028" y="556" on="0"/>
        <pt x="967" y="385" on="0"/>
        <pt x="847" y="128" on="0"/>
        <pt x="843" y="118" on="1"/>
        <pt x="857" y="63" on="1"/>
        <pt x="771" y="-25" on="0"/>
        <pt x="513" y="-25" on="0"/>
        <pt x="479" y="22" on="1"/>
        <pt x="395" y="-25" on="0"/>
        <pt x="203" y="-25" on="0"/>
        <pt x="119" y="31" on="0"/>
        <pt x="119" y="97" on="1"/>
        <pt x="120" y="281" on="1"/>
        <pt x="120" y="510" on="0"/>
        <pt x="64" y="604" on="1"/>
        <pt x="38" y="647" on="0"/>
        <pt x="0" y="673" on="1"/>
        <pt x="68" y="725" on="0"/>
        <pt x="156" y="725" on="1"/>
        <pt x="236" y="725" on="0"/>
        <pt x="314" y="600" on="0"/>
        <pt x="326" y="513" on="1"/>
        <pt x="336" y="434" on="0"/>
        <pt x="336" y="326" on="1"/>
        <pt x="333" y="158" on="1"/>
        <pt x="359" y="158" on="1"/>
        <pt x="416" y="282" on="0"/>
        <pt x="455" y="452" on="1"/>
        <pt x="445" y="548" on="0"/>
        <pt x="411" y="645" on="1"/>
        <pt x="448" y="674" on="0"/>
        <pt x="512" y="699" on="0"/>
        <pt x="565" y="699" on="1"/>
        <pt x="674" y="699" on="0"/>
        <pt x="674" y="598" on="1"/>
        <pt x="674" y="538" on="0"/>
      </contour>
    </TTGlyph>
    <TTGlyph name="X" xMin="10" yMin="-25" xMax="754" yMax="725">
      <contour>
        <pt x="564" y="-25" on="1"/>
        <pt x="497" y="-25" on="0"/>
        <pt x="419" y="45" on="0"/>
        <pt x="363" y="150" on="1"/>
        <pt x="321" y="228" on="1"/>
        <pt x="253" y="147" on="0"/>
        <pt x="253" y="82" on="1"/>
        <pt x="253" y="50" on="0"/>
        <pt x="262" y="27" on="1"/>
        <pt x="186" y="-25" on="0"/>
        <pt x="114" y="-25" on="1"/>
        <pt x="61" y="-25" on="0"/>
        <pt x="10" y="29" on="0"/>
        <pt x="10" y="69" on="1"/>
        <pt x="10" y="188" on="0"/>
        <pt x="249" y="363" on="1"/>
        <pt x="160" y="531" on="1"/>
        <pt x="108" y="631" on="0"/>
        <pt x="38" y="654" on="1"/>
        <pt x="106" y="725" on="0"/>
        <pt x="199" y="725" on="1"/>
        <pt x="266" y="725" on="0"/>
        <pt x="344" y="655" on="0"/>
        <pt x="400" y="550" on="1"/>
        <pt x="441" y="472" on="1"/>
        <pt x="511" y="552" on="0"/>
        <pt x="511" y="618" on="1"/>
        <pt x="511" y="648" on="0"/>
        <pt x="501" y="673" on="1"/>
        <pt x="578" y="725" on="0"/>
        <pt x="650" y="725" on="1"/>
        <pt x="703" y="725" on="0"/>
        <pt x="754" y="671" on="0"/>
        <pt x="754" y="631" on="1"/>
        <pt x="754" y="505" on="0"/>
        <pt x="516" y="331" on="1"/>
        <pt x="603" y="169" on="1"/>
        <pt x="655" y="69" on="0"/>
        <pt x="725" y="46" on="1"/>
        <pt x="657" y="-25" on="0"/>
      </contour>
    </TTGlyph>
    <TTGlyph name="Y" xMin="-10" yMin="-177" xMax="682" yMax="725">
      <contour>
        <pt x="122" y="180" on="1"/>
        <pt x="121" y="200" on="0"/>
        <pt x="115" y="328" on="0"/>
        <pt x="110" y="395" on="0"/>
        <pt x="93" y="511" on="0"/>
        <pt x="80" y="546" on="1"/>
        <pt x="48" y="638" on="0"/>
        <pt x="-10" y="678" on="1"/>
        <pt x="68" y="725" on="0"/>
        <pt x="165" y="725" on="0"/>
        <pt x="229" y="693" on="0"/>
        <pt x="270" y="648" on="0"/>
        <pt x="302" y="568" on="0"/>
        <pt x="318" y="502" on="0"/>
        <pt x="329" y="398" on="0"/>
        <pt x="332" y="334" on="0"/>
        <pt x="335" y="229" on="0"/>
        <pt x="336" y="209" on="1"/>
        <pt x="350" y="209" on="1"/>
        <pt x="389" y="302" on="0"/>
        <pt x="454" y="542" on="0"/>
        <pt x="454" y="613" on="1"/>
        <pt x="454" y="648" on="0"/>
        <pt x="439" y="678" on="1"/>
        <pt x="514" y="725" on="0"/>
        <pt x="572" y="725" on="1"/>
        <pt x="682" y="725" on="0"/>
        <pt x="682" y="609" on="1"/>
        <pt x="682" y="550" on="0"/>
        <pt x="592" y="272" on="0"/>
        <pt x="531" y="142" on="1"/>
        <pt x="452" y="-27" on="0"/>
        <pt x="285" y="-177" on="0"/>
        <pt x="154" y="-177" on="1"/>
        <pt x="96" y="-177" on="0"/>
        <pt x="49" y="-154" on="1"/>
        <pt x="-8" y="-127" on="0"/>
        <pt x="-8" y="1" on="0"/>
        <pt x="41" y="69" on="1"/>
        <pt x="63" y="37" on="0"/>
        <pt x="137" y="2" on="0"/>
        <pt x="226" y="2" on="0"/>
        <pt x="305" y="51" on="0"/>
        <pt x="322" y="97" on="1"/>
        <pt x="269" y="84" on="0"/>
        <pt x="225" y="84" on="1"/>
        <pt x="130" y="84" on="0"/>
      </contour>
    </TTGlyph>
    <TTGlyph name="Yacute" xMin="-10" yMin="-177" xMax="682" yMax="986">
      <component glyphName="Y" x="0" y="0" flags="0x1004"/>
      <component glyphName="acute" x="160" y="100" flags="0x1004"/>
    </TTGlyph>
    <TTGlyph name="Ydieresis" xMin="-10" yMin="-177" xMax="682" yMax="954">
      <component glyphName="Y" x="0" y="0" flags="0x1004"/>
      <component glyphName="dieresis" x="41" y="105" flags="0x1004"/>
    </TTGlyph>
    <TTGlyph name="Z" xMin="-20" yMin="-25" xMax="674" yMax="724">
      <contour>
        <pt x="39" y="-20" on="0"/>
        <pt x="-20" y="35" on="0"/>
        <pt x="-20" y="135" on="0"/>
        <pt x="57" y="217" on="0"/>
        <pt x="125" y="217" on="1"/>
        <pt x="317" y="473" on="1"/>
        <pt x="203" y="476" on="0"/>
        <pt x="69" y="555" on="0"/>
        <pt x="69" y="636" on="1"/>
        <pt x="69" y="674" on="0"/>
        <pt x="79" y="721" on="1"/>
        <pt x="150" y="692" on="0"/>
        <pt x="403" y="653" on="0"/>
        <pt x="462" y="653" on="1"/>
        <pt x="503" y="724" on="0"/>
        <pt x="574" y="724" on="1"/>
        <pt x="621" y="724" on="0"/>
        <pt x="674" y="665" on="0"/>
        <pt x="674" y="622" on="1"/>
        <pt x="674" y="554" on="0"/>
        <pt x="590" y="515" on="1"/>
        <pt x="334" y="195" on="1"/>
        <pt x="510" y="176" on="1"/>
        <pt x="631" y="231" on="1"/>
        <pt x="639" y="195" on="0"/>
        <pt x="639" y="152" on="1"/>
        <pt x="639" y="64" on="0"/>
        <pt x="550" y="-25" on="0"/>
        <pt x="480" y="-25" on="1"/>
        <pt x="345" y="-25" on="0"/>
        <pt x="220" y="54" on="1"/>
        <pt x="158" y="-20" on="0"/>
        <pt x="87" y="-20" on="1"/>
      </contour>
    </TTGlyph>
    <TTGlyph name="Zcaron" xMin="-20" yMin="-25" xMax="674" yMax="958">
      <contour>
        <pt x="39" y="-20" on="0"/>
        <pt x="-20" y="35" on="0"/>
        <pt x="-20" y="135" on="0"/>
        <pt x="57" y="217" on="0"/>
        <pt x="125" y="217" on="1"/>
        <pt x="317" y="473" on="1"/>
        <pt x="203" y="476" on="0"/>
        <pt x="69" y="555" on="0"/>
        <pt x="69" y="636" on="1"/>
        <pt x="69" y="674" on="0"/>
        <pt x="79" y="721" on="1"/>
        <pt x="150" y="692" on="0"/>
        <pt x="403" y="653" on="0"/>
        <pt x="462" y="653" on="1"/>
        <pt x="503" y="724" on="0"/>
        <pt x="574" y="724" on="1"/>
        <pt x="621" y="724" on="0"/>
        <pt x="674" y="665" on="0"/>
        <pt x="674" y="622" on="1"/>
        <pt x="674" y="554" on="0"/>
        <pt x="590" y="515" on="1"/>
        <pt x="334" y="195" on="1"/>
        <pt x="510" y="176" on="1"/>
        <pt x="631" y="231" on="1"/>
        <pt x="639" y="195" on="0"/>
        <pt x="639" y="152" on="1"/>
        <pt x="639" y="64" on="0"/>
        <pt x="550" y="-25" on="0"/>
        <pt x="480" y="-25" on="1"/>
        <pt x="345" y="-25" on="0"/>
        <pt x="220" y="54" on="1"/>
        <pt x="158" y="-20" on="0"/>
        <pt x="87" y="-20" on="1"/>
      </contour>
      <contour>
        <pt x="512" y="761" on="1"/>
        <pt x="456" y="734" on="0"/>
        <pt x="365" y="734" on="1"/>
        <pt x="245" y="734" on="0"/>
        <pt x="245" y="791" on="1"/>
        <pt x="245" y="874" on="1"/>
        <pt x="245" y="917" on="0"/>
        <pt x="214" y="939" on="1"/>
        <pt x="262" y="958" on="0"/>
        <pt x="308" y="958" on="1"/>
        <pt x="389" y="958" on="0"/>
        <pt x="389" y="883" on="1"/>
        <pt x="389" y="864" on="0"/>
        <pt x="378" y="796" on="1"/>
        <pt x="408" y="796" on="1"/>
        <pt x="449" y="839" on="0"/>
        <pt x="449" y="905" on="1"/>
        <pt x="449" y="916" on="0"/>
        <pt x="447" y="940" on="1"/>
        <pt x="494" y="958" on="0"/>
        <pt x="543" y="958" on="1"/>
        <pt x="620" y="958" on="0"/>
        <pt x="620" y="919" on="1"/>
        <pt x="620" y="882" on="0"/>
        <pt x="556" y="810" on="1"/>
        <pt x="547" y="800" on="0"/>
        <pt x="515" y="764" on="0"/>
      </contour>
    </TTGlyph>
    <TTGlyph name="a" xMin="40" yMin="-25" xMax="691" yMax="600">
      <contour>
        <pt x="427" y="123" on="1"/>
        <pt x="417" y="128" on="1"/>
        <pt x="390" y="56" on="0"/>
        <pt x="289" y="-25" on="0"/>
        <pt x="227" y="-25" on="1"/>
        <pt x="142" y="-25" on="0"/>
        <pt x="40" y="103" on="0"/>
        <pt x="40" y="210" on="1"/>
        <pt x="40" y="376" on="0"/>
        <pt x="263" y="600" on="0"/>
        <pt x="429" y="600" on="1"/>
        <pt x="472" y="600" on="0"/>
        <pt x="508" y="592" on="1"/>
        <pt x="514" y="564" on="0"/>
        <pt x="515" y="543" on="1"/>
        <pt x="565" y="575" on="0"/>
        <pt x="618" y="575" on="1"/>
        <pt x="691" y="575" on="0"/>
        <pt x="691" y="496" on="1"/>
        <pt x="691" y="468" on="0"/>
        <pt x="628" y="186" on="0"/>
        <pt x="628" y="50" on="0"/>
        <pt x="659" y="24" on="1"/>
        <pt x="603" y="-25" on="0"/>
        <pt x="482" y="-25" on="0"/>
        <pt x="427" y="47" on="0"/>
      </contour>
      <contour>
        <pt x="228" y="259" on="1"/>
        <pt x="228" y="210" on="0"/>
        <pt x="269" y="157" on="0"/>
        <pt x="345" y="157" on="0"/>
        <pt x="419" y="213" on="0"/>
        <pt x="444" y="262" on="1"/>
        <pt x="453" y="363" on="0"/>
        <pt x="483" y="501" on="1"/>
        <pt x="382" y="501" on="0"/>
        <pt x="228" y="355" on="0"/>
      </contour>
    </TTGlyph>
    <TTGlyph name="aacute" xMin="40" yMin="-25" xMax="691" yMax="886">
      <component glyphName="a" x="0" y="0" flags="0x1004"/>
      <component glyphName="acute" x="228" y="0" flags="0x1004"/>
    </TTGlyph>
    <TTGlyph name="acircumflex" xMin="40" yMin="-25" xMax="691" yMax="868">
      <component glyphName="a" x="0" y="0" flags="0x1004"/>
      <component glyphName="circumflex" x="132" y="0" flags="0x1004"/>
    </TTGlyph>
    <TTGlyph name="acute" xMin="70" yMin="653" xMax="406" yMax="886">
      <contour>
        <pt x="126" y="653" on="1"/>
        <pt x="104" y="653" on="0"/>
        <pt x="73" y="690" on="0"/>
        <pt x="70" y="729" on="1"/>
        <pt x="113" y="739" on="0"/>
        <pt x="218" y="819" on="0"/>
        <pt x="313" y="886" on="0"/>
        <pt x="350" y="886" on="1"/>
        <pt x="406" y="886" on="0"/>
        <pt x="406" y="791" on="1"/>
        <pt x="406" y="752" on="0"/>
        <pt x="396" y="718" on="1"/>
        <pt x="382" y="720" on="0"/>
        <pt x="373" y="720" on="1"/>
        <pt x="327" y="720" on="0"/>
        <pt x="168" y="653" on="0"/>
      </contour>
    </TTGlyph>
    <TTGlyph name="adieresis" xMin="40" yMin="-25" xMax="691" yMax="849">
      <component glyphName="a" x="0" y="0" flags="0x1004"/>
      <component glyphName="dieresis" x="78" y="0" flags="0x1004"/>
    </TTGlyph>
    <TTGlyph name="ae" xMin="40" yMin="-25" xMax="954" yMax="600">
      <contour>
        <pt x="517" y="520" on="1"/>
        <pt x="623" y="600" on="0"/>
        <pt x="765" y="600" on="1"/>
        <pt x="858" y="600" on="0"/>
        <pt x="954" y="517" on="0"/>
        <pt x="954" y="449" on="1"/>
        <pt x="954" y="356" on="0"/>
        <pt x="773" y="233" on="0"/>
        <pt x="584" y="232" on="1"/>
        <pt x="587" y="168" on="0"/>
        <pt x="639" y="95" on="0"/>
        <pt x="717" y="95" on="0"/>
        <pt x="774" y="147" on="0"/>
        <pt x="774" y="206" on="1"/>
        <pt x="920" y="206" on="0"/>
        <pt x="920" y="137" on="1"/>
        <pt x="920" y="78" on="0"/>
        <pt x="776" y="-25" on="0"/>
        <pt x="663" y="-25" on="1"/>
        <pt x="478" y="-25" on="0"/>
        <pt x="422" y="113" on="1"/>
        <pt x="411" y="113" on="1"/>
        <pt x="382" y="48" on="0"/>
        <pt x="286" y="-25" on="0"/>
        <pt x="227" y="-25" on="1"/>
        <pt x="142" y="-25" on="0"/>
        <pt x="40" y="103" on="0"/>
        <pt x="40" y="210" on="1"/>
        <pt x="40" y="376" on="0"/>
        <pt x="263" y="600" on="0"/>
        <pt x="429" y="600" on="1"/>
        <pt x="472" y="600" on="0"/>
        <pt x="508" y="592" on="1"/>
        <pt x="514" y="560" on="0"/>
      </contour>
      <contour>
        <pt x="228" y="259" on="1"/>
        <pt x="228" y="210" on="0"/>
        <pt x="262" y="157" on="0"/>
        <pt x="327" y="157" on="0"/>
        <pt x="389" y="213" on="0"/>
        <pt x="410" y="262" on="1"/>
        <pt x="421" y="352" on="0"/>
        <pt x="449" y="480" on="1"/>
        <pt x="358" y="480" on="0"/>
        <pt x="228" y="354" on="0"/>
      </contour>
      <contour>
        <pt x="748" y="483" on="1"/>
        <pt x="697" y="483" on="0"/>
        <pt x="612" y="381" on="0"/>
        <pt x="593" y="312" on="1"/>
        <pt x="693" y="320" on="0"/>
        <pt x="794" y="396" on="0"/>
        <pt x="794" y="437" on="1"/>
        <pt x="794" y="457" on="0"/>
        <pt x="769" y="483" on="0"/>
      </contour>
    </TTGlyph>
    <TTGlyph name="agrave" xMin="40" yMin="-25" xMax="691" yMax="886">
      <component glyphName="a" x="0" y="0" flags="0x1004"/>
      <component glyphName="grave" x="271" y="0" flags="0x1004"/>
    </TTGlyph>
    <TTGlyph name="ampersand" xMin="15" yMin="-112" xMax="788" yMax="775">
      <contour>
        <pt x="404" y="642" on="1"/>
        <pt x="346" y="628" on="0"/>
        <pt x="283" y="557" on="0"/>
        <pt x="283" y="475" on="0"/>
        <pt x="345" y="419" on="0"/>
        <pt x="456" y="419" on="0"/>
        <pt x="706" y="475" on="0"/>
        <pt x="788" y="475" on="0"/>
        <pt x="788" y="366" on="0"/>
        <pt x="769" y="319" on="1"/>
        <pt x="741" y="325" on="0"/>
        <pt x="673" y="325" on="0"/>
        <pt x="632" y="317" on="1"/>
        <pt x="632" y="210" on="0"/>
        <pt x="565" y="41" on="0"/>
        <pt x="509" y="-10" on="1"/>
        <pt x="395" y="-112" on="0"/>
        <pt x="247" y="-112" on="1"/>
        <pt x="135" y="-112" on="0"/>
        <pt x="15" y="2" on="0"/>
        <pt x="15" y="158" on="0"/>
        <pt x="100" y="297" on="0"/>
        <pt x="178" y="343" on="1"/>
        <pt x="130" y="372" on="0"/>
        <pt x="80" y="462" on="0"/>
        <pt x="80" y="512" on="1"/>
        <pt x="80" y="615" on="0"/>
        <pt x="280" y="775" on="0"/>
        <pt x="447" y="775" on="1"/>
        <pt x="533" y="775" on="0"/>
        <pt x="633" y="710" on="0"/>
        <pt x="633" y="612" on="0"/>
        <pt x="566" y="560" on="0"/>
        <pt x="487" y="560" on="0"/>
        <pt x="422" y="602" on="0"/>
      </contour>
      <contour>
        <pt x="333" y="91" on="1"/>
        <pt x="392" y="91" on="0"/>
        <pt x="515" y="204" on="0"/>
        <pt x="526" y="309" on="1"/>
        <pt x="414" y="297" on="0"/>
        <pt x="329" y="297" on="0"/>
        <pt x="304" y="301" on="1"/>
        <pt x="244" y="237" on="0"/>
        <pt x="244" y="173" on="1"/>
        <pt x="244" y="135" on="0"/>
        <pt x="294" y="91" on="0"/>
      </contour>
    </TTGlyph>
    <TTGlyph name="apple" xMin="18" yMin="-77" xMax="857" yMax="762">
      <contour>
        <pt x="578" y="712" on="1"/>
        <pt x="546" y="665" on="0"/>
        <pt x="527" y="623" on="1"/>
        <pt x="632" y="723" on="0"/>
        <pt x="718" y="723" on="1"/>
        <pt x="780" y="723" on="0"/>
        <pt x="857" y="645" on="0"/>
        <pt x="857" y="518" on="0"/>
        <pt x="837" y="457" on="1"/>
        <pt x="777" y="472" on="0"/>
        <pt x="732" y="528" on="1"/>
        <pt x="713" y="551" on="0"/>
        <pt x="696" y="572" on="1"/>
        <pt x="654" y="623" on="0"/>
        <pt x="562" y="623" on="0"/>
        <pt x="516" y="599" on="1"/>
        <pt x="507" y="579" on="1"/>
        <pt x="594" y="559" on="0"/>
        <pt x="686" y="422" on="0"/>
        <pt x="686" y="332" on="1"/>
        <pt x="686" y="266" on="0"/>
        <pt x="637" y="136" on="0"/>
        <pt x="546" y="29" on="0"/>
        <pt x="400" y="-38" on="0"/>
        <pt x="313" y="-38" on="1"/>
        <pt x="283" y="-77" on="0"/>
        <pt x="252" y="-77" on="1"/>
        <pt x="232" y="-77" on="0"/>
        <pt x="232" y="-15" on="1"/>
        <pt x="112" y="84" on="0"/>
        <pt x="112" y="242" on="1"/>
        <pt x="112" y="376" on="0"/>
        <pt x="307" y="586" on="0"/>
        <pt x="449" y="586" on="1"/>
        <pt x="461" y="616" on="1"/>
        <pt x="422" y="645" on="0"/>
        <pt x="334" y="645" on="0"/>
        <pt x="244" y="596" on="0"/>
        <pt x="170" y="536" on="0"/>
        <pt x="65" y="475" on="0"/>
        <pt x="18" y="465" on="1"/>
        <pt x="18" y="607" on="0"/>
        <pt x="148" y="762" on="0"/>
        <pt x="243" y="762" on="1"/>
        <pt x="304" y="762" on="0"/>
        <pt x="423" y="694" on="0"/>
        <pt x="467" y="630" on="1"/>
        <pt x="492" y="697" on="1"/>
        <pt x="504" y="728" on="0"/>
        <pt x="559" y="728" on="0"/>
      </contour>
    </TTGlyph>
    <TTGlyph name="approxequal" xMin="97" yMin="127" xMax="636" yMax="661">
      <contour>
        <pt x="598" y="481" on="1"/>
        <pt x="547" y="507" on="0"/>
        <pt x="424" y="507" on="0"/>
        <pt x="201" y="423" on="0"/>
        <pt x="157" y="423" on="1"/>
        <pt x="97" y="423" on="0"/>
        <pt x="97" y="493" on="1"/>
        <pt x="97" y="546" on="0"/>
        <pt x="136" y="603" on="1"/>
        <pt x="185" y="584" on="0"/>
        <pt x="301" y="584" on="0"/>
        <pt x="493" y="661" on="0"/>
        <pt x="544" y="661" on="1"/>
        <pt x="636" y="661" on="0"/>
        <pt x="636" y="582" on="1"/>
        <pt x="636" y="531" on="0"/>
      </contour>
      <contour>
        <pt x="598" y="185" on="1"/>
        <pt x="547" y="211" on="0"/>
        <pt x="424" y="211" on="0"/>
        <pt x="201" y="127" on="0"/>
        <pt x="157" y="127" on="1"/>
        <pt x="97" y="127" on="0"/>
        <pt x="97" y="197" on="1"/>
        <pt x="97" y="250" on="0"/>
        <pt x="136" y="307" on="1"/>
        <pt x="185" y="288" on="0"/>
        <pt x="301" y="288" on="0"/>
        <pt x="493" y="365" on="0"/>
        <pt x="544" y="365" on="1"/>
        <pt x="636" y="365" on="0"/>
        <pt x="636" y="286" on="1"/>
        <pt x="636" y="235" on="0"/>
      </contour>
    </TTGlyph>
    <TTGlyph name="aring" xMin="70" yMin="-25" xMax="721" yMax="919">
      <contour>
        <pt x="435" y="734" on="0"/>
        <pt x="462" y="697" on="0"/>
        <pt x="513" y="697" on="0"/>
        <pt x="556" y="757" on="0"/>
        <pt x="556" y="795" on="1"/>
        <pt x="556" y="852" on="0"/>
        <pt x="496" y="852" on="1"/>
        <pt x="490" y="852" on="0"/>
        <pt x="470" y="850" on="1"/>
        <pt x="435" y="811" on="0"/>
        <pt x="435" y="761" on="1"/>
      </contour>
      <contour>
        <pt x="680" y="721" on="0"/>
        <pt x="571" y="632" on="0"/>
        <pt x="408" y="632" on="0"/>
        <pt x="323" y="700" on="0"/>
        <pt x="323" y="757" on="1"/>
        <pt x="323" y="829" on="0"/>
        <pt x="433" y="919" on="0"/>
        <pt x="595" y="919" on="0"/>
        <pt x="680" y="851" on="0"/>
        <pt x="680" y="794" on="1"/>
      </contour>
      <contour>
        <pt x="457" y="123" on="1"/>
        <pt x="447" y="128" on="1"/>
        <pt x="420" y="56" on="0"/>
        <pt x="319" y="-25" on="0"/>
        <pt x="257" y="-25" on="1"/>
        <pt x="172" y="-25" on="0"/>
        <pt x="70" y="103" on="0"/>
        <pt x="70" y="210" on="1"/>
        <pt x="70" y="376" on="0"/>
        <pt x="293" y="600" on="0"/>
        <pt x="459" y="600" on="1"/>
        <pt x="502" y="600" on="0"/>
        <pt x="538" y="592" on="1"/>
        <pt x="544" y="564" on="0"/>
        <pt x="545" y="543" on="1"/>
        <pt x="595" y="575" on="0"/>
        <pt x="648" y="575" on="1"/>
        <pt x="721" y="575" on="0"/>
        <pt x="721" y="496" on="1"/>
        <pt x="721" y="468" on="0"/>
        <pt x="658" y="186" on="0"/>
        <pt x="658" y="50" on="0"/>
        <pt x="689" y="24" on="1"/>
        <pt x="633" y="-25" on="0"/>
        <pt x="512" y="-25" on="0"/>
        <pt x="457" y="47" on="0"/>
      </contour>
      <contour>
        <pt x="258" y="259" on="1"/>
        <pt x="258" y="210" on="0"/>
        <pt x="299" y="157" on="0"/>
        <pt x="375" y="157" on="0"/>
        <pt x="449" y="213" on="0"/>
        <pt x="474" y="262" on="1"/>
        <pt x="483" y="363" on="0"/>
        <pt x="513" y="501" on="1"/>
        <pt x="412" y="501" on="0"/>
        <pt x="258" y="355" on="0"/>
      </contour>
    </TTGlyph>
    <TTGlyph name="asciicircum" xMin="58" yMin="407" xMax="655" yMax="959">
      <contour>
        <pt x="468" y="959" on="1"/>
        <pt x="467" y="955" on="0"/>
        <pt x="467" y="946" on="1"/>
        <pt x="467" y="899" on="0"/>
        <pt x="526" y="764" on="0"/>
        <pt x="561" y="708" on="1"/>
        <pt x="655" y="559" on="0"/>
        <pt x="655" y="514" on="1"/>
        <pt x="655" y="478" on="0"/>
        <pt x="544" y="422" on="0"/>
        <pt x="487" y="422" on="1"/>
        <pt x="472" y="422" on="0"/>
        <pt x="465" y="423" on="1"/>
        <pt x="465" y="492" on="0"/>
        <pt x="431" y="582" on="1"/>
        <pt x="417" y="619" on="0"/>
        <pt x="408" y="643" on="0"/>
        <pt x="372" y="726" on="0"/>
        <pt x="371" y="728" on="1"/>
        <pt x="352" y="695" on="0"/>
        <pt x="274" y="516" on="0"/>
        <pt x="212" y="407" on="0"/>
        <pt x="189" y="407" on="1"/>
        <pt x="152" y="407" on="0"/>
        <pt x="71" y="487" on="0"/>
        <pt x="58" y="528" on="1"/>
        <pt x="96" y="555" on="0"/>
        <pt x="144" y="634" on="1"/>
        <pt x="158" y="657" on="0"/>
        <pt x="263" y="843" on="0"/>
        <pt x="320" y="933" on="0"/>
        <pt x="404" y="959" on="0"/>
      </contour>
    </TTGlyph>
    <TTGlyph name="asciitilde" xMin="97" yMin="270" xMax="636" yMax="508">
      <contour>
        <pt x="598" y="328" on="1"/>
        <pt x="547" y="354" on="0"/>
        <pt x="427" y="354" on="0"/>
        <pt x="213" y="270" on="0"/>
        <pt x="157" y="270" on="1"/>
        <pt x="97" y="270" on="0"/>
        <pt x="97" y="340" on="1"/>
        <pt x="97" y="393" on="0"/>
        <pt x="136" y="450" on="1"/>
        <pt x="185" y="431" on="0"/>
        <pt x="301" y="431" on="0"/>
        <pt x="493" y="508" on="0"/>
        <pt x="544" y="508" on="1"/>
        <pt x="636" y="508" on="0"/>
        <pt x="636" y="429" on="1"/>
        <pt x="636" y="378" on="0"/>
      </contour>
    </TTGlyph>
    <TTGlyph name="asterisk" xMin="67" yMin="296" xMax="577" yMax="800">
      <contour>
        <pt x="313" y="433" on="1"/>
        <pt x="252" y="347" on="0"/>
        <pt x="243" y="310" on="1"/>
        <pt x="193" y="314" on="0"/>
        <pt x="110" y="364" on="0"/>
        <pt x="110" y="409" on="0"/>
        <pt x="159" y="462" on="0"/>
        <pt x="212" y="508" on="1"/>
        <pt x="132" y="536" on="0"/>
        <pt x="74" y="537" on="1"/>
        <pt x="67" y="564" on="0"/>
        <pt x="67" y="637" on="0"/>
        <pt x="96" y="689" on="0"/>
        <pt x="150" y="689" on="0"/>
        <pt x="254" y="627" on="1"/>
        <pt x="253" y="731" on="0"/>
        <pt x="239" y="768" on="1"/>
        <pt x="293" y="800" on="0"/>
        <pt x="375" y="800" on="0"/>
        <pt x="400" y="772" on="0"/>
        <pt x="400" y="706" on="0"/>
        <pt x="378" y="625" on="1"/>
        <pt x="485" y="659" on="0"/>
        <pt x="509" y="681" on="1"/>
        <pt x="537" y="657" on="0"/>
        <pt x="577" y="588" on="0"/>
        <pt x="577" y="567" on="1"/>
        <pt x="577" y="535" on="0"/>
        <pt x="498" y="513" on="0"/>
        <pt x="415" y="506" on="1"/>
        <pt x="455" y="452" on="0"/>
        <pt x="489" y="414" on="0"/>
        <pt x="509" y="399" on="1"/>
        <pt x="494" y="359" on="0"/>
        <pt x="431" y="296" on="0"/>
        <pt x="408" y="296" on="1"/>
        <pt x="363" y="296" on="0"/>
      </contour>
      <contour>
        <pt x="314" y="461" on="1"/>
        <pt x="340" y="487" on="0"/>
        <pt x="401" y="513" on="1"/>
        <pt x="370" y="568" on="0"/>
        <pt x="370" y="609" on="1"/>
        <pt x="332" y="604" on="0"/>
        <pt x="302" y="604" on="0"/>
        <pt x="269" y="609" on="1"/>
        <pt x="262" y="551" on="0"/>
        <pt x="235" y="514" on="1"/>
        <pt x="295" y="492" on="0"/>
      </contour>
    </TTGlyph>
    <TTGlyph name="at" xMin="60" yMin="-235" xMax="1050" yMax="800">
      <contour>
        <pt x="293" y="288" on="1"/>
        <pt x="293" y="403" on="0"/>
        <pt x="360" y="497" on="1"/>
        <pt x="392" y="543" on="0"/>
        <pt x="501" y="600" on="0"/>
        <pt x="624" y="600" on="0"/>
        <pt x="645" y="594" on="1"/>
        <pt x="651" y="573" on="0"/>
        <pt x="651" y="560" on="1"/>
        <pt x="699" y="592" on="0"/>
        <pt x="759" y="592" on="1"/>
        <pt x="810" y="592" on="0"/>
        <pt x="810" y="544" on="1"/>
        <pt x="810" y="514" on="0"/>
        <pt x="765" y="333" on="0"/>
        <pt x="765" y="278" on="1"/>
        <pt x="765" y="198" on="0"/>
        <pt x="816" y="198" on="1"/>
        <pt x="875" y="198" on="0"/>
        <pt x="953" y="314" on="0"/>
        <pt x="953" y="413" on="1"/>
        <pt x="953" y="530" on="0"/>
        <pt x="874" y="616" on="1"/>
        <pt x="833" y="659" on="0"/>
        <pt x="689" y="710" on="0"/>
        <pt x="495" y="710" on="0"/>
        <pt x="332" y="636" on="0"/>
        <pt x="228" y="516" on="0"/>
        <pt x="171" y="366" on="0"/>
        <pt x="171" y="191" on="0"/>
        <pt x="230" y="48" on="0"/>
        <pt x="284" y="6" on="1"/>
        <pt x="389" y="-74" on="0"/>
        <pt x="558" y="-74" on="1"/>
        <pt x="778" y="-74" on="0"/>
        <pt x="917" y="65" on="1"/>
        <pt x="937" y="17" on="0"/>
        <pt x="937" y="-21" on="1"/>
        <pt x="937" y="-83" on="0"/>
        <pt x="823" y="-183" on="0"/>
        <pt x="642" y="-235" on="0"/>
        <pt x="448" y="-235" on="0"/>
        <pt x="284" y="-181" on="0"/>
        <pt x="144" y="-71" on="0"/>
        <pt x="60" y="122" on="0"/>
        <pt x="60" y="352" on="0"/>
        <pt x="130" y="546" on="0"/>
        <pt x="263" y="704" on="0"/>
        <pt x="478" y="800" on="0"/>
        <pt x="715" y="800" on="0"/>
        <pt x="886" y="735" on="0"/>
        <pt x="940" y="681" on="1"/>
        <pt x="1050" y="569" on="0"/>
        <pt x="1050" y="420" on="1"/>
        <pt x="1050" y="333" on="0"/>
        <pt x="984" y="180" on="0"/>
        <pt x="840" y="77" on="0"/>
        <pt x="743" y="77" on="1"/>
        <pt x="678" y="77" on="0"/>
        <pt x="609" y="146" on="0"/>
        <pt x="602" y="199" on="1"/>
        <pt x="594" y="203" on="1"/>
        <pt x="566" y="153" on="0"/>
        <pt x="481" y="100" on="0"/>
        <pt x="436" y="100" on="1"/>
        <pt x="376" y="100" on="0"/>
        <pt x="293" y="197" on="0"/>
      </contour>
      <contour>
        <pt x="603" y="287" on="1"/>
        <pt x="616" y="412" on="0"/>
        <pt x="643" y="511" on="1"/>
        <pt x="557" y="503" on="0"/>
        <pt x="464" y="412" on="0"/>
        <pt x="464" y="348" on="1"/>
        <pt x="464" y="310" on="0"/>
        <pt x="503" y="261" on="0"/>
        <pt x="575" y="261" on="0"/>
      </contour>
    </TTGlyph>
    <TTGlyph name="atilde" xMin="40" yMin="-25" xMax="691" yMax="873">
      <component glyphName="a" x="0" y="0" flags="0x1004"/>
      <component glyphName="tilde" x="193" y="0" flags="0x1004"/>
    </TTGlyph>
    <TTGlyph name="b" xMin="66" yMin="-25" xMax="694" yMax="775">
      <contour>
        <pt x="66" y="190" on="1"/>
        <pt x="66" y="274" on="0"/>
        <pt x="131" y="622" on="1"/>
        <pt x="75" y="702" on="1"/>
        <pt x="137" y="739" on="0"/>
        <pt x="222" y="775" on="0"/>
        <pt x="307" y="775" on="0"/>
        <pt x="347" y="741" on="0"/>
        <pt x="347" y="704" on="1"/>
        <pt x="347" y="640" on="0"/>
        <pt x="308" y="453" on="1"/>
        <pt x="318" y="448" on="1"/>
        <pt x="390" y="591" on="0"/>
        <pt x="528" y="591" on="1"/>
        <pt x="606" y="591" on="0"/>
        <pt x="694" y="458" on="0"/>
        <pt x="694" y="269" on="0"/>
        <pt x="619" y="118" on="0"/>
        <pt x="500" y="25" on="0"/>
        <pt x="360" y="-25" on="0"/>
        <pt x="291" y="-25" on="1"/>
        <pt x="178" y="-25" on="0"/>
        <pt x="66" y="79" on="0"/>
      </contour>
      <contour>
        <pt x="264" y="91" on="1"/>
        <pt x="375" y="91" on="0"/>
        <pt x="514" y="243" on="0"/>
        <pt x="514" y="337" on="1"/>
        <pt x="514" y="380" on="0"/>
        <pt x="467" y="450" on="0"/>
        <pt x="391" y="450" on="0"/>
        <pt x="326" y="388" on="0"/>
        <pt x="291" y="302" on="0"/>
        <pt x="280" y="248" on="1"/>
        <pt x="264" y="163" on="0"/>
      </contour>
    </TTGlyph>
    <TTGlyph name="backslash" xMin="-20" yMin="-85" xMax="417" yMax="836">
      <contour>
        <pt x="216" y="23" on="1"/>
        <pt x="187" y="125" on="0"/>
        <pt x="95" y="481" on="0"/>
        <pt x="28" y="718" on="0"/>
        <pt x="-20" y="789" on="1"/>
        <pt x="32" y="836" on="0"/>
        <pt x="159" y="836" on="0"/>
        <pt x="175" y="772" on="1"/>
        <pt x="179" y="758" on="0"/>
        <pt x="291" y="282" on="0"/>
        <pt x="376" y="-15" on="0"/>
        <pt x="417" y="-53" on="1"/>
        <pt x="376" y="-85" on="0"/>
        <pt x="327" y="-85" on="1"/>
        <pt x="246" y="-85" on="0"/>
      </contour>
    </TTGlyph>
    <TTGlyph name="bar" xMin="110" yMin="-219" xMax="364" yMax="874">
      <contour>
        <pt x="110" y="-168" on="1"/>
        <pt x="140" y="-97" on="0"/>
        <pt x="151" y="156" on="0"/>
        <pt x="161" y="636" on="0"/>
        <pt x="166" y="758" on="1"/>
        <pt x="168" y="816" on="0"/>
        <pt x="216" y="874" on="0"/>
        <pt x="329" y="874" on="0"/>
        <pt x="364" y="840" on="1"/>
        <pt x="319" y="758" on="0"/>
        <pt x="319" y="379" on="1"/>
        <pt x="319" y="270" on="0"/>
        <pt x="331" y="-64" on="0"/>
        <pt x="331" y="-150" on="1"/>
        <pt x="331" y="-219" on="0"/>
        <pt x="250" y="-219" on="1"/>
        <pt x="156" y="-219" on="0"/>
      </contour>
    </TTGlyph>
    <TTGlyph name="braceleft" xMin="73" yMin="-157" xMax="516" yMax="800">
      <contour>
        <pt x="175" y="301" on="1"/>
        <pt x="160" y="295" on="0"/>
        <pt x="114" y="295" on="0"/>
        <pt x="73" y="331" on="0"/>
        <pt x="73" y="383" on="0"/>
        <pt x="114" y="420" on="0"/>
        <pt x="173" y="420" on="0"/>
        <pt x="194" y="401" on="1"/>
        <pt x="173" y="476" on="0"/>
        <pt x="173" y="581" on="1"/>
        <pt x="173" y="708" on="0"/>
        <pt x="234" y="755" on="1"/>
        <pt x="271" y="784" on="0"/>
        <pt x="310" y="791" on="1"/>
        <pt x="360" y="800" on="0"/>
        <pt x="424" y="800" on="1"/>
        <pt x="516" y="800" on="0"/>
        <pt x="516" y="701" on="1"/>
        <pt x="516" y="666" on="0"/>
        <pt x="511" y="649" on="1"/>
        <pt x="496" y="656" on="0"/>
        <pt x="408" y="668" on="0"/>
        <pt x="381" y="668" on="1"/>
        <pt x="350" y="516" on="0"/>
        <pt x="284" y="389" on="0"/>
        <pt x="227" y="351" on="1"/>
        <pt x="293" y="277" on="0"/>
        <pt x="293" y="163" on="1"/>
        <pt x="293" y="143" on="0"/>
        <pt x="276" y="-25" on="1"/>
        <pt x="303" y="-25" on="0"/>
        <pt x="387" y="-13" on="0"/>
        <pt x="402" y="-6" on="1"/>
        <pt x="409" y="-30" on="0"/>
        <pt x="409" y="-58" on="1"/>
        <pt x="409" y="-157" on="0"/>
        <pt x="332" y="-157" on="1"/>
        <pt x="205" y="-157" on="0"/>
        <pt x="90" y="-80" on="0"/>
        <pt x="90" y="15" on="1"/>
        <pt x="90" y="69" on="0"/>
        <pt x="134" y="227" on="0"/>
      </contour>
    </TTGlyph>
    <TTGlyph name="braceright" xMin="-30" yMin="-157" xMax="413" yMax="800">
      <contour>
        <pt x="310" y="341" on="1"/>
        <pt x="324" y="348" on="0"/>
        <pt x="372" y="348" on="0"/>
        <pt x="413" y="312" on="0"/>
        <pt x="413" y="260" on="0"/>
        <pt x="372" y="223" on="0"/>
        <pt x="312" y="223" on="0"/>
        <pt x="291" y="242" on="1"/>
        <pt x="313" y="167" on="0"/>
        <pt x="313" y="62" on="1"/>
        <pt x="313" y="-65" on="0"/>
        <pt x="252" y="-112" on="1"/>
        <pt x="215" y="-141" on="0"/>
        <pt x="176" y="-148" on="1"/>
        <pt x="126" y="-157" on="0"/>
        <pt x="62" y="-157" on="1"/>
        <pt x="-30" y="-157" on="0"/>
        <pt x="-30" y="-58" on="1"/>
        <pt x="-30" y="-23" on="0"/>
        <pt x="-25" y="-6" on="1"/>
        <pt x="-10" y="-13" on="0"/>
        <pt x="78" y="-25" on="0"/>
        <pt x="105" y="-25" on="1"/>
        <pt x="136" y="127" on="0"/>
        <pt x="202" y="254" on="0"/>
        <pt x="259" y="292" on="1"/>
        <pt x="193" y="366" on="0"/>
        <pt x="193" y="480" on="1"/>
        <pt x="193" y="500" on="0"/>
        <pt x="210" y="668" on="1"/>
        <pt x="183" y="668" on="0"/>
        <pt x="99" y="656" on="0"/>
        <pt x="84" y="649" on="1"/>
        <pt x="77" y="673" on="0"/>
        <pt x="77" y="701" on="1"/>
        <pt x="77" y="800" on="0"/>
        <pt x="154" y="800" on="1"/>
        <pt x="281" y="800" on="0"/>
        <pt x="396" y="723" on="0"/>
        <pt x="396" y="628" on="1"/>
        <pt x="396" y="574" on="0"/>
        <pt x="351" y="415" on="0"/>
      </contour>
    </TTGlyph>
    <TTGlyph name="bracketleft" xMin="85" yMin="-157" xMax="511" yMax="800">
      <contour>
        <pt x="85" y="15" on="1"/>
        <pt x="85" y="231" on="0"/>
        <pt x="163" y="584" on="1"/>
        <pt x="179" y="657" on="0"/>
        <pt x="224" y="745" on="0"/>
        <pt x="295" y="788" on="0"/>
        <pt x="367" y="800" on="0"/>
        <pt x="477" y="800" on="0"/>
        <pt x="511" y="752" on="0"/>
        <pt x="511" y="666" on="0"/>
        <pt x="506" y="649" on="1"/>
        <pt x="491" y="656" on="0"/>
        <pt x="403" y="668" on="0"/>
        <pt x="376" y="668" on="1"/>
        <pt x="317" y="551" on="0"/>
        <pt x="271" y="214" on="0"/>
        <pt x="271" y="-25" on="1"/>
        <pt x="298" y="-25" on="0"/>
        <pt x="382" y="-13" on="0"/>
        <pt x="397" y="-6" on="1"/>
        <pt x="405" y="-33" on="0"/>
        <pt x="405" y="-58" on="1"/>
        <pt x="405" y="-157" on="0"/>
        <pt x="337" y="-157" on="1"/>
        <pt x="260" y="-157" on="0"/>
        <pt x="192" y="-151" on="0"/>
        <pt x="113" y="-120" on="0"/>
        <pt x="85" y="-48" on="0"/>
      </contour>
    </TTGlyph>
    <TTGlyph name="bracketright" xMin="-30" yMin="-157" xMax="396" yMax="800">
      <contour>
        <pt x="396" y="628" on="1"/>
        <pt x="396" y="412" on="0"/>
        <pt x="318" y="59" on="1"/>
        <pt x="302" y="-14" on="0"/>
        <pt x="257" y="-102" on="0"/>
        <pt x="186" y="-145" on="0"/>
        <pt x="114" y="-157" on="0"/>
        <pt x="4" y="-157" on="0"/>
        <pt x="-30" y="-109" on="0"/>
        <pt x="-30" y="-23" on="0"/>
        <pt x="-25" y="-6" on="1"/>
        <pt x="-10" y="-13" on="0"/>
        <pt x="78" y="-25" on="0"/>
        <pt x="105" y="-25" on="1"/>
        <pt x="164" y="92" on="0"/>
        <pt x="210" y="429" on="0"/>
        <pt x="210" y="668" on="1"/>
        <pt x="183" y="668" on="0"/>
        <pt x="99" y="656" on="0"/>
        <pt x="84" y="649" on="1"/>
        <pt x="79" y="666" on="0"/>
        <pt x="79" y="751" on="0"/>
        <pt x="108" y="800" on="0"/>
        <pt x="144" y="800" on="1"/>
        <pt x="221" y="800" on="0"/>
        <pt x="289" y="794" on="0"/>
        <pt x="368" y="763" on="0"/>
        <pt x="396" y="691" on="0"/>
      </contour>
    </TTGlyph>
    <TTGlyph name="breve" xMin="57" yMin="662" xMax="421" yMax="878">
      <contour>
        <pt x="193" y="662" on="1"/>
        <pt x="130" y="662" on="0"/>
        <pt x="57" y="721" on="0"/>
        <pt x="57" y="783" on="1"/>
        <pt x="57" y="823" on="0"/>
        <pt x="67" y="858" on="1"/>
        <pt x="120" y="796" on="0"/>
        <pt x="229" y="796" on="1"/>
        <pt x="279" y="796" on="0"/>
        <pt x="379" y="840" on="0"/>
        <pt x="416" y="878" on="1"/>
        <pt x="421" y="850" on="0"/>
        <pt x="421" y="830" on="1"/>
        <pt x="421" y="748" on="0"/>
        <pt x="281" y="662" on="0"/>
      </contour>
    </TTGlyph>
    <TTGlyph name="brokenbar" xMin="110" yMin="-219" xMax="320" yMax="874">
      <contour>
        <pt x="110" y="443" on="1"/>
        <pt x="125" y="495" on="0"/>
        <pt x="134" y="618" on="0"/>
        <pt x="134" y="747" on="1"/>
        <pt x="134" y="814" on="0"/>
        <pt x="174" y="874" on="0"/>
        <pt x="283" y="874" on="0"/>
        <pt x="320" y="840" on="1"/>
        <pt x="297" y="790" on="0"/>
        <pt x="297" y="667" on="1"/>
        <pt x="297" y="598" on="0"/>
        <pt x="307" y="485" on="0"/>
        <pt x="307" y="460" on="1"/>
        <pt x="307" y="400" on="0"/>
        <pt x="157" y="400" on="0"/>
      </contour>
      <contour>
        <pt x="110" y="-176" on="1"/>
        <pt x="125" y="-124" on="0"/>
        <pt x="134" y="-1" on="0"/>
        <pt x="134" y="128" on="1"/>
        <pt x="134" y="195" on="0"/>
        <pt x="174" y="255" on="0"/>
        <pt x="283" y="255" on="0"/>
        <pt x="320" y="221" on="1"/>
        <pt x="297" y="171" on="0"/>
        <pt x="297" y="48" on="1"/>
        <pt x="297" y="-21" on="0"/>
        <pt x="307" y="-134" on="0"/>
        <pt x="307" y="-159" on="1"/>
        <pt x="307" y="-219" on="0"/>
        <pt x="157" y="-219" on="0"/>
      </contour>
    </TTGlyph>
    <TTGlyph name="bullet" xMin="54" yMin="175" xMax="334" yMax="453">
      <contour>
        <pt x="127" y="175" on="0"/>
        <pt x="54" y="248" on="0"/>
        <pt x="54" y="362" on="0"/>
        <pt x="143" y="453" on="0"/>
        <pt x="260" y="453" on="0"/>
        <pt x="334" y="380" on="0"/>
        <pt x="334" y="266" on="0"/>
        <pt x="244" y="175" on="0"/>
      </contour>
    </TTGlyph>
    <TTGlyph name="c" xMin="45" yMin="-25" xMax="618" yMax="600">
      <contour>
        <pt x="45" y="238" on="1"/>
        <pt x="45" y="398" on="0"/>
        <pt x="265" y="600" on="0"/>
        <pt x="432" y="600" on="1"/>
        <pt x="518" y="600" on="0"/>
        <pt x="618" y="535" on="0"/>
        <pt x="618" y="437" on="0"/>
        <pt x="551" y="385" on="0"/>
        <pt x="472" y="385" on="0"/>
        <pt x="407" y="427" on="0"/>
        <pt x="389" y="467" on="1"/>
        <pt x="326" y="441" on="0"/>
        <pt x="253" y="309" on="0"/>
        <pt x="253" y="177" on="0"/>
        <pt x="305" y="95" on="0"/>
        <pt x="389" y="95" on="0"/>
        <pt x="442" y="151" on="0"/>
        <pt x="442" y="206" on="1"/>
        <pt x="588" y="206" on="0"/>
        <pt x="588" y="137" on="1"/>
        <pt x="588" y="78" on="0"/>
        <pt x="440" y="-25" on="0"/>
        <pt x="198" y="-25" on="0"/>
        <pt x="45" y="120" on="0"/>
      </contour>
    </TTGlyph>
    <TTGlyph name="caron" xMin="95" yMin="634" xMax="501" yMax="858">
      <contour>
        <pt x="393" y="661" on="1"/>
        <pt x="337" y="634" on="0"/>
        <pt x="246" y="634" on="1"/>
        <pt x="126" y="634" on="0"/>
        <pt x="126" y="691" on="1"/>
        <pt x="126" y="774" on="1"/>
        <pt x="126" y="817" on="0"/>
        <pt x="95" y="839" on="1"/>
        <pt x="142" y="858" on="0"/>
        <pt x="189" y="858" on="1"/>
        <pt x="270" y="858" on="0"/>
        <pt x="270" y="783" on="1"/>
        <pt x="270" y="764" on="0"/>
        <pt x="259" y="696" on="1"/>
        <pt x="289" y="696" on="1"/>
        <pt x="330" y="739" on="0"/>
        <pt x="330" y="805" on="1"/>
        <pt x="330" y="816" on="0"/>
        <pt x="328" y="840" on="1"/>
        <pt x="375" y="858" on="0"/>
        <pt x="424" y="858" on="1"/>
        <pt x="501" y="858" on="0"/>
        <pt x="501" y="819" on="1"/>
        <pt x="501" y="782" on="0"/>
        <pt x="436" y="710" on="1"/>
        <pt x="428" y="700" on="0"/>
        <pt x="396" y="664" on="0"/>
      </contour>
    </TTGlyph>
    <TTGlyph name="ccedilla" xMin="39" yMin="-287" xMax="618" yMax="600">
      <component glyphName="c" x="0" y="0" flags="0x1004"/>
      <component glyphName="cedilla" x="-32" y="0" flags="0x1004"/>
    </TTGlyph>
    <TTGlyph name="cedilla" xMin="71" yMin="-287" xMax="431" yMax="28">
      <contour>
        <pt x="183" y="28" on="1"/>
        <pt x="257" y="28" on="1"/>
        <pt x="341" y="28" on="0"/>
        <pt x="431" y="-53" on="0"/>
        <pt x="431" y="-180" on="0"/>
        <pt x="317" y="-287" on="0"/>
        <pt x="144" y="-287" on="0"/>
        <pt x="71" y="-222" on="0"/>
        <pt x="71" y="-130" on="0"/>
        <pt x="147" y="-60" on="0"/>
        <pt x="205" y="-60" on="1"/>
        <pt x="177" y="-85" on="0"/>
        <pt x="177" y="-130" on="1"/>
        <pt x="177" y="-158" on="0"/>
        <pt x="206" y="-188" on="0"/>
        <pt x="258" y="-188" on="0"/>
        <pt x="308" y="-138" on="0"/>
        <pt x="308" y="-57" on="0"/>
        <pt x="244" y="15" on="0"/>
      </contour>
    </TTGlyph>
    <TTGlyph name="cent" xMin="64" yMin="-135" xMax="599" yMax="794">
      <contour>
        <pt x="278" y="-135" on="1"/>
        <pt x="246" y="-135" on="0"/>
        <pt x="246" y="-24" on="0"/>
        <pt x="273" y="62" on="1"/>
        <pt x="175" y="77" on="0"/>
        <pt x="64" y="201" on="0"/>
        <pt x="64" y="293" on="1"/>
        <pt x="64" y="419" on="0"/>
        <pt x="225" y="594" on="0"/>
        <pt x="354" y="615" on="1"/>
        <pt x="366" y="670" on="0"/>
        <pt x="366" y="724" on="0"/>
        <pt x="364" y="740" on="1"/>
        <pt x="418" y="794" on="0"/>
        <pt x="450" y="794" on="1"/>
        <pt x="479" y="794" on="0"/>
        <pt x="479" y="698" on="0"/>
        <pt x="454" y="620" on="1"/>
        <pt x="594" y="611" on="0"/>
        <pt x="594" y="515" on="1"/>
        <pt x="594" y="470" on="0"/>
        <pt x="569" y="416" on="1"/>
        <pt x="507" y="455" on="0"/>
        <pt x="409" y="455" on="1"/>
        <pt x="370" y="455" on="0"/>
        <pt x="339" y="450" on="1"/>
        <pt x="313" y="427" on="0"/>
        <pt x="281" y="340" on="0"/>
        <pt x="281" y="248" on="0"/>
        <pt x="322" y="184" on="0"/>
        <pt x="394" y="184" on="0"/>
        <pt x="446" y="244" on="0"/>
        <pt x="448" y="299" on="1"/>
        <pt x="599" y="296" on="0"/>
        <pt x="599" y="246" on="1"/>
        <pt x="599" y="184" on="0"/>
        <pt x="471" y="71" on="0"/>
        <pt x="371" y="60" on="1"/>
        <pt x="358" y="0" on="0"/>
        <pt x="358" y="-68" on="0"/>
        <pt x="362" y="-83" on="1"/>
        <pt x="313" y="-135" on="0"/>
      </contour>
    </TTGlyph>
    <TTGlyph name="circumflex" xMin="80" yMin="644" xMax="495" yMax="868">
      <contour>
        <pt x="491" y="831" on="1"/>
        <pt x="481" y="708" on="1"/>
        <pt x="481" y="676" on="0"/>
        <pt x="495" y="652" on="1"/>
        <pt x="464" y="644" on="0"/>
        <pt x="369" y="644" on="0"/>
        <pt x="328" y="686" on="0"/>
        <pt x="328" y="726" on="1"/>
        <pt x="328" y="741" on="0"/>
        <pt x="335" y="806" on="1"/>
        <pt x="309" y="806" on="1"/>
        <pt x="249" y="732" on="0"/>
        <pt x="249" y="656" on="1"/>
        <pt x="194" y="644" on="0"/>
        <pt x="80" y="644" on="0"/>
        <pt x="80" y="663" on="1"/>
        <pt x="80" y="705" on="0"/>
        <pt x="204" y="843" on="1"/>
        <pt x="221" y="853" on="0"/>
        <pt x="323" y="868" on="0"/>
        <pt x="374" y="868" on="1"/>
        <pt x="491" y="868" on="0"/>
      </contour>
    </TTGlyph>
    <TTGlyph name="colon" xMin="50" yMin="-25" xMax="330" yMax="560">
      <component glyphName="period" x="0" y="0" flags="0x1004"/>
      <component glyphName="period" x="47" y="353" flags="0x1004"/>
    </TTGlyph>
    <TTGlyph name="comma" xMin="12" yMin="-196" xMax="284" yMax="208">
      <contour>
        <pt x="118" y="-2" on="1"/>
        <pt x="48" y="88" on="1"/>
        <pt x="50" y="136" on="0"/>
        <pt x="126" y="208" on="0"/>
        <pt x="226" y="208" on="0"/>
        <pt x="284" y="140" on="0"/>
        <pt x="284" y="93" on="1"/>
        <pt x="284" y="-11" on="0"/>
        <pt x="144" y="-172" on="0"/>
        <pt x="27" y="-196" on="1"/>
        <pt x="12" y="-152" on="1"/>
        <pt x="59" y="-130" on="0"/>
        <pt x="118" y="-41" on="0"/>
      </contour>
    </TTGlyph>
    <TTGlyph name="copyright" xMin="85" yMin="150" xMax="811" yMax="896">
      <contour>
        <pt x="154" y="357" on="0"/>
        <pt x="308" y="213" on="0"/>
        <pt x="523" y="213" on="0"/>
        <pt x="678" y="310" on="0"/>
        <pt x="756" y="459" on="0"/>
        <pt x="756" y="543" on="1"/>
        <pt x="756" y="648" on="0"/>
        <pt x="610" y="815" on="0"/>
        <pt x="337" y="815" on="0"/>
        <pt x="154" y="647" on="0"/>
      </contour>
      <contour>
        <pt x="592" y="182" on="0"/>
        <pt x="481" y="150" on="0"/>
        <pt x="358" y="150" on="0"/>
        <pt x="238" y="193" on="0"/>
        <pt x="142" y="276" on="0"/>
        <pt x="85" y="410" on="0"/>
        <pt x="85" y="493" on="1"/>
        <pt x="85" y="675" on="0"/>
        <pt x="333" y="896" on="0"/>
        <pt x="537" y="896" on="1"/>
        <pt x="602" y="896" on="0"/>
        <pt x="646" y="861" on="0"/>
        <pt x="650" y="818" on="1"/>
        <pt x="730" y="775" on="0"/>
        <pt x="811" y="630" on="0"/>
        <pt x="811" y="470" on="0"/>
        <pt x="767" y="340" on="0"/>
        <pt x="692" y="247" on="0"/>
      </contour>
      <contour>
        <pt x="363" y="321" on="0"/>
        <pt x="275" y="410" on="0"/>
        <pt x="275" y="578" on="0"/>
        <pt x="406" y="718" on="0"/>
        <pt x="514" y="718" on="1"/>
        <pt x="559" y="718" on="0"/>
        <pt x="616" y="681" on="0"/>
        <pt x="616" y="615" on="0"/>
        <pt x="573" y="579" on="0"/>
        <pt x="542" y="579" on="1"/>
        <pt x="488" y="579" on="0"/>
        <pt x="460" y="625" on="1"/>
        <pt x="432" y="611" on="0"/>
        <pt x="390" y="530" on="0"/>
        <pt x="390" y="450" on="0"/>
        <pt x="417" y="402" on="0"/>
        <pt x="466" y="402" on="0"/>
        <pt x="503" y="452" on="0"/>
        <pt x="503" y="487" on="1"/>
        <pt x="557" y="487" on="0"/>
        <pt x="603" y="470" on="0"/>
        <pt x="603" y="442" on="1"/>
        <pt x="603" y="398" on="0"/>
        <pt x="508" y="321" on="0"/>
      </contour>
    </TTGlyph>
    <TTGlyph name="d" xMin="45" yMin="-25" xMax="723" yMax="775">
      <contour>
        <pt x="432" y="73" on="1"/>
        <pt x="422" y="78" on="1"/>
        <pt x="344" y="-25" on="0"/>
        <pt x="236" y="-25" on="1"/>
        <pt x="156" y="-25" on="0"/>
        <pt x="45" y="102" on="0"/>
        <pt x="45" y="210" on="1"/>
        <pt x="45" y="344" on="0"/>
        <pt x="139" y="454" on="1"/>
        <pt x="185" y="508" on="0"/>
        <pt x="339" y="575" on="0"/>
        <pt x="434" y="575" on="1"/>
        <pt x="452" y="575" on="0"/>
        <pt x="498" y="571" on="1"/>
        <pt x="500" y="592" on="0"/>
        <pt x="507" y="622" on="1"/>
        <pt x="451" y="702" on="1"/>
        <pt x="576" y="775" on="0"/>
        <pt x="648" y="775" on="1"/>
        <pt x="689" y="775" on="0"/>
        <pt x="723" y="742" on="0"/>
        <pt x="723" y="651" on="0"/>
        <pt x="634" y="229" on="0"/>
        <pt x="634" y="52" on="0"/>
        <pt x="665" y="24" on="1"/>
        <pt x="609" y="-25" on="0"/>
        <pt x="488" y="-25" on="0"/>
        <pt x="432" y="36" on="0"/>
      </contour>
      <contour>
        <pt x="233" y="248" on="1"/>
        <pt x="233" y="191" on="0"/>
        <pt x="292" y="125" on="0"/>
        <pt x="336" y="125" on="1"/>
        <pt x="393" y="125" on="0"/>
        <pt x="440" y="179" on="1"/>
        <pt x="456" y="357" on="0"/>
        <pt x="485" y="487" on="1"/>
        <pt x="370" y="487" on="0"/>
        <pt x="233" y="339" on="0"/>
      </contour>
    </TTGlyph>
    <TTGlyph name="dagger" xMin="50" yMin="-219" xMax="693" yMax="874">
      <contour>
        <pt x="94" y="428" on="1"/>
        <pt x="50" y="428" on="0"/>
        <pt x="50" y="550" on="0"/>
        <pt x="84" y="603" on="1"/>
        <pt x="133" y="585" on="0"/>
        <pt x="214" y="585" on="1"/>
        <pt x="299" y="585" on="1"/>
        <pt x="321" y="758" on="1"/>
        <pt x="328" y="816" on="0"/>
        <pt x="376" y="874" on="0"/>
        <pt x="482" y="874" on="0"/>
        <pt x="537" y="840" on="1"/>
        <pt x="516" y="807" on="0"/>
        <pt x="486" y="712" on="0"/>
        <pt x="476" y="645" on="0"/>
        <pt x="469" y="589" on="1"/>
        <pt x="563" y="591" on="0"/>
        <pt x="609" y="591" on="1"/>
        <pt x="693" y="591" on="0"/>
        <pt x="693" y="515" on="1"/>
        <pt x="693" y="468" on="0"/>
        <pt x="673" y="433" on="1"/>
        <pt x="630" y="452" on="0"/>
        <pt x="506" y="452" on="0"/>
        <pt x="453" y="449" on="1"/>
        <pt x="443" y="347" on="0"/>
        <pt x="408" y="-84" on="0"/>
        <pt x="399" y="-150" on="1"/>
        <pt x="390" y="-219" on="0"/>
        <pt x="239" y="-219" on="0"/>
        <pt x="170" y="-168" on="1"/>
        <pt x="210" y="-94" on="0"/>
        <pt x="231" y="49" on="1"/>
        <pt x="258" y="241" on="0"/>
        <pt x="281" y="436" on="1"/>
        <pt x="155" y="428" on="0"/>
      </contour>
    </TTGlyph>
    <TTGlyph name="daggerdbl" xMin="21" yMin="-219" xMax="693" yMax="874">
      <contour>
        <pt x="65" y="57" on="1"/>
        <pt x="21" y="57" on="0"/>
        <pt x="21" y="179" on="0"/>
        <pt x="55" y="232" on="1"/>
        <pt x="104" y="214" on="0"/>
        <pt x="253" y="214" on="1"/>
        <pt x="281" y="436" on="1"/>
        <pt x="155" y="428" on="0"/>
        <pt x="94" y="428" on="1"/>
        <pt x="50" y="428" on="0"/>
        <pt x="50" y="550" on="0"/>
        <pt x="84" y="603" on="1"/>
        <pt x="133" y="585" on="0"/>
        <pt x="299" y="585" on="1"/>
        <pt x="321" y="758" on="1"/>
        <pt x="328" y="816" on="0"/>
        <pt x="376" y="874" on="0"/>
        <pt x="482" y="874" on="0"/>
        <pt x="537" y="840" on="1"/>
        <pt x="516" y="807" on="0"/>
        <pt x="486" y="712" on="0"/>
        <pt x="476" y="645" on="0"/>
        <pt x="469" y="589" on="1"/>
        <pt x="563" y="591" on="0"/>
        <pt x="609" y="591" on="1"/>
        <pt x="693" y="591" on="0"/>
        <pt x="693" y="515" on="1"/>
        <pt x="693" y="468" on="0"/>
        <pt x="673" y="433" on="1"/>
        <pt x="630" y="452" on="0"/>
        <pt x="506" y="452" on="0"/>
        <pt x="453" y="449" on="1"/>
        <pt x="448" y="404" on="0"/>
        <pt x="434" y="239" on="0"/>
        <pt x="432" y="218" on="1"/>
        <pt x="532" y="220" on="0"/>
        <pt x="580" y="220" on="1"/>
        <pt x="664" y="220" on="0"/>
        <pt x="664" y="144" on="1"/>
        <pt x="664" y="97" on="0"/>
        <pt x="644" y="62" on="1"/>
        <pt x="601" y="81" on="0"/>
        <pt x="475" y="81" on="0"/>
        <pt x="421" y="78" on="1"/>
        <pt x="406" y="-92" on="0"/>
        <pt x="399" y="-150" on="1"/>
        <pt x="390" y="-219" on="0"/>
        <pt x="239" y="-219" on="0"/>
        <pt x="170" y="-168" on="1"/>
        <pt x="195" y="-118" on="0"/>
        <pt x="205" y="-78" on="1"/>
        <pt x="216" y="-30" on="0"/>
        <pt x="233" y="64" on="1"/>
        <pt x="135" y="57" on="0"/>
      </contour>
    </TTGlyph>
    <TTGlyph name="degree" xMin="50" yMin="467" xMax="470" yMax="844">
      <contour>
        <pt x="470" y="589" on="0"/>
        <pt x="337" y="467" on="0"/>
        <pt x="149" y="467" on="0"/>
        <pt x="50" y="554" on="0"/>
        <pt x="50" y="625" on="1"/>
        <pt x="50" y="722" on="0"/>
        <pt x="183" y="844" on="0"/>
        <pt x="371" y="844" on="0"/>
        <pt x="470" y="757" on="0"/>
        <pt x="470" y="686" on="1"/>
      </contour>
      <contour>
        <pt x="241" y="553" on="1"/>
        <pt x="275" y="553" on="0"/>
        <pt x="329" y="637" on="0"/>
        <pt x="329" y="690" on="1"/>
        <pt x="329" y="756" on="0"/>
        <pt x="264" y="756" on="1"/>
        <pt x="256" y="756" on="0"/>
        <pt x="234" y="754" on="1"/>
        <pt x="189" y="697" on="0"/>
        <pt x="189" y="631" on="1"/>
        <pt x="189" y="598" on="0"/>
        <pt x="217" y="553" on="0"/>
      </contour>
    </TTGlyph>
    <TTGlyph name="dieresis" xMin="86" yMin="666" xMax="606" yMax="849">
      <contour>
        <pt x="606" y="726" on="0"/>
        <pt x="532" y="666" on="0"/>
        <pt x="440" y="666" on="0"/>
        <pt x="387" y="706" on="0"/>
        <pt x="387" y="741" on="1"/>
        <pt x="387" y="792" on="0"/>
        <pt x="466" y="849" on="0"/>
        <pt x="553" y="849" on="0"/>
        <pt x="606" y="808" on="0"/>
      </contour>
      <contour>
        <pt x="305" y="726" on="0"/>
        <pt x="231" y="666" on="0"/>
        <pt x="139" y="666" on="0"/>
        <pt x="86" y="706" on="0"/>
        <pt x="86" y="741" on="1"/>
        <pt x="86" y="792" on="0"/>
        <pt x="165" y="849" on="0"/>
        <pt x="252" y="849" on="0"/>
        <pt x="305" y="808" on="0"/>
      </contour>
    </TTGlyph>
    <TTGlyph name="divide" xMin="100" yMin="11" xMax="633" yMax="693">
      <contour>
        <pt x="289" y="11" on="0"/>
        <pt x="240" y="60" on="0"/>
        <pt x="240" y="136" on="0"/>
        <pt x="299" y="197" on="0"/>
        <pt x="378" y="197" on="0"/>
        <pt x="426" y="148" on="0"/>
        <pt x="426" y="72" on="0"/>
        <pt x="367" y="11" on="0"/>
      </contour>
      <contour>
        <pt x="336" y="507" on="0"/>
        <pt x="287" y="556" on="0"/>
        <pt x="287" y="632" on="0"/>
        <pt x="346" y="693" on="0"/>
        <pt x="424" y="693" on="0"/>
        <pt x="473" y="644" on="0"/>
        <pt x="473" y="568" on="0"/>
        <pt x="414" y="507" on="0"/>
      </contour>
      <contour>
        <pt x="259" y="440" on="1"/>
        <pt x="554" y="446" on="1"/>
        <pt x="633" y="446" on="0"/>
        <pt x="633" y="370" on="1"/>
        <pt x="633" y="326" on="0"/>
        <pt x="615" y="291" on="1"/>
        <pt x="576" y="307" on="0"/>
        <pt x="441" y="307" on="0"/>
        <pt x="199" y="283" on="0"/>
        <pt x="139" y="283" on="1"/>
        <pt x="100" y="283" on="0"/>
        <pt x="100" y="411" on="0"/>
        <pt x="131" y="457" on="1"/>
        <pt x="185" y="440" on="0"/>
      </contour>
    </TTGlyph>
    <TTGlyph name="dollar" xMin="62" yMin="-194" xMax="663" yMax="853">
      <contour>
        <pt x="156" y="5" on="0"/>
        <pt x="62" y="78" on="0"/>
        <pt x="62" y="200" on="0"/>
        <pt x="91" y="258" on="1"/>
        <pt x="126" y="220" on="0"/>
        <pt x="247" y="167" on="0"/>
        <pt x="304" y="167" on="1"/>
        <pt x="387" y="167" on="0"/>
        <pt x="406" y="222" on="1"/>
        <pt x="328" y="233" on="0"/>
        <pt x="211" y="279" on="0"/>
        <pt x="149" y="328" on="0"/>
        <pt x="112" y="388" on="0"/>
        <pt x="103" y="428" on="0"/>
        <pt x="103" y="448" on="1"/>
        <pt x="103" y="552" on="0"/>
        <pt x="245" y="658" on="0"/>
        <pt x="353" y="670" on="1"/>
        <pt x="366" y="725" on="0"/>
        <pt x="366" y="783" on="0"/>
        <pt x="364" y="799" on="1"/>
        <pt x="418" y="853" on="0"/>
        <pt x="450" y="853" on="1"/>
        <pt x="479" y="853" on="0"/>
        <pt x="479" y="751" on="0"/>
        <pt x="452" y="673" on="1"/>
        <pt x="661" y="665" on="0"/>
        <pt x="661" y="556" on="1"/>
        <pt x="661" y="499" on="0"/>
        <pt x="636" y="455" on="1"/>
        <pt x="573" y="496" on="0"/>
        <pt x="445" y="496" on="1"/>
        <pt x="345" y="496" on="0"/>
        <pt x="339" y="433" on="1"/>
        <pt x="473" y="407" on="0"/>
        <pt x="583" y="360" on="0"/>
        <pt x="608" y="337" on="1"/>
        <pt x="663" y="286" on="0"/>
        <pt x="663" y="209" on="1"/>
        <pt x="663" y="117" on="0"/>
        <pt x="492" y="9" on="0"/>
        <pt x="371" y="-1" on="1"/>
        <pt x="358" y="-58" on="0"/>
        <pt x="358" y="-127" on="0"/>
        <pt x="362" y="-142" on="1"/>
        <pt x="313" y="-194" on="0"/>
        <pt x="278" y="-194" on="1"/>
        <pt x="246" y="-194" on="0"/>
        <pt x="246" y="-84" on="0"/>
        <pt x="271" y="-1" on="1"/>
      </contour>
    </TTGlyph>
    <TTGlyph name="dotaccent" xMin="70" yMin="648" xMax="336" yMax="883">
      <contour>
        <pt x="336" y="725" on="0"/>
        <pt x="250" y="648" on="0"/>
        <pt x="131" y="648" on="0"/>
        <pt x="70" y="700" on="0"/>
        <pt x="70" y="743" on="1"/>
        <pt x="70" y="805" on="0"/>
        <pt x="156" y="883" on="0"/>
        <pt x="275" y="883" on="0"/>
        <pt x="336" y="830" on="0"/>
        <pt x="336" y="787" on="1"/>
      </contour>
    </TTGlyph>
    <TTGlyph name="dotlessi" xMin="65" yMin="-25" xMax="345" yMax="600">
      <contour>
        <pt x="121" y="-25" on="0"/>
        <pt x="65" y="37" on="0"/>
        <pt x="65" y="164" on="0"/>
        <pt x="129" y="441" on="1"/>
        <pt x="73" y="525" on="1"/>
        <pt x="198" y="600" on="0"/>
        <pt x="270" y="600" on="1"/>
        <pt x="311" y="600" on="0"/>
        <pt x="345" y="565" on="0"/>
        <pt x="345" y="526" on="1"/>
        <pt x="345" y="511" on="0"/>
        <pt x="271" y="189" on="0"/>
        <pt x="271" y="51" on="0"/>
        <pt x="302" y="24" on="1"/>
        <pt x="246" y="-25" on="0"/>
      </contour>
    </TTGlyph>
    <TTGlyph name="e" xMin="45" yMin="-25" xMax="622" yMax="600">
      <contour>
        <pt x="331" y="-25" on="1"/>
        <pt x="194" y="-25" on="0"/>
        <pt x="45" y="117" on="0"/>
        <pt x="45" y="238" on="1"/>
        <pt x="45" y="399" on="0"/>
        <pt x="266" y="600" on="0"/>
        <pt x="433" y="600" on="1"/>
        <pt x="526" y="600" on="0"/>
        <pt x="622" y="517" on="0"/>
        <pt x="622" y="449" on="1"/>
        <pt x="622" y="356" on="0"/>
        <pt x="441" y="233" on="0"/>
        <pt x="252" y="232" on="1"/>
        <pt x="255" y="168" on="0"/>
        <pt x="307" y="95" on="0"/>
        <pt x="385" y="95" on="0"/>
        <pt x="442" y="147" on="0"/>
        <pt x="442" y="206" on="1"/>
        <pt x="588" y="206" on="0"/>
        <pt x="588" y="137" on="1"/>
        <pt x="588" y="78" on="0"/>
        <pt x="444" y="-25" on="0"/>
      </contour>
      <contour>
        <pt x="416" y="483" on="1"/>
        <pt x="365" y="483" on="0"/>
        <pt x="280" y="381" on="0"/>
        <pt x="261" y="312" on="1"/>
        <pt x="361" y="320" on="0"/>
        <pt x="462" y="395" on="0"/>
        <pt x="462" y="437" on="1"/>
        <pt x="462" y="457" on="0"/>
        <pt x="437" y="483" on="0"/>
      </contour>
    </TTGlyph>
    <TTGlyph name="eacute" xMin="45" yMin="-25" xMax="622" yMax="886">
      <contour>
        <pt x="331" y="-25" on="1"/>
        <pt x="194" y="-25" on="0"/>
        <pt x="45" y="117" on="0"/>
        <pt x="45" y="238" on="1"/>
        <pt x="45" y="399" on="0"/>
        <pt x="266" y="600" on="0"/>
        <pt x="433" y="600" on="1"/>
        <pt x="526" y="600" on="0"/>
        <pt x="622" y="517" on="0"/>
        <pt x="622" y="449" on="1"/>
        <pt x="622" y="356" on="0"/>
        <pt x="441" y="233" on="0"/>
        <pt x="252" y="232" on="1"/>
        <pt x="255" y="168" on="0"/>
        <pt x="307" y="95" on="0"/>
        <pt x="385" y="95" on="0"/>
        <pt x="442" y="147" on="0"/>
        <pt x="442" y="206" on="1"/>
        <pt x="588" y="206" on="0"/>
        <pt x="588" y="137" on="1"/>
        <pt x="588" y="78" on="0"/>
        <pt x="444" y="-25" on="0"/>
      </contour>
      <contour>
        <pt x="416" y="483" on="1"/>
        <pt x="365" y="483" on="0"/>
        <pt x="280" y="381" on="0"/>
        <pt x="261" y="312" on="1"/>
        <pt x="361" y="320" on="0"/>
        <pt x="462" y="395" on="0"/>
        <pt x="462" y="437" on="1"/>
        <pt x="462" y="457" on="0"/>
        <pt x="437" y="483" on="0"/>
      </contour>
      <contour>
        <pt x="284" y="653" on="1"/>
        <pt x="262" y="653" on="0"/>
        <pt x="231" y="690" on="0"/>
        <pt x="228" y="729" on="1"/>
        <pt x="271" y="739" on="0"/>
        <pt x="376" y="819" on="0"/>
        <pt x="471" y="886" on="0"/>
        <pt x="508" y="886" on="1"/>
        <pt x="564" y="886" on="0"/>
        <pt x="564" y="791" on="1"/>
        <pt x="564" y="752" on="0"/>
        <pt x="554" y="718" on="1"/>
        <pt x="540" y="720" on="0"/>
        <pt x="531" y="720" on="1"/>
        <pt x="485" y="720" on="0"/>
        <pt x="326" y="653" on="0"/>
      </contour>
    </TTGlyph>
    <TTGlyph name="ecircumflex" xMin="45" yMin="-25" xMax="622" yMax="868">
      <contour>
        <pt x="331" y="-25" on="1"/>
        <pt x="194" y="-25" on="0"/>
        <pt x="45" y="117" on="0"/>
        <pt x="45" y="238" on="1"/>
        <pt x="45" y="399" on="0"/>
        <pt x="266" y="600" on="0"/>
        <pt x="433" y="600" on="1"/>
        <pt x="526" y="600" on="0"/>
        <pt x="622" y="517" on="0"/>
        <pt x="622" y="449" on="1"/>
        <pt x="622" y="356" on="0"/>
        <pt x="441" y="233" on="0"/>
        <pt x="252" y="232" on="1"/>
        <pt x="255" y="168" on="0"/>
        <pt x="307" y="95" on="0"/>
        <pt x="385" y="95" on="0"/>
        <pt x="442" y="147" on="0"/>
        <pt x="442" y="206" on="1"/>
        <pt x="588" y="206" on="0"/>
        <pt x="588" y="137" on="1"/>
        <pt x="588" y="78" on="0"/>
        <pt x="444" y="-25" on="0"/>
      </contour>
      <contour>
        <pt x="416" y="483" on="1"/>
        <pt x="365" y="483" on="0"/>
        <pt x="280" y="381" on="0"/>
        <pt x="261" y="312" on="1"/>
        <pt x="361" y="320" on="0"/>
        <pt x="462" y="395" on="0"/>
        <pt x="462" y="437" on="1"/>
        <pt x="462" y="457" on="0"/>
        <pt x="437" y="483" on="0"/>
      </contour>
      <contour>
        <pt x="597" y="831" on="1"/>
        <pt x="587" y="708" on="1"/>
        <pt x="587" y="676" on="0"/>
        <pt x="601" y="652" on="1"/>
        <pt x="570" y="644" on="0"/>
        <pt x="475" y="644" on="0"/>
        <pt x="434" y="686" on="0"/>
        <pt x="434" y="726" on="1"/>
        <pt x="434" y="741" on="0"/>
        <pt x="441" y="806" on="1"/>
        <pt x="415" y="806" on="1"/>
        <pt x="355" y="732" on="0"/>
        <pt x="355" y="656" on="1"/>
        <pt x="300" y="644" on="0"/>
        <pt x="186" y="644" on="0"/>
        <pt x="186" y="663" on="1"/>
        <pt x="186" y="705" on="0"/>
        <pt x="310" y="843" on="1"/>
        <pt x="327" y="853" on="0"/>
        <pt x="429" y="868" on="0"/>
        <pt x="480" y="868" on="1"/>
        <pt x="597" y="868" on="0"/>
      </contour>
    </TTGlyph>
    <TTGlyph name="edieresis" xMin="45" yMin="-25" xMax="676" yMax="849">
      <contour>
        <pt x="331" y="-25" on="1"/>
        <pt x="194" y="-25" on="0"/>
        <pt x="45" y="117" on="0"/>
        <pt x="45" y="238" on="1"/>
        <pt x="45" y="399" on="0"/>
        <pt x="266" y="600" on="0"/>
        <pt x="433" y="600" on="1"/>
        <pt x="526" y="600" on="0"/>
        <pt x="622" y="517" on="0"/>
        <pt x="622" y="449" on="1"/>
        <pt x="622" y="356" on="0"/>
        <pt x="441" y="233" on="0"/>
        <pt x="252" y="232" on="1"/>
        <pt x="255" y="168" on="0"/>
        <pt x="307" y="95" on="0"/>
        <pt x="385" y="95" on="0"/>
        <pt x="442" y="147" on="0"/>
        <pt x="442" y="206" on="1"/>
        <pt x="588" y="206" on="0"/>
        <pt x="588" y="137" on="1"/>
        <pt x="588" y="78" on="0"/>
        <pt x="444" y="-25" on="0"/>
      </contour>
      <contour>
        <pt x="416" y="483" on="1"/>
        <pt x="365" y="483" on="0"/>
        <pt x="280" y="381" on="0"/>
        <pt x="261" y="312" on="1"/>
        <pt x="361" y="320" on="0"/>
        <pt x="462" y="395" on="0"/>
        <pt x="462" y="437" on="1"/>
        <pt x="462" y="457" on="0"/>
        <pt x="437" y="483" on="0"/>
      </contour>
      <contour>
        <pt x="676" y="726" on="0"/>
        <pt x="602" y="666" on="0"/>
        <pt x="510" y="666" on="0"/>
        <pt x="457" y="706" on="0"/>
        <pt x="457" y="741" on="1"/>
        <pt x="457" y="792" on="0"/>
        <pt x="536" y="849" on="0"/>
        <pt x="623" y="849" on="0"/>
        <pt x="676" y="808" on="0"/>
      </contour>
      <contour>
        <pt x="375" y="726" on="0"/>
        <pt x="301" y="666" on="0"/>
        <pt x="209" y="666" on="0"/>
        <pt x="156" y="706" on="0"/>
        <pt x="156" y="741" on="1"/>
        <pt x="156" y="792" on="0"/>
        <pt x="235" y="849" on="0"/>
        <pt x="322" y="849" on="0"/>
        <pt x="375" y="808" on="0"/>
      </contour>
    </TTGlyph>
    <TTGlyph name="egrave" xMin="45" yMin="-25" xMax="622" yMax="886">
      <contour>
        <pt x="331" y="-25" on="1"/>
        <pt x="194" y="-25" on="0"/>
        <pt x="45" y="117" on="0"/>
        <pt x="45" y="238" on="1"/>
        <pt x="45" y="399" on="0"/>
        <pt x="266" y="600" on="0"/>
        <pt x="433" y="600" on="1"/>
        <pt x="526" y="600" on="0"/>
        <pt x="622" y="517" on="0"/>
        <pt x="622" y="449" on="1"/>
        <pt x="622" y="356" on="0"/>
        <pt x="441" y="233" on="0"/>
        <pt x="252" y="232" on="1"/>
        <pt x="255" y="168" on="0"/>
        <pt x="307" y="95" on="0"/>
        <pt x="385" y="95" on="0"/>
        <pt x="442" y="147" on="0"/>
        <pt x="442" y="206" on="1"/>
        <pt x="588" y="206" on="0"/>
        <pt x="588" y="137" on="1"/>
        <pt x="588" y="78" on="0"/>
        <pt x="444" y="-25" on="0"/>
      </contour>
      <contour>
        <pt x="416" y="483" on="1"/>
        <pt x="365" y="483" on="0"/>
        <pt x="280" y="381" on="0"/>
        <pt x="261" y="312" on="1"/>
        <pt x="361" y="320" on="0"/>
        <pt x="462" y="395" on="0"/>
        <pt x="462" y="437" on="1"/>
        <pt x="462" y="457" on="0"/>
        <pt x="437" y="483" on="0"/>
      </contour>
      <contour>
        <pt x="518" y="653" on="1"/>
        <pt x="476" y="653" on="0"/>
        <pt x="317" y="720" on="0"/>
        <pt x="271" y="720" on="1"/>
        <pt x="262" y="720" on="0"/>
        <pt x="248" y="718" on="1"/>
        <pt x="238" y="752" on="0"/>
        <pt x="238" y="791" on="1"/>
        <pt x="238" y="886" on="0"/>
        <pt x="294" y="886" on="1"/>
        <pt x="331" y="886" on="0"/>
        <pt x="426" y="819" on="0"/>
        <pt x="531" y="739" on="0"/>
        <pt x="574" y="729" on="1"/>
        <pt x="571" y="690" on="0"/>
        <pt x="540" y="653" on="0"/>
      </contour>
    </TTGlyph>
    <TTGlyph name="eight" xMin="51" yMin="-26" xMax="648" yMax="773">
      <contour>
        <pt x="51" y="224" on="0"/>
        <pt x="134" y="337" on="0"/>
        <pt x="203" y="378" on="1"/>
        <pt x="169" y="410" on="0"/>
        <pt x="131" y="452" on="0"/>
        <pt x="95" y="521" on="0"/>
        <pt x="95" y="556" on="1"/>
        <pt x="95" y="654" on="0"/>
        <pt x="254" y="773" on="0"/>
        <pt x="386" y="773" on="1"/>
        <pt x="460" y="773" on="0"/>
        <pt x="564" y="737" on="0"/>
        <pt x="590" y="707" on="1"/>
        <pt x="636" y="652" on="0"/>
        <pt x="636" y="532" on="0"/>
        <pt x="566" y="435" on="0"/>
        <pt x="509" y="400" on="1"/>
        <pt x="570" y="358" on="0"/>
        <pt x="648" y="251" on="0"/>
        <pt x="648" y="197" on="1"/>
        <pt x="648" y="97" on="0"/>
        <pt x="459" y="-26" on="0"/>
        <pt x="316" y="-26" on="1"/>
        <pt x="237" y="-26" on="0"/>
        <pt x="126" y="11" on="0"/>
        <pt x="100" y="42" on="1"/>
        <pt x="51" y="97" on="0"/>
      </contour>
      <contour>
        <pt x="344" y="261" on="1"/>
        <pt x="287" y="308" on="1"/>
        <pt x="233" y="266" on="0"/>
        <pt x="233" y="196" on="1"/>
        <pt x="233" y="151" on="0"/>
        <pt x="284" y="87" on="0"/>
        <pt x="362" y="87" on="0"/>
        <pt x="415" y="131" on="0"/>
        <pt x="415" y="191" on="0"/>
        <pt x="387" y="225" on="0"/>
      </contour>
      <contour>
        <pt x="465" y="608" on="0"/>
        <pt x="424" y="661" on="0"/>
        <pt x="352" y="662" on="0"/>
        <pt x="306" y="622" on="0"/>
        <pt x="306" y="561" on="0"/>
        <pt x="340" y="531" on="1"/>
        <pt x="422" y="460" on="1"/>
        <pt x="465" y="500" on="0"/>
        <pt x="465" y="568" on="1"/>
      </contour>
    </TTGlyph>
    <TTGlyph name="ellipsis" xMin="50" yMin="-25" xMax="949" yMax="207">
      <contour>
        <pt x="111" y="-25" on="0"/>
        <pt x="50" y="36" on="0"/>
        <pt x="50" y="131" on="0"/>
        <pt x="124" y="207" on="0"/>
        <pt x="222" y="207" on="0"/>
        <pt x="283" y="146" on="0"/>
        <pt x="283" y="51" on="0"/>
        <pt x="209" y="-25" on="0"/>
      </contour>
      <contour>
        <pt x="444" y="-25" on="0"/>
        <pt x="383" y="36" on="0"/>
        <pt x="383" y="131" on="0"/>
        <pt x="457" y="207" on="0"/>
        <pt x="555" y="207" on="0"/>
        <pt x="616" y="146" on="0"/>
        <pt x="616" y="51" on="0"/>
        <pt x="542" y="-25" on="0"/>
      </contour>
      <contour>
        <pt x="777" y="-25" on="0"/>
        <pt x="716" y="36" on="0"/>
        <pt x="716" y="131" on="0"/>
        <pt x="790" y="207" on="0"/>
        <pt x="888" y="207" on="0"/>
        <pt x="949" y="146" on="0"/>
        <pt x="949" y="51" on="0"/>
        <pt x="875" y="-25" on="0"/>
      </contour>
    </TTGlyph>
    <TTGlyph name="emdash" xMin="15" yMin="268" xMax="1097" yMax="445">
      <contour>
        <pt x="270" y="425" on="1"/>
        <pt x="1013" y="431" on="1"/>
        <pt x="1097" y="431" on="0"/>
        <pt x="1097" y="355" on="1"/>
        <pt x="1097" y="308" on="0"/>
        <pt x="1076" y="272" on="1"/>
        <pt x="1011" y="292" on="0"/>
        <pt x="736" y="292" on="0"/>
        <pt x="192" y="268" on="0"/>
        <pt x="59" y="268" on="1"/>
        <pt x="15" y="268" on="0"/>
        <pt x="15" y="392" on="0"/>
        <pt x="50" y="445" on="1"/>
        <pt x="140" y="425" on="0"/>
      </contour>
    </TTGlyph>
    <TTGlyph name="endash" xMin="15" yMin="268" xMax="922" yMax="444">
      <contour>
        <pt x="229" y="425" on="1"/>
        <pt x="838" y="431" on="1"/>
        <pt x="922" y="431" on="0"/>
        <pt x="922" y="355" on="1"/>
        <pt x="922" y="308" on="0"/>
        <pt x="902" y="273" on="1"/>
        <pt x="845" y="292" on="0"/>
        <pt x="618" y="292" on="0"/>
        <pt x="169" y="268" on="0"/>
        <pt x="59" y="268" on="1"/>
        <pt x="15" y="268" on="0"/>
        <pt x="15" y="391" on="0"/>
        <pt x="50" y="444" on="1"/>
        <pt x="116" y="425" on="0"/>
      </contour>
    </TTGlyph>
    <TTGlyph name="equal" xMin="100" yMin="145" xMax="633" yMax="606">
      <contour>
        <pt x="259" y="589" on="1"/>
        <pt x="554" y="595" on="1"/>
        <pt x="633" y="595" on="0"/>
        <pt x="633" y="519" on="1"/>
        <pt x="633" y="475" on="0"/>
        <pt x="615" y="440" on="1"/>
        <pt x="576" y="456" on="0"/>
        <pt x="441" y="456" on="0"/>
        <pt x="199" y="432" on="0"/>
        <pt x="139" y="432" on="1"/>
        <pt x="100" y="432" on="0"/>
        <pt x="100" y="560" on="0"/>
        <pt x="131" y="606" on="1"/>
        <pt x="185" y="589" on="0"/>
      </contour>
      <contour>
        <pt x="259" y="302" on="1"/>
        <pt x="554" y="308" on="1"/>
        <pt x="633" y="308" on="0"/>
        <pt x="633" y="232" on="1"/>
        <pt x="633" y="188" on="0"/>
        <pt x="615" y="153" on="1"/>
        <pt x="576" y="169" on="0"/>
        <pt x="441" y="169" on="0"/>
        <pt x="199" y="145" on="0"/>
        <pt x="139" y="145" on="1"/>
        <pt x="100" y="145" on="0"/>
        <pt x="100" y="273" on="0"/>
        <pt x="131" y="319" on="1"/>
        <pt x="185" y="302" on="0"/>
      </contour>
    </TTGlyph>
    <TTGlyph name="eth" xMin="30" yMin="-25" xMax="684" yMax="769">
      <contour>
        <pt x="160" y="-25" on="0"/>
        <pt x="30" y="120" on="0"/>
        <pt x="30" y="225" on="1"/>
        <pt x="30" y="303" on="0"/>
        <pt x="100" y="444" on="0"/>
        <pt x="248" y="540" on="0"/>
        <pt x="346" y="540" on="1"/>
        <pt x="374" y="540" on="0"/>
        <pt x="411" y="533" on="1"/>
        <pt x="389" y="583" on="0"/>
        <pt x="306" y="659" on="0"/>
        <pt x="233" y="703" on="1"/>
        <pt x="262" y="730" on="0"/>
        <pt x="351" y="769" on="0"/>
        <pt x="393" y="769" on="1"/>
        <pt x="469" y="769" on="0"/>
        <pt x="520" y="686" on="1"/>
        <pt x="582" y="727" on="0"/>
        <pt x="616" y="727" on="1"/>
        <pt x="684" y="727" on="0"/>
        <pt x="684" y="662" on="1"/>
        <pt x="684" y="629" on="0"/>
        <pt x="663" y="588" on="1"/>
        <pt x="650" y="590" on="0"/>
        <pt x="604" y="590" on="0"/>
        <pt x="567" y="577" on="1"/>
        <pt x="604" y="455" on="0"/>
        <pt x="604" y="311" on="1"/>
        <pt x="604" y="231" on="0"/>
        <pt x="547" y="99" on="0"/>
        <pt x="500" y="58" on="1"/>
        <pt x="405" y="-25" on="0"/>
      </contour>
      <contour>
        <pt x="225" y="220" on="1"/>
        <pt x="225" y="166" on="0"/>
        <pt x="271" y="111" on="0"/>
        <pt x="306" y="111" on="1"/>
        <pt x="358" y="111" on="0"/>
        <pt x="444" y="216" on="0"/>
        <pt x="444" y="304" on="1"/>
        <pt x="444" y="356" on="0"/>
        <pt x="399" y="410" on="0"/>
        <pt x="365" y="410" on="1"/>
        <pt x="313" y="410" on="0"/>
        <pt x="225" y="305" on="0"/>
      </contour>
    </TTGlyph>
    <TTGlyph name="exclam" xMin="60" yMin="-25" xMax="405" yMax="775">
      <contour>
        <pt x="199" y="279" on="1"/>
        <pt x="129" y="279" on="0"/>
        <pt x="129" y="364" on="1"/>
        <pt x="129" y="385" on="0"/>
        <pt x="148" y="596" on="0"/>
        <pt x="148" y="684" on="0"/>
        <pt x="123" y="708" on="1"/>
        <pt x="189" y="775" on="0"/>
        <pt x="405" y="775" on="0"/>
        <pt x="405" y="672" on="1"/>
        <pt x="405" y="625" on="0"/>
        <pt x="377" y="525" on="0"/>
        <pt x="350" y="445" on="0"/>
        <pt x="333" y="400" on="0"/>
        <pt x="304" y="325" on="0"/>
        <pt x="301" y="317" on="1"/>
        <pt x="281" y="299" on="0"/>
        <pt x="222" y="279" on="0"/>
      </contour>
      <contour>
        <pt x="60" y="131" on="0"/>
        <pt x="134" y="207" on="0"/>
        <pt x="232" y="207" on="0"/>
        <pt x="293" y="146" on="0"/>
        <pt x="293" y="51" on="0"/>
        <pt x="219" y="-25" on="0"/>
        <pt x="121" y="-25" on="0"/>
        <pt x="60" y="36" on="0"/>
      </contour>
    </TTGlyph>
    <TTGlyph name="exclamdown" xMin="45" yMin="-209" xMax="398" yMax="600">
      <contour>
        <pt x="251" y="287" on="1"/>
        <pt x="321" y="287" on="0"/>
        <pt x="321" y="202" on="1"/>
        <pt x="321" y="181" on="0"/>
        <pt x="302" y="-30" on="0"/>
        <pt x="302" y="-118" on="0"/>
        <pt x="327" y="-142" on="1"/>
        <pt x="261" y="-209" on="0"/>
        <pt x="45" y="-209" on="0"/>
        <pt x="45" y="-106" on="1"/>
        <pt x="45" y="-59" on="0"/>
        <pt x="73" y="41" on="0"/>
        <pt x="100" y="121" on="0"/>
        <pt x="117" y="166" on="0"/>
        <pt x="146" y="241" on="0"/>
        <pt x="149" y="249" on="1"/>
        <pt x="169" y="267" on="0"/>
        <pt x="228" y="287" on="0"/>
      </contour>
      <contour>
        <pt x="226" y="368" on="0"/>
        <pt x="165" y="429" on="0"/>
        <pt x="165" y="524" on="0"/>
        <pt x="239" y="600" on="0"/>
        <pt x="337" y="600" on="0"/>
        <pt x="398" y="539" on="0"/>
        <pt x="398" y="444" on="0"/>
        <pt x="324" y="368" on="0"/>
      </contour>
    </TTGlyph>
    <TTGlyph name="f" xMin="48" yMin="-210" xMax="477" yMax="798">
      <contour>
        <pt x="55" y="317" on="1"/>
        <pt x="48" y="339" on="0"/>
        <pt x="48" y="362" on="1"/>
        <pt x="48" y="410" on="0"/>
        <pt x="102" y="460" on="0"/>
        <pt x="144" y="461" on="1"/>
        <pt x="137" y="492" on="0"/>
        <pt x="137" y="529" on="1"/>
        <pt x="137" y="639" on="0"/>
        <pt x="251" y="798" on="0"/>
        <pt x="355" y="798" on="1"/>
        <pt x="412" y="798" on="0"/>
        <pt x="477" y="730" on="0"/>
        <pt x="477" y="640" on="0"/>
        <pt x="415" y="577" on="0"/>
        <pt x="315" y="577" on="0"/>
        <pt x="276" y="601" on="1"/>
        <pt x="262" y="590" on="1"/>
        <pt x="297" y="471" on="1"/>
        <pt x="349" y="478" on="0"/>
        <pt x="403" y="498" on="1"/>
        <pt x="410" y="476" on="0"/>
        <pt x="410" y="413" on="0"/>
        <pt x="373" y="358" on="0"/>
        <pt x="338" y="350" on="1"/>
        <pt x="274" y="55" on="0"/>
        <pt x="274" y="-70" on="1"/>
        <pt x="274" y="-134" on="0"/>
        <pt x="305" y="-161" on="1"/>
        <pt x="232" y="-210" on="0"/>
        <pt x="117" y="-210" on="0"/>
        <pt x="63" y="-128" on="0"/>
        <pt x="63" y="14" on="0"/>
        <pt x="125" y="334" on="1"/>
        <pt x="80" y="325" on="0"/>
      </contour>
    </TTGlyph>
    <TTGlyph name="fi" xMin="48" yMin="-210" xMax="810" yMax="837">
      <contour>
        <pt x="55" y="317" on="1"/>
        <pt x="48" y="339" on="0"/>
        <pt x="48" y="362" on="1"/>
        <pt x="48" y="410" on="0"/>
        <pt x="102" y="460" on="0"/>
        <pt x="144" y="461" on="1"/>
        <pt x="137" y="492" on="0"/>
        <pt x="137" y="529" on="1"/>
        <pt x="137" y="639" on="0"/>
        <pt x="251" y="798" on="0"/>
        <pt x="355" y="798" on="1"/>
        <pt x="412" y="798" on="0"/>
        <pt x="477" y="730" on="0"/>
        <pt x="477" y="640" on="0"/>
        <pt x="415" y="577" on="0"/>
        <pt x="315" y="577" on="0"/>
        <pt x="276" y="601" on="1"/>
        <pt x="262" y="590" on="1"/>
        <pt x="297" y="471" on="1"/>
        <pt x="349" y="478" on="0"/>
        <pt x="403" y="498" on="1"/>
        <pt x="410" y="476" on="0"/>
        <pt x="410" y="413" on="0"/>
        <pt x="373" y="358" on="0"/>
        <pt x="338" y="350" on="1"/>
        <pt x="274" y="55" on="0"/>
        <pt x="274" y="-70" on="1"/>
        <pt x="274" y="-134" on="0"/>
        <pt x="305" y="-161" on="1"/>
        <pt x="232" y="-210" on="0"/>
        <pt x="117" y="-210" on="0"/>
        <pt x="63" y="-128" on="0"/>
        <pt x="63" y="14" on="0"/>
        <pt x="125" y="334" on="1"/>
        <pt x="80" y="325" on="0"/>
      </contour>
      <contour>
        <pt x="810" y="720" on="0"/>
        <pt x="730" y="665" on="0"/>
        <pt x="628" y="665" on="0"/>
        <pt x="569" y="705" on="0"/>
        <pt x="569" y="739" on="1"/>
        <pt x="569" y="785" on="0"/>
        <pt x="655" y="837" on="0"/>
        <pt x="751" y="837" on="0"/>
        <pt x="810" y="797" on="0"/>
      </contour>
      <contour>
        <pt x="553" y="-25" on="0"/>
        <pt x="497" y="37" on="0"/>
        <pt x="497" y="164" on="0"/>
        <pt x="561" y="441" on="1"/>
        <pt x="505" y="525" on="1"/>
        <pt x="630" y="600" on="0"/>
        <pt x="702" y="600" on="1"/>
        <pt x="743" y="600" on="0"/>
        <pt x="777" y="565" on="0"/>
        <pt x="777" y="526" on="1"/>
        <pt x="777" y="511" on="0"/>
        <pt x="703" y="189" on="0"/>
        <pt x="703" y="51" on="0"/>
        <pt x="734" y="24" on="1"/>
        <pt x="678" y="-25" on="0"/>
      </contour>
    </TTGlyph>
    <TTGlyph name="five" xMin="7" yMin="-156" xMax="600" yMax="700">
      <contour>
        <pt x="114" y="-156" on="0"/>
        <pt x="7" y="-96" on="0"/>
        <pt x="7" y="3" on="0"/>
        <pt x="75" y="56" on="0"/>
        <pt x="114" y="56" on="1"/>
        <pt x="196" y="56" on="0"/>
        <pt x="239" y="-26" on="1"/>
        <pt x="290" y="-18" on="0"/>
        <pt x="353" y="55" on="0"/>
        <pt x="353" y="149" on="0"/>
        <pt x="281" y="218" on="0"/>
        <pt x="209" y="218" on="1"/>
        <pt x="173" y="218" on="0"/>
        <pt x="127" y="208" on="1"/>
        <pt x="98" y="210" on="0"/>
        <pt x="98" y="231" on="1"/>
        <pt x="135" y="527" on="1"/>
        <pt x="98" y="569" on="0"/>
        <pt x="98" y="652" on="0"/>
        <pt x="146" y="700" on="0"/>
        <pt x="188" y="700" on="1"/>
        <pt x="257" y="700" on="0"/>
        <pt x="298" y="630" on="1"/>
        <pt x="349" y="630" on="0"/>
        <pt x="521" y="666" on="0"/>
        <pt x="594" y="693" on="1"/>
        <pt x="600" y="663" on="0"/>
        <pt x="600" y="628" on="1"/>
        <pt x="600" y="456" on="0"/>
        <pt x="409" y="456" on="1"/>
        <pt x="399" y="456" on="0"/>
        <pt x="301" y="462" on="1"/>
        <pt x="290" y="348" on="1"/>
        <pt x="406" y="342" on="0"/>
        <pt x="492" y="289" on="1"/>
        <pt x="536" y="262" on="0"/>
        <pt x="588" y="172" on="0"/>
        <pt x="588" y="114" on="1"/>
        <pt x="588" y="0" on="0"/>
        <pt x="377" y="-156" on="0"/>
        <pt x="210" y="-156" on="1"/>
      </contour>
    </TTGlyph>
    <TTGlyph name="fl" xMin="48" yMin="-210" xMax="807" yMax="798">
      <contour>
        <pt x="55" y="317" on="1"/>
        <pt x="48" y="339" on="0"/>
        <pt x="48" y="362" on="1"/>
        <pt x="48" y="410" on="0"/>
        <pt x="102" y="460" on="0"/>
        <pt x="144" y="461" on="1"/>
        <pt x="137" y="492" on="0"/>
        <pt x="137" y="529" on="1"/>
        <pt x="137" y="639" on="0"/>
        <pt x="251" y="798" on="0"/>
        <pt x="355" y="798" on="1"/>
        <pt x="412" y="798" on="0"/>
        <pt x="477" y="730" on="0"/>
        <pt x="477" y="640" on="0"/>
        <pt x="415" y="577" on="0"/>
        <pt x="315" y="577" on="0"/>
        <pt x="276" y="601" on="1"/>
        <pt x="262" y="590" on="1"/>
        <pt x="297" y="471" on="1"/>
        <pt x="349" y="478" on="0"/>
        <pt x="403" y="498" on="1"/>
        <pt x="410" y="476" on="0"/>
        <pt x="410" y="413" on="0"/>
        <pt x="373" y="358" on="0"/>
        <pt x="338" y="350" on="1"/>
        <pt x="274" y="55" on="0"/>
        <pt x="274" y="-70" on="1"/>
        <pt x="274" y="-134" on="0"/>
        <pt x="305" y="-161" on="1"/>
        <pt x="232" y="-210" on="0"/>
        <pt x="117" y="-210" on="0"/>
        <pt x="63" y="-128" on="0"/>
        <pt x="63" y="14" on="0"/>
        <pt x="125" y="334" on="1"/>
        <pt x="80" y="325" on="0"/>
      </contour>
      <contour>
        <pt x="591" y="622" on="1"/>
        <pt x="535" y="702" on="1"/>
        <pt x="660" y="775" on="0"/>
        <pt x="732" y="775" on="1"/>
        <pt x="773" y="775" on="0"/>
        <pt x="807" y="742" on="0"/>
        <pt x="807" y="651" on="0"/>
        <pt x="718" y="229" on="0"/>
        <pt x="718" y="59" on="0"/>
        <pt x="749" y="24" on="1"/>
        <pt x="679" y="-25" on="0"/>
        <pt x="565" y="-25" on="0"/>
        <pt x="512" y="50" on="0"/>
        <pt x="512" y="182" on="0"/>
        <pt x="586" y="590" on="0"/>
      </contour>
    </TTGlyph>
    <TTGlyph name="florin" xMin="53" yMin="-210" xMax="584" yMax="699">
      <contour>
        <pt x="97" y="205" on="1"/>
        <pt x="58" y="205" on="0"/>
        <pt x="58" y="229" on="1"/>
        <pt x="58" y="258" on="0"/>
        <pt x="106" y="305" on="1"/>
        <pt x="114" y="303" on="0"/>
        <pt x="151" y="303" on="0"/>
        <pt x="160" y="304" on="1"/>
        <pt x="167" y="450" on="0"/>
        <pt x="194" y="531" on="1"/>
        <pt x="220" y="609" on="0"/>
        <pt x="268" y="650" on="1"/>
        <pt x="323" y="699" on="0"/>
        <pt x="406" y="699" on="1"/>
        <pt x="584" y="699" on="0"/>
        <pt x="584" y="583" on="1"/>
        <pt x="584" y="538" on="0"/>
        <pt x="559" y="477" on="1"/>
        <pt x="511" y="496" on="0"/>
        <pt x="356" y="526" on="0"/>
        <pt x="304" y="528" on="1"/>
        <pt x="395" y="358" on="1"/>
        <pt x="447" y="371" on="0"/>
        <pt x="532" y="371" on="0"/>
        <pt x="532" y="344" on="1"/>
        <pt x="532" y="312" on="0"/>
        <pt x="485" y="269" on="1"/>
        <pt x="472" y="273" on="0"/>
        <pt x="439" y="273" on="0"/>
        <pt x="417" y="271" on="1"/>
        <pt x="394" y="36" on="1"/>
        <pt x="370" y="-210" on="0"/>
        <pt x="172" y="-210" on="1"/>
        <pt x="96" y="-210" on="0"/>
        <pt x="53" y="-162" on="1"/>
        <pt x="111" y="-81" on="0"/>
        <pt x="153" y="69" on="0"/>
        <pt x="157" y="212" on="1"/>
        <pt x="120" y="205" on="0"/>
      </contour>
    </TTGlyph>
    <TTGlyph name="four" xMin="19" yMin="-170" xMax="677" yMax="700">
      <contour>
        <pt x="364" y="-32" on="1"/>
        <pt x="364" y="-7" on="0"/>
        <pt x="368" y="16" on="1"/>
        <pt x="286" y="0" on="0"/>
        <pt x="205" y="0" on="1"/>
        <pt x="19" y="0" on="0"/>
        <pt x="19" y="115" on="1"/>
        <pt x="19" y="181" on="0"/>
        <pt x="115" y="354" on="1"/>
        <pt x="151" y="419" on="0"/>
        <pt x="211" y="575" on="0"/>
        <pt x="211" y="630" on="1"/>
        <pt x="211" y="655" on="0"/>
        <pt x="203" y="677" on="1"/>
        <pt x="264" y="700" on="0"/>
        <pt x="310" y="700" on="1"/>
        <pt x="445" y="700" on="0"/>
        <pt x="445" y="566" on="1"/>
        <pt x="445" y="386" on="0"/>
        <pt x="186" y="130" on="1"/>
        <pt x="394" y="130" on="1"/>
        <pt x="421" y="224" on="0"/>
        <pt x="460" y="304" on="1"/>
        <pt x="487" y="331" on="0"/>
        <pt x="603" y="377" on="0"/>
        <pt x="652" y="377" on="1"/>
        <pt x="667" y="377" on="0"/>
        <pt x="677" y="366" on="0"/>
        <pt x="677" y="332" on="0"/>
        <pt x="660" y="268" on="1"/>
        <pt x="608" y="78" on="0"/>
        <pt x="608" y="-41" on="1"/>
        <pt x="608" y="-98" on="0"/>
        <pt x="632" y="-134" on="1"/>
        <pt x="562" y="-170" on="0"/>
        <pt x="428" y="-170" on="0"/>
        <pt x="364" y="-93" on="0"/>
      </contour>
    </TTGlyph>
    <TTGlyph name="foursuperior" xMin="14" yMin="193" xMax="464" yMax="700">
      <contour>
        <pt x="14" y="351" on="1"/>
        <pt x="14" y="383" on="0"/>
        <pt x="107" y="602" on="0"/>
        <pt x="107" y="650" on="1"/>
        <pt x="107" y="669" on="0"/>
        <pt x="98" y="681" on="1"/>
        <pt x="153" y="700" on="0"/>
        <pt x="192" y="700" on="1"/>
        <pt x="301" y="700" on="0"/>
        <pt x="301" y="624" on="1"/>
        <pt x="301" y="572" on="0"/>
        <pt x="236" y="446" on="0"/>
        <pt x="183" y="392" on="1"/>
        <pt x="242" y="392" on="1"/>
        <pt x="260" y="442" on="0"/>
        <pt x="285" y="485" on="1"/>
        <pt x="306" y="503" on="0"/>
        <pt x="390" y="532" on="0"/>
        <pt x="448" y="532" on="0"/>
        <pt x="464" y="521" on="0"/>
        <pt x="464" y="497" on="0"/>
        <pt x="432" y="334" on="0"/>
        <pt x="432" y="246" on="0"/>
        <pt x="454" y="227" on="1"/>
        <pt x="396" y="193" on="0"/>
        <pt x="279" y="193" on="0"/>
        <pt x="224" y="243" on="0"/>
        <pt x="221" y="284" on="1"/>
        <pt x="183" y="279" on="0"/>
        <pt x="149" y="279" on="1"/>
        <pt x="14" y="279" on="0"/>
      </contour>
    </TTGlyph>
    <TTGlyph name="fraction" xMin="324" yMin="-25" xMax="826" yMax="725">
      <contour>
        <pt x="324" y="13" on="1"/>
        <pt x="370" y="64" on="0"/>
        <pt x="428" y="177" on="1"/>
        <pt x="472" y="267" on="0"/>
        <pt x="611" y="556" on="0"/>
        <pt x="694" y="725" on="0"/>
        <pt x="759" y="725" on="1"/>
        <pt x="797" y="725" on="0"/>
        <pt x="826" y="699" on="1"/>
        <pt x="780" y="654" on="0"/>
        <pt x="672" y="437" on="0"/>
        <pt x="513" y="80" on="0"/>
        <pt x="462" y="-25" on="0"/>
        <pt x="359" y="-25" on="0"/>
      </contour>
    </TTGlyph>
    <TTGlyph name="g" xMin="50" yMin="-235" xMax="679" yMax="600">
      <contour>
        <pt x="239" y="280" on="1"/>
        <pt x="239" y="229" on="0"/>
        <pt x="296" y="166" on="0"/>
        <pt x="338" y="166" on="1"/>
        <pt x="395" y="166" on="0"/>
        <pt x="440" y="220" on="1"/>
        <pt x="457" y="309" on="0"/>
        <pt x="484" y="501" on="1"/>
        <pt x="372" y="501" on="0"/>
        <pt x="239" y="371" on="0"/>
      </contour>
      <contour>
        <pt x="457" y="-162" on="0"/>
        <pt x="315" y="-235" on="0"/>
        <pt x="158" y="-235" on="0"/>
        <pt x="63" y="-176" on="0"/>
        <pt x="63" y="-76" on="0"/>
        <pt x="104" y="-21" on="1"/>
        <pt x="150" y="-89" on="0"/>
        <pt x="242" y="-89" on="1"/>
        <pt x="302" y="-89" on="0"/>
        <pt x="405" y="14" on="0"/>
        <pt x="422" y="113" on="1"/>
        <pt x="412" y="118" on="1"/>
        <pt x="341" y="14" on="0"/>
        <pt x="230" y="14" on="1"/>
        <pt x="146" y="14" on="0"/>
        <pt x="50" y="144" on="0"/>
        <pt x="50" y="252" on="1"/>
        <pt x="50" y="356" on="0"/>
        <pt x="107" y="442" on="1"/>
        <pt x="172" y="541" on="0"/>
        <pt x="288" y="579" on="1"/>
        <pt x="352" y="600" on="0"/>
        <pt x="468" y="600" on="0"/>
        <pt x="508" y="592" on="1"/>
        <pt x="514" y="565" on="0"/>
        <pt x="515" y="543" on="1"/>
        <pt x="562" y="575" on="0"/>
        <pt x="610" y="575" on="1"/>
        <pt x="679" y="575" on="0"/>
        <pt x="679" y="433" on="0"/>
        <pt x="661" y="284" on="0"/>
        <pt x="623" y="114" on="0"/>
        <pt x="552" y="-37" on="0"/>
      </contour>
    </TTGlyph>
    <TTGlyph name="germandbls" xMin="0" yMin="-210" xMax="715" yMax="775">
      <contour>
        <pt x="438" y="338" on="0"/>
        <pt x="404" y="373" on="0"/>
        <pt x="404" y="424" on="0"/>
        <pt x="438" y="459" on="0"/>
        <pt x="477" y="459" on="0"/>
        <pt x="490" y="451" on="1"/>
        <pt x="522" y="495" on="0"/>
        <pt x="522" y="538" on="1"/>
        <pt x="522" y="625" on="0"/>
        <pt x="457" y="625" on="1"/>
        <pt x="408" y="625" on="0"/>
        <pt x="353" y="529" on="0"/>
        <pt x="337" y="442" on="1"/>
        <pt x="336" y="437" on="0"/>
        <pt x="314" y="328" on="0"/>
        <pt x="294" y="219" on="0"/>
        <pt x="282" y="152" on="1"/>
        <pt x="257" y="3" on="0"/>
        <pt x="257" y="-134" on="0"/>
        <pt x="288" y="-161" on="1"/>
        <pt x="229" y="-210" on="0"/>
        <pt x="105" y="-210" on="0"/>
        <pt x="50" y="-128" on="0"/>
        <pt x="50" y="-13" on="0"/>
        <pt x="112" y="321" on="1"/>
        <pt x="56" y="314" on="0"/>
        <pt x="4" y="300" on="1"/>
        <pt x="0" y="319" on="0"/>
        <pt x="0" y="338" on="1"/>
        <pt x="0" y="400" on="0"/>
        <pt x="72" y="444" on="0"/>
        <pt x="135" y="447" on="1"/>
        <pt x="153" y="545" on="1"/>
        <pt x="195" y="775" on="0"/>
        <pt x="451" y="775" on="1"/>
        <pt x="549" y="775" on="0"/>
        <pt x="670" y="658" on="0"/>
        <pt x="670" y="580" on="1"/>
        <pt x="670" y="481" on="0"/>
        <pt x="579" y="421" on="1"/>
        <pt x="715" y="363" on="0"/>
        <pt x="715" y="201" on="1"/>
        <pt x="715" y="112" on="0"/>
        <pt x="574" y="-35" on="0"/>
        <pt x="473" y="-35" on="1"/>
        <pt x="401" y="-35" on="0"/>
        <pt x="326" y="40" on="0"/>
        <pt x="326" y="160" on="0"/>
        <pt x="375" y="201" on="1"/>
        <pt x="400" y="185" on="0"/>
        <pt x="494" y="185" on="0"/>
        <pt x="541" y="232" on="0"/>
        <pt x="541" y="314" on="0"/>
        <pt x="503" y="354" on="1"/>
        <pt x="485" y="338" on="0"/>
      </contour>
    </TTGlyph>
    <TTGlyph name="grave" xMin="20" yMin="653" xMax="356" yMax="886">
      <contour>
        <pt x="300" y="653" on="1"/>
        <pt x="258" y="653" on="0"/>
        <pt x="99" y="720" on="0"/>
        <pt x="53" y="720" on="1"/>
        <pt x="44" y="720" on="0"/>
        <pt x="30" y="718" on="1"/>
        <pt x="20" y="752" on="0"/>
        <pt x="20" y="791" on="1"/>
        <pt x="20" y="886" on="0"/>
        <pt x="76" y="886" on="1"/>
        <pt x="113" y="886" on="0"/>
        <pt x="208" y="819" on="0"/>
        <pt x="313" y="739" on="0"/>
        <pt x="356" y="729" on="1"/>
        <pt x="353" y="690" on="0"/>
        <pt x="322" y="653" on="0"/>
      </contour>
    </TTGlyph>
    <TTGlyph name="greater" xMin="103" yMin="87" xMax="625" yMax="652">
      <contour>
        <pt x="118" y="241" on="1"/>
        <pt x="168" y="246" on="0"/>
        <pt x="279" y="291" on="0"/>
        <pt x="415" y="361" on="0"/>
        <pt x="447" y="374" on="1"/>
        <pt x="399" y="400" on="0"/>
        <pt x="217" y="463" on="0"/>
        <pt x="103" y="510" on="0"/>
        <pt x="103" y="529" on="1"/>
        <pt x="103" y="560" on="0"/>
        <pt x="168" y="633" on="0"/>
        <pt x="205" y="652" on="1"/>
        <pt x="237" y="618" on="0"/>
        <pt x="351" y="558" on="0"/>
        <pt x="524" y="476" on="0"/>
        <pt x="600" y="436" on="0"/>
        <pt x="624" y="366" on="0"/>
        <pt x="625" y="314" on="1"/>
        <pt x="578" y="311" on="0"/>
        <pt x="440" y="239" on="0"/>
        <pt x="382" y="198" on="1"/>
        <pt x="229" y="87" on="0"/>
        <pt x="191" y="87" on="1"/>
        <pt x="161" y="87" on="0"/>
        <pt x="118" y="185" on="0"/>
      </contour>
    </TTGlyph>
    <TTGlyph name="greaterequal" xMin="100" yMin="-128" xMax="633" yMax="706">
      <contour>
        <pt x="118" y="295" on="1"/>
        <pt x="168" y="300" on="0"/>
        <pt x="279" y="345" on="0"/>
        <pt x="415" y="415" on="0"/>
        <pt x="447" y="428" on="1"/>
        <pt x="399" y="454" on="0"/>
        <pt x="217" y="517" on="0"/>
        <pt x="103" y="564" on="0"/>
        <pt x="103" y="583" on="1"/>
        <pt x="103" y="614" on="0"/>
        <pt x="168" y="687" on="0"/>
        <pt x="205" y="706" on="1"/>
        <pt x="237" y="672" on="0"/>
        <pt x="351" y="612" on="0"/>
        <pt x="524" y="530" on="0"/>
        <pt x="600" y="490" on="0"/>
        <pt x="624" y="420" on="0"/>
        <pt x="625" y="368" on="1"/>
        <pt x="578" y="365" on="0"/>
        <pt x="440" y="293" on="0"/>
        <pt x="382" y="252" on="1"/>
        <pt x="229" y="141" on="0"/>
        <pt x="191" y="141" on="1"/>
        <pt x="161" y="141" on="0"/>
        <pt x="118" y="239" on="0"/>
      </contour>
      <contour>
        <pt x="259" y="29" on="1"/>
        <pt x="554" y="35" on="1"/>
        <pt x="633" y="35" on="0"/>
        <pt x="633" y="-41" on="1"/>
        <pt x="633" y="-85" on="0"/>
        <pt x="615" y="-120" on="1"/>
        <pt x="576" y="-104" on="0"/>
        <pt x="441" y="-104" on="0"/>
        <pt x="199" y="-128" on="0"/>
        <pt x="139" y="-128" on="1"/>
        <pt x="100" y="-128" on="0"/>
        <pt x="100" y="0" on="0"/>
        <pt x="131" y="46" on="1"/>
        <pt x="185" y="29" on="0"/>
      </contour>
    </TTGlyph>
    <TTGlyph name="guillemotleft" xMin="58" yMin="18" xMax="648" yMax="567">
      <contour>
        <pt x="595" y="243" on="1"/>
        <pt x="586" y="18" on="0"/>
        <pt x="536" y="18" on="1"/>
        <pt x="501" y="18" on="0"/>
        <pt x="400" y="109" on="0"/>
        <pt x="374" y="154" on="1"/>
        <pt x="370" y="174" on="0"/>
        <pt x="370" y="212" on="1"/>
        <pt x="370" y="313" on="0"/>
        <pt x="426" y="528" on="0"/>
        <pt x="466" y="533" on="1"/>
        <pt x="555" y="540" on="0"/>
        <pt x="625" y="559" on="0"/>
        <pt x="648" y="567" on="1"/>
        <pt x="648" y="422" on="0"/>
        <pt x="601" y="375" on="1"/>
        <pt x="578" y="352" on="0"/>
        <pt x="530" y="336" on="0"/>
        <pt x="485" y="336" on="0"/>
        <pt x="445" y="343" on="1"/>
        <pt x="438" y="299" on="1"/>
        <pt x="507" y="243" on="0"/>
      </contour>
      <contour>
        <pt x="283" y="243" on="1"/>
        <pt x="274" y="18" on="0"/>
        <pt x="224" y="18" on="1"/>
        <pt x="189" y="18" on="0"/>
        <pt x="88" y="109" on="0"/>
        <pt x="62" y="154" on="1"/>
        <pt x="58" y="174" on="0"/>
        <pt x="58" y="212" on="1"/>
        <pt x="58" y="313" on="0"/>
        <pt x="114" y="528" on="0"/>
        <pt x="154" y="533" on="1"/>
        <pt x="243" y="540" on="0"/>
        <pt x="313" y="559" on="0"/>
        <pt x="336" y="567" on="1"/>
        <pt x="336" y="422" on="0"/>
        <pt x="289" y="375" on="1"/>
        <pt x="266" y="352" on="0"/>
        <pt x="218" y="336" on="0"/>
        <pt x="173" y="336" on="0"/>
        <pt x="133" y="343" on="1"/>
        <pt x="126" y="299" on="1"/>
        <pt x="195" y="243" on="0"/>
      </contour>
    </TTGlyph>
    <TTGlyph name="guillemotright" xMin="46" yMin="11" xMax="636" yMax="560">
      <contour>
        <pt x="99" y="335" on="1"/>
        <pt x="108" y="560" on="0"/>
        <pt x="158" y="560" on="1"/>
        <pt x="193" y="560" on="0"/>
        <pt x="294" y="469" on="0"/>
        <pt x="320" y="424" on="1"/>
        <pt x="324" y="404" on="0"/>
        <pt x="324" y="366" on="1"/>
        <pt x="324" y="265" on="0"/>
        <pt x="268" y="50" on="0"/>
        <pt x="228" y="45" on="1"/>
        <pt x="139" y="38" on="0"/>
        <pt x="69" y="19" on="0"/>
        <pt x="46" y="11" on="1"/>
        <pt x="46" y="156" on="0"/>
        <pt x="93" y="203" on="1"/>
        <pt x="116" y="226" on="0"/>
        <pt x="164" y="242" on="0"/>
        <pt x="209" y="242" on="0"/>
        <pt x="249" y="235" on="1"/>
        <pt x="256" y="279" on="1"/>
        <pt x="187" y="335" on="0"/>
      </contour>
      <contour>
        <pt x="411" y="335" on="1"/>
        <pt x="420" y="560" on="0"/>
        <pt x="470" y="560" on="1"/>
        <pt x="505" y="560" on="0"/>
        <pt x="606" y="469" on="0"/>
        <pt x="632" y="424" on="1"/>
        <pt x="636" y="404" on="0"/>
        <pt x="636" y="366" on="1"/>
        <pt x="636" y="265" on="0"/>
        <pt x="580" y="50" on="0"/>
        <pt x="540" y="45" on="1"/>
        <pt x="451" y="38" on="0"/>
        <pt x="381" y="19" on="0"/>
        <pt x="358" y="11" on="1"/>
        <pt x="358" y="156" on="0"/>
        <pt x="405" y="203" on="1"/>
        <pt x="428" y="226" on="0"/>
        <pt x="476" y="242" on="0"/>
        <pt x="521" y="242" on="0"/>
        <pt x="561" y="235" on="1"/>
        <pt x="568" y="279" on="1"/>
        <pt x="499" y="335" on="0"/>
      </contour>
    </TTGlyph>
    <TTGlyph name="guilsinglleft" xMin="58" yMin="18" xMax="336" yMax="567">
      <contour>
        <pt x="283" y="243" on="1"/>
        <pt x="274" y="18" on="0"/>
        <pt x="224" y="18" on="1"/>
        <pt x="189" y="18" on="0"/>
        <pt x="88" y="109" on="0"/>
        <pt x="62" y="154" on="1"/>
        <pt x="58" y="174" on="0"/>
        <pt x="58" y="212" on="1"/>
        <pt x="58" y="313" on="0"/>
        <pt x="114" y="528" on="0"/>
        <pt x="154" y="533" on="1"/>
        <pt x="243" y="540" on="0"/>
        <pt x="313" y="559" on="0"/>
        <pt x="336" y="567" on="1"/>
        <pt x="336" y="422" on="0"/>
        <pt x="289" y="375" on="1"/>
        <pt x="266" y="352" on="0"/>
        <pt x="218" y="336" on="0"/>
        <pt x="173" y="336" on="0"/>
        <pt x="133" y="343" on="1"/>
        <pt x="126" y="299" on="1"/>
        <pt x="195" y="243" on="0"/>
      </contour>
    </TTGlyph>
    <TTGlyph name="guilsinglright" xMin="46" yMin="11" xMax="324" yMax="560">
      <contour>
        <pt x="99" y="335" on="1"/>
        <pt x="108" y="560" on="0"/>
        <pt x="158" y="560" on="1"/>
        <pt x="193" y="560" on="0"/>
        <pt x="294" y="469" on="0"/>
        <pt x="320" y="424" on="1"/>
        <pt x="324" y="404" on="0"/>
        <pt x="324" y="366" on="1"/>
        <pt x="324" y="265" on="0"/>
        <pt x="268" y="50" on="0"/>
        <pt x="228" y="45" on="1"/>
        <pt x="139" y="38" on="0"/>
        <pt x="69" y="19" on="0"/>
        <pt x="46" y="11" on="1"/>
        <pt x="46" y="156" on="0"/>
        <pt x="93" y="203" on="1"/>
        <pt x="116" y="226" on="0"/>
        <pt x="164" y="242" on="0"/>
        <pt x="209" y="242" on="0"/>
        <pt x="249" y="235" on="1"/>
        <pt x="256" y="279" on="1"/>
        <pt x="187" y="335" on="0"/>
      </contour>
    </TTGlyph>
    <TTGlyph name="h" xMin="70" yMin="-25" xMax="728" yMax="775">
      <contour>
        <pt x="607" y="600" on="1"/>
        <pt x="728" y="600" on="0"/>
        <pt x="728" y="479" on="1"/>
        <pt x="728" y="427" on="0"/>
        <pt x="669" y="179" on="0"/>
        <pt x="669" y="53" on="0"/>
        <pt x="690" y="24" on="1"/>
        <pt x="637" y="-25" on="0"/>
        <pt x="578" y="-25" on="1"/>
        <pt x="463" y="-25" on="0"/>
        <pt x="463" y="99" on="1"/>
        <pt x="463" y="145" on="0"/>
        <pt x="523" y="365" on="0"/>
        <pt x="523" y="398" on="1"/>
        <pt x="523" y="443" on="0"/>
        <pt x="489" y="443" on="1"/>
        <pt x="461" y="443" on="0"/>
        <pt x="389" y="394" on="0"/>
        <pt x="322" y="311" on="0"/>
        <pt x="276" y="184" on="0"/>
        <pt x="276" y="53" on="0"/>
        <pt x="297" y="24" on="1"/>
        <pt x="244" y="-25" on="0"/>
        <pt x="185" y="-25" on="1"/>
        <pt x="70" y="-25" on="0"/>
        <pt x="70" y="99" on="1"/>
        <pt x="70" y="173" on="0"/>
        <pt x="110" y="399" on="1"/>
        <pt x="144" y="598" on="0"/>
        <pt x="149" y="622" on="1"/>
        <pt x="93" y="702" on="1"/>
        <pt x="218" y="775" on="0"/>
        <pt x="290" y="775" on="1"/>
        <pt x="331" y="775" on="0"/>
        <pt x="365" y="742" on="0"/>
        <pt x="365" y="704" on="1"/>
        <pt x="365" y="632" on="0"/>
        <pt x="337" y="462" on="0"/>
        <pt x="325" y="422" on="1"/>
        <pt x="335" y="417" on="1"/>
        <pt x="442" y="600" on="0"/>
      </contour>
    </TTGlyph>
    <TTGlyph name="hungarumlaut" xMin="67" yMin="648" xMax="723" yMax="902">
      <contour>
        <pt x="392" y="770" on="1"/>
        <pt x="361" y="770" on="0"/>
        <pt x="273" y="709" on="0"/>
        <pt x="180" y="648" on="0"/>
        <pt x="144" y="648" on="1"/>
        <pt x="94" y="648" on="0"/>
        <pt x="67" y="727" on="1"/>
        <pt x="110" y="742" on="0"/>
        <pt x="162" y="803" on="1"/>
        <pt x="182" y="827" on="0"/>
        <pt x="202" y="850" on="1"/>
        <pt x="250" y="902" on="0"/>
        <pt x="302" y="902" on="1"/>
        <pt x="332" y="902" on="0"/>
        <pt x="353" y="885" on="1"/>
        <pt x="392" y="853" on="0"/>
      </contour>
      <contour>
        <pt x="723" y="770" on="1"/>
        <pt x="692" y="770" on="0"/>
        <pt x="604" y="709" on="0"/>
        <pt x="511" y="648" on="0"/>
        <pt x="475" y="648" on="1"/>
        <pt x="425" y="648" on="0"/>
        <pt x="398" y="727" on="1"/>
        <pt x="441" y="742" on="0"/>
        <pt x="492" y="803" on="1"/>
        <pt x="513" y="827" on="0"/>
        <pt x="534" y="850" on="1"/>
        <pt x="581" y="902" on="0"/>
        <pt x="633" y="902" on="1"/>
        <pt x="663" y="902" on="0"/>
        <pt x="684" y="885" on="1"/>
        <pt x="723" y="853" on="0"/>
      </contour>
    </TTGlyph>
    <TTGlyph name="hyphen" xMin="55" yMin="183" xMax="473" yMax="427">
      <contour>
        <pt x="118" y="183" on="1"/>
        <pt x="55" y="183" on="0"/>
        <pt x="55" y="256" on="1"/>
        <pt x="55" y="309" on="0"/>
        <pt x="83" y="370" on="1"/>
        <pt x="104" y="363" on="0"/>
        <pt x="185" y="363" on="0"/>
        <pt x="364" y="427" on="0"/>
        <pt x="410" y="427" on="1"/>
        <pt x="473" y="427" on="0"/>
        <pt x="473" y="354" on="1"/>
        <pt x="473" y="301" on="0"/>
        <pt x="445" y="240" on="1"/>
        <pt x="424" y="247" on="0"/>
        <pt x="343" y="247" on="0"/>
        <pt x="164" y="183" on="0"/>
      </contour>
    </TTGlyph>
    <TTGlyph name="i" xMin="65" yMin="-25" xMax="378" yMax="837">
      <contour>
        <pt x="378" y="720" on="0"/>
        <pt x="298" y="665" on="0"/>
        <pt x="196" y="665" on="0"/>
        <pt x="137" y="705" on="0"/>
        <pt x="137" y="739" on="1"/>
        <pt x="137" y="785" on="0"/>
        <pt x="223" y="837" on="0"/>
        <pt x="319" y="837" on="0"/>
        <pt x="378" y="797" on="0"/>
      </contour>
      <contour>
        <pt x="121" y="-25" on="0"/>
        <pt x="65" y="37" on="0"/>
        <pt x="65" y="164" on="0"/>
        <pt x="129" y="441" on="1"/>
        <pt x="73" y="525" on="1"/>
        <pt x="198" y="600" on="0"/>
        <pt x="270" y="600" on="1"/>
        <pt x="311" y="600" on="0"/>
        <pt x="345" y="565" on="0"/>
        <pt x="345" y="526" on="1"/>
        <pt x="345" y="511" on="0"/>
        <pt x="271" y="189" on="0"/>
        <pt x="271" y="51" on="0"/>
        <pt x="302" y="24" on="1"/>
        <pt x="246" y="-25" on="0"/>
      </contour>
    </TTGlyph>
    <TTGlyph name="iacute" xMin="65" yMin="-25" xMax="407" yMax="886">
      <component glyphName="dotlessi" x="0" y="0" flags="0x1004"/>
      <component glyphName="acute" x="1" y="0" flags="0x1004"/>
    </TTGlyph>
    <TTGlyph name="icircumflex" xMin="18" yMin="-25" xMax="433" yMax="868">
      <component glyphName="dotlessi" x="0" y="0" flags="0x1004"/>
      <component glyphName="circumflex" x="-62" y="0" flags="0x1004"/>
    </TTGlyph>
    <TTGlyph name="idieresis" xMin="1" yMin="-25" xMax="521" yMax="849">
      <component glyphName="dotlessi" x="0" y="0" flags="0x1004"/>
      <component glyphName="dieresis" x="-85" y="0" flags="0x1004"/>
    </TTGlyph>
    <TTGlyph name="igrave" xMin="65" yMin="-25" xMax="404" yMax="886">
      <component glyphName="dotlessi" x="0" y="0" flags="0x1004"/>
      <component glyphName="grave" x="48" y="0" flags="0x1004"/>
    </TTGlyph>
    <TTGlyph name="infinity" xMin="60" yMin="89" xMax="905" yMax="630">
      <contour>
        <pt x="495" y="522" on="1"/>
        <pt x="517" y="494" on="1"/>
        <pt x="555" y="554" on="0"/>
        <pt x="656" y="629" on="0"/>
        <pt x="714" y="629" on="1"/>
        <pt x="782" y="629" on="0"/>
        <pt x="838" y="582" on="1"/>
        <pt x="868" y="557" on="0"/>
        <pt x="905" y="453" on="0"/>
        <pt x="905" y="379" on="1"/>
        <pt x="905" y="247" on="0"/>
        <pt x="782" y="89" on="0"/>
        <pt x="681" y="89" on="1"/>
        <pt x="561" y="89" on="0"/>
        <pt x="470" y="196" on="1"/>
        <pt x="447" y="223" on="1"/>
        <pt x="409" y="164" on="0"/>
        <pt x="308" y="90" on="0"/>
        <pt x="251" y="90" on="1"/>
        <pt x="184" y="90" on="0"/>
        <pt x="128" y="136" on="1"/>
        <pt x="97" y="161" on="0"/>
        <pt x="60" y="266" on="0"/>
        <pt x="60" y="340" on="1"/>
        <pt x="60" y="472" on="0"/>
        <pt x="183" y="630" on="0"/>
        <pt x="284" y="630" on="1"/>
        <pt x="346" y="630" on="0"/>
        <pt x="456" y="571" on="0"/>
      </contour>
      <contour>
        <pt x="688" y="471" on="1"/>
        <pt x="630" y="471" on="0"/>
        <pt x="573" y="425" on="1"/>
        <pt x="600" y="391" on="1"/>
        <pt x="640" y="341" on="0"/>
        <pt x="681" y="308" on="0"/>
        <pt x="746" y="308" on="0"/>
        <pt x="787" y="353" on="0"/>
        <pt x="787" y="426" on="0"/>
        <pt x="729" y="471" on="0"/>
      </contour>
      <contour>
        <pt x="277" y="248" on="1"/>
        <pt x="335" y="248" on="0"/>
        <pt x="392" y="294" on="1"/>
        <pt x="365" y="328" on="1"/>
        <pt x="325" y="378" on="0"/>
        <pt x="284" y="411" on="0"/>
        <pt x="219" y="411" on="0"/>
        <pt x="178" y="366" on="0"/>
        <pt x="178" y="293" on="0"/>
        <pt x="236" y="248" on="0"/>
      </contour>
    </TTGlyph>
    <TTGlyph name="integral" xMin="-30" yMin="-235" xMax="523" yMax="775">
      <contour>
        <pt x="368" y="488" on="1"/>
        <pt x="331" y="65" on="1"/>
        <pt x="317" y="-93" on="0"/>
        <pt x="230" y="-235" on="0"/>
        <pt x="142" y="-235" on="1"/>
        <pt x="89" y="-235" on="0"/>
        <pt x="4" y="-188" on="0"/>
        <pt x="-30" y="-123" on="1"/>
        <pt x="49" y="-114" on="0"/>
        <pt x="117" y="-28" on="0"/>
        <pt x="124" y="52" on="1"/>
        <pt x="161" y="475" on="1"/>
        <pt x="175" y="634" on="0"/>
        <pt x="262" y="775" on="0"/>
        <pt x="350" y="775" on="1"/>
        <pt x="403" y="775" on="0"/>
        <pt x="489" y="728" on="0"/>
        <pt x="523" y="663" on="1"/>
        <pt x="443" y="654" on="0"/>
        <pt x="375" y="568" on="0"/>
      </contour>
    </TTGlyph>
    <TTGlyph name="j" xMin="-68" yMin="-210" xMax="375" yMax="837">
      <contour>
        <pt x="375" y="720" on="0"/>
        <pt x="295" y="665" on="0"/>
        <pt x="193" y="665" on="0"/>
        <pt x="134" y="705" on="0"/>
        <pt x="134" y="739" on="1"/>
        <pt x="134" y="785" on="0"/>
        <pt x="220" y="837" on="0"/>
        <pt x="316" y="837" on="0"/>
        <pt x="375" y="797" on="0"/>
      </contour>
      <contour>
        <pt x="342" y="526" on="1"/>
        <pt x="342" y="442" on="0"/>
        <pt x="260" y="37" on="1"/>
        <pt x="239" y="-68" on="0"/>
        <pt x="134" y="-210" on="0"/>
        <pt x="51" y="-210" on="1"/>
        <pt x="-8" y="-210" on="0"/>
        <pt x="-68" y="-155" on="0"/>
        <pt x="-68" y="-68" on="0"/>
        <pt x="-8" y="-15" on="0"/>
        <pt x="81" y="-15" on="0"/>
        <pt x="129" y="-48" on="1"/>
        <pt x="139" y="-34" on="1"/>
        <pt x="96" y="10" on="0"/>
        <pt x="70" y="64" on="0"/>
        <pt x="70" y="137" on="0"/>
        <pt x="126" y="441" on="1"/>
        <pt x="70" y="525" on="1"/>
        <pt x="195" y="600" on="0"/>
        <pt x="267" y="600" on="1"/>
        <pt x="308" y="600" on="0"/>
        <pt x="342" y="565" on="0"/>
      </contour>
    </TTGlyph>
    <TTGlyph name="k" xMin="65" yMin="-25" xMax="704" yMax="775">
      <contour>
        <pt x="144" y="622" on="1"/>
        <pt x="88" y="702" on="1"/>
        <pt x="213" y="775" on="0"/>
        <pt x="285" y="775" on="1"/>
        <pt x="326" y="775" on="0"/>
        <pt x="360" y="742" on="0"/>
        <pt x="360" y="665" on="0"/>
        <pt x="335" y="527" on="0"/>
        <pt x="294" y="339" on="0"/>
        <pt x="285" y="282" on="1"/>
        <pt x="348" y="338" on="1"/>
        <pt x="357" y="346" on="0"/>
        <pt x="398" y="381" on="0"/>
        <pt x="415" y="397" on="0"/>
        <pt x="445" y="426" on="0"/>
        <pt x="459" y="446" on="0"/>
        <pt x="468" y="459" on="1"/>
        <pt x="482" y="481" on="0"/>
        <pt x="482" y="536" on="0"/>
        <pt x="474" y="557" on="1"/>
        <pt x="545" y="600" on="0"/>
        <pt x="608" y="600" on="1"/>
        <pt x="650" y="600" on="0"/>
        <pt x="700" y="547" on="0"/>
        <pt x="700" y="447" on="0"/>
        <pt x="609" y="346" on="0"/>
        <pt x="542" y="308" on="1"/>
        <pt x="573" y="205" on="0"/>
        <pt x="671" y="33" on="0"/>
        <pt x="704" y="16" on="1"/>
        <pt x="664" y="-25" on="0"/>
        <pt x="580" y="-25" on="1"/>
        <pt x="518" y="-25" on="0"/>
        <pt x="433" y="59" on="0"/>
        <pt x="400" y="155" on="1"/>
        <pt x="375" y="226" on="1"/>
        <pt x="272" y="175" on="1"/>
        <pt x="271" y="164" on="0"/>
        <pt x="271" y="142" on="1"/>
        <pt x="271" y="59" on="0"/>
        <pt x="302" y="24" on="1"/>
        <pt x="232" y="-25" on="0"/>
        <pt x="118" y="-25" on="0"/>
        <pt x="65" y="50" on="0"/>
        <pt x="65" y="182" on="0"/>
        <pt x="139" y="590" on="0"/>
      </contour>
    </TTGlyph>
    <TTGlyph name="l" xMin="70" yMin="-25" xMax="365" yMax="775">
      <contour>
        <pt x="149" y="622" on="1"/>
        <pt x="93" y="702" on="1"/>
        <pt x="218" y="775" on="0"/>
        <pt x="290" y="775" on="1"/>
        <pt x="331" y="775" on="0"/>
        <pt x="365" y="742" on="0"/>
        <pt x="365" y="651" on="0"/>
        <pt x="276" y="229" on="0"/>
        <pt x="276" y="59" on="0"/>
        <pt x="307" y="24" on="1"/>
        <pt x="237" y="-25" on="0"/>
        <pt x="123" y="-25" on="0"/>
        <pt x="70" y="50" on="0"/>
        <pt x="70" y="182" on="0"/>
        <pt x="144" y="590" on="0"/>
      </contour>
    </TTGlyph>
    <TTGlyph name="leaf" xMin="-223" yMin="-209" xMax="1140" yMax="600">
      <contour>
        <pt x="295" y="4" on="1"/>
        <pt x="335" y="56" on="0"/>
        <pt x="395" y="200" on="0"/>
        <pt x="465" y="372" on="1"/>
        <pt x="425" y="399" on="0"/>
        <pt x="378" y="416" on="0"/>
        <pt x="285" y="416" on="0"/>
        <pt x="177" y="367" on="0"/>
        <pt x="73" y="291" on="0"/>
        <pt x="20" y="252" on="1"/>
        <pt x="-110" y="155" on="0"/>
        <pt x="-223" y="133" on="1"/>
        <pt x="-223" y="247" on="0"/>
        <pt x="-165" y="428" on="0"/>
        <pt x="-115" y="484" on="1"/>
        <pt x="-13" y="600" on="0"/>
        <pt x="131" y="600" on="1"/>
        <pt x="225" y="600" on="0"/>
        <pt x="408" y="498" on="0"/>
        <pt x="477" y="402" on="1"/>
        <pt x="519" y="503" on="1"/>
        <pt x="549" y="574" on="0"/>
        <pt x="599" y="574" on="1"/>
        <pt x="631" y="574" on="0"/>
        <pt x="656" y="553" on="1"/>
        <pt x="623" y="525" on="0"/>
        <pt x="560" y="372" on="0"/>
        <pt x="434" y="45" on="1"/>
        <pt x="453" y="42" on="0"/>
        <pt x="546" y="-11" on="0"/>
        <pt x="632" y="-11" on="0"/>
        <pt x="738" y="40" on="0"/>
        <pt x="840" y="115" on="0"/>
        <pt x="945" y="193" on="0"/>
        <pt x="1076" y="258" on="0"/>
        <pt x="1140" y="268" on="1"/>
        <pt x="1103" y="44" on="0"/>
        <pt x="857" y="-209" on="0"/>
        <pt x="710" y="-209" on="1"/>
        <pt x="612" y="-209" on="0"/>
        <pt x="482" y="-95" on="0"/>
        <pt x="426" y="26" on="1"/>
        <pt x="416" y="-2" on="0"/>
        <pt x="390" y="-26" on="0"/>
        <pt x="367" y="-26" on="1"/>
        <pt x="322" y="-26" on="0"/>
      </contour>
    </TTGlyph>
    <TTGlyph name="less" xMin="103" yMin="91" xMax="625" yMax="656">
      <contour>
        <pt x="610" y="502" on="1"/>
        <pt x="560" y="497" on="0"/>
        <pt x="449" y="452" on="0"/>
        <pt x="313" y="382" on="0"/>
        <pt x="281" y="369" on="1"/>
        <pt x="329" y="343" on="0"/>
        <pt x="511" y="280" on="0"/>
        <pt x="625" y="233" on="0"/>
        <pt x="625" y="214" on="1"/>
        <pt x="625" y="183" on="0"/>
        <pt x="560" y="110" on="0"/>
        <pt x="523" y="91" on="1"/>
        <pt x="491" y="125" on="0"/>
        <pt x="377" y="185" on="0"/>
        <pt x="204" y="267" on="0"/>
        <pt x="128" y="307" on="0"/>
        <pt x="104" y="377" on="0"/>
        <pt x="103" y="429" on="1"/>
        <pt x="150" y="432" on="0"/>
        <pt x="288" y="504" on="0"/>
        <pt x="346" y="546" on="1"/>
        <pt x="499" y="656" on="0"/>
        <pt x="537" y="656" on="1"/>
        <pt x="567" y="656" on="0"/>
        <pt x="610" y="558" on="0"/>
      </contour>
    </TTGlyph>
    <TTGlyph name="lessequal" xMin="100" yMin="-128" xMax="633" yMax="710">
      <contour>
        <pt x="610" y="556" on="1"/>
        <pt x="560" y="551" on="0"/>
        <pt x="449" y="506" on="0"/>
        <pt x="313" y="436" on="0"/>
        <pt x="281" y="423" on="1"/>
        <pt x="329" y="397" on="0"/>
        <pt x="511" y="334" on="0"/>
        <pt x="625" y="287" on="0"/>
        <pt x="625" y="268" on="1"/>
        <pt x="625" y="237" on="0"/>
        <pt x="560" y="164" on="0"/>
        <pt x="523" y="145" on="1"/>
        <pt x="491" y="179" on="0"/>
        <pt x="377" y="239" on="0"/>
        <pt x="204" y="321" on="0"/>
        <pt x="128" y="361" on="0"/>
        <pt x="104" y="431" on="0"/>
        <pt x="103" y="483" on="1"/>
        <pt x="150" y="486" on="0"/>
        <pt x="288" y="558" on="0"/>
        <pt x="346" y="600" on="1"/>
        <pt x="499" y="710" on="0"/>
        <pt x="537" y="710" on="1"/>
        <pt x="567" y="710" on="0"/>
        <pt x="610" y="612" on="0"/>
      </contour>
      <contour>
        <pt x="259" y="29" on="1"/>
        <pt x="554" y="35" on="1"/>
        <pt x="633" y="35" on="0"/>
        <pt x="633" y="-41" on="1"/>
        <pt x="633" y="-85" on="0"/>
        <pt x="615" y="-120" on="1"/>
        <pt x="576" y="-104" on="0"/>
        <pt x="441" y="-104" on="0"/>
        <pt x="199" y="-128" on="0"/>
        <pt x="139" y="-128" on="1"/>
        <pt x="100" y="-128" on="0"/>
        <pt x="100" y="0" on="0"/>
        <pt x="131" y="46" on="1"/>
        <pt x="185" y="29" on="0"/>
      </contour>
    </TTGlyph>
    <TTGlyph name="logicalnot" xMin="95" yMin="81" xMax="638" yMax="458">
      <contour>
        <pt x="259" y="440" on="1"/>
        <pt x="554" y="446" on="1"/>
        <pt x="638" y="446" on="0"/>
        <pt x="638" y="370" on="1"/>
        <pt x="638" y="336" on="0"/>
        <pt x="586" y="189" on="0"/>
        <pt x="586" y="131" on="0"/>
        <pt x="594" y="105" on="1"/>
        <pt x="548" y="81" on="0"/>
        <pt x="496" y="81" on="1"/>
        <pt x="432" y="81" on="0"/>
        <pt x="432" y="136" on="1"/>
        <pt x="432" y="172" on="0"/>
        <pt x="476" y="300" on="0"/>
        <pt x="478" y="307" on="1"/>
        <pt x="434" y="305" on="0"/>
        <pt x="201" y="283" on="0"/>
        <pt x="139" y="283" on="1"/>
        <pt x="95" y="283" on="0"/>
        <pt x="95" y="405" on="0"/>
        <pt x="129" y="458" on="1"/>
        <pt x="178" y="440" on="0"/>
      </contour>
    </TTGlyph>
    <TTGlyph name="lozenge" xMin="25" yMin="-235" xMax="767" yMax="775">
      <contour>
        <pt x="767" y="254" on="1"/>
        <pt x="710" y="220" on="0"/>
        <pt x="649" y="133" on="1"/>
        <pt x="628" y="104" on="0"/>
        <pt x="543" y="-12" on="0"/>
        <pt x="473" y="-111" on="0"/>
        <pt x="411" y="-203" on="0"/>
        <pt x="336" y="-235" on="0"/>
        <pt x="282" y="-235" on="1"/>
        <pt x="283" y="-231" on="0"/>
        <pt x="283" y="-220" on="1"/>
        <pt x="283" y="-166" on="0"/>
        <pt x="202" y="-8" on="0"/>
        <pt x="154" y="58" on="1"/>
        <pt x="25" y="235" on="0"/>
        <pt x="25" y="287" on="1"/>
        <pt x="54" y="303" on="0"/>
        <pt x="120" y="374" on="0"/>
        <pt x="165" y="439" on="0"/>
        <pt x="248" y="552" on="0"/>
        <pt x="319" y="651" on="0"/>
        <pt x="381" y="743" on="0"/>
        <pt x="456" y="775" on="0"/>
        <pt x="510" y="775" on="1"/>
        <pt x="509" y="770" on="0"/>
        <pt x="509" y="760" on="1"/>
        <pt x="509" y="706" on="0"/>
        <pt x="590" y="548" on="0"/>
        <pt x="638" y="482" on="1"/>
        <pt x="767" y="306" on="0"/>
      </contour>
      <contour>
        <pt x="520" y="270" on="1"/>
        <pt x="446" y="382" on="0"/>
        <pt x="409" y="496" on="1"/>
        <pt x="338" y="361" on="0"/>
        <pt x="271" y="270" on="1"/>
        <pt x="345" y="160" on="0"/>
        <pt x="382" y="45" on="1"/>
        <pt x="453" y="182" on="0"/>
      </contour>
    </TTGlyph>
    <TTGlyph name="lslash" xMin="14" yMin="-25" xMax="410" yMax="775">
      <contour>
        <pt x="79" y="307" on="1"/>
        <pt x="14" y="307" on="0"/>
        <pt x="14" y="357" on="1"/>
        <pt x="14" y="395" on="0"/>
        <pt x="47" y="431" on="1"/>
        <pt x="67" y="421" on="0"/>
        <pt x="98" y="421" on="1"/>
        <pt x="156" y="421" on="0"/>
        <pt x="318" y="491" on="0"/>
        <pt x="345" y="491" on="1"/>
        <pt x="410" y="491" on="0"/>
        <pt x="410" y="441" on="1"/>
        <pt x="410" y="403" on="0"/>
        <pt x="377" y="367" on="1"/>
        <pt x="357" y="377" on="0"/>
        <pt x="326" y="377" on="1"/>
        <pt x="268" y="377" on="0"/>
        <pt x="106" y="307" on="0"/>
      </contour>
      <contour>
        <pt x="149" y="622" on="1"/>
        <pt x="93" y="702" on="1"/>
        <pt x="218" y="775" on="0"/>
        <pt x="290" y="775" on="1"/>
        <pt x="331" y="775" on="0"/>
        <pt x="365" y="742" on="0"/>
        <pt x="365" y="651" on="0"/>
        <pt x="276" y="229" on="0"/>
        <pt x="276" y="59" on="0"/>
        <pt x="307" y="24" on="1"/>
        <pt x="237" y="-25" on="0"/>
        <pt x="123" y="-25" on="0"/>
        <pt x="70" y="50" on="0"/>
        <pt x="70" y="182" on="0"/>
        <pt x="144" y="590" on="0"/>
      </contour>
    </TTGlyph>
</ttFont>
